SplineFontDB: 2.0
FontName: THBaijam
FullName: THBaijam
FamilyName: TH Baijam
Weight: Book
Copyright: Copyright (c) 2006 by Department of Intellectual Property (DIP), Ministry of Commerce and Software Industry Promotion Agency (Public Organization) (SIPA). All rights reserved.
Version: 1.1
ItalicAngle: 0
UnderlinePosition: -35
UnderlineWidth: 30
Ascent: 800
Descent: 200
XUID: [1021 375 425136265 7827742]
FSType: 0
OS2Version: 3
OS2_WeightWidthSlopeOnly: 0
OS2_UseTypoMetrics: 1
CreationTime: 1154326859
ModificationTime: 1204808450
PfmFamily: 17
TTFWeight: 400
TTFWidth: 5
LineGap: 60
VLineGap: 0
Panose: 2 0 5 6 0 0 0 2 0 4
OS2TypoAscent: 0
OS2TypoAOffset: 1
OS2TypoDescent: 0
OS2TypoDOffset: 1
OS2TypoLinegap: 0
OS2WinAscent: 0
OS2WinAOffset: 1
OS2WinDescent: -108
OS2WinDOffset: 1
HheadAscent: 0
HheadAOffset: 1
HheadDescent: 108
HheadDOffset: 1
OS2SubXSize: 700
OS2SubYSize: 650
OS2SubXOff: 0
OS2SubYOff: 140
OS2SupXSize: 700
OS2SupYSize: 650
OS2SupXOff: 0
OS2SupYOff: 477
OS2StrikeYSize: 30
OS2StrikeYPos: 250
OS2FamilyClass: 773
OS2Vendor: 'IPTH'
Lookup: 4 0 0 "'frac' Diagonal Fractions in Latin lookup 0"  {"'frac' Diagonal Fractions in Latin lookup 0 subtable"  } ['frac' ('latn' <'dflt' > ) ]
Lookup: 6 0 0 "'liga' Standard Ligatures in Latin lookup 1"  {"'liga' Standard Ligatures in Latin lookup 1 subtable"  } ['liga' ('latn' <'dflt' > ) ]
Lookup: 6 0 0 "'liga' Standard Ligatures in Latin lookup 2"  {"'liga' Standard Ligatures in Latin lookup 2 subtable"  } ['liga' ('latn' <'dflt' > ) ]
Lookup: 6 0 0 "'liga' Standard Ligatures in Latin lookup 3"  {"'liga' Standard Ligatures in Latin lookup 3 subtable"  } ['liga' ('latn' <'dflt' > ) ]
Lookup: 6 0 0 "'liga' Standard Ligatures in Latin lookup 4"  {"'liga' Standard Ligatures in Latin lookup 4 subtable"  } ['liga' ('latn' <'dflt' > ) ]
Lookup: 6 0 0 "'liga' Standard Ligatures in Latin lookup 5"  {"'liga' Standard Ligatures in Latin lookup 5 subtable"  } ['liga' ('latn' <'dflt' > ) ]

StartChar: .notdef
Encoding: 65536 -1 0
Width: 753
VWidth: 1507
Flags: W
HStem: 0 80<169 582> 974 74<169 582>
VStem: 95 74<80 974> 582 75<80 974>
Fore
582 80 m 1
 582 974 l 1
 169 974 l 1
 169 80 l 1
 582 80 l 1
657 0 m 1
 95 0 l 1
 95 1048 l 1
 657 1048 l 1
 657 0 l 1
EndSplineSet
EndChar
StartChar: numbersign
Encoding: 35 35 4
Width: 658
VWidth: 1507
Flags: W
HStem: 0 21G<176 240 433 496> 199 63<57 176 240 433 496 604> 470 64<57 176 240 433 496 604> 696 20G<176 240 433 496>
VStem: 176 64<0 199 262 470 534 716> 433 63<0 199 262 470 534 716>
Fore
433 199 m 1
 240 199 l 1
 240 0 l 1
 176 0 l 1
 176 199 l 1
 57 199 l 1
 57 262 l 1
 176 262 l 1
 176 470 l 1
 57 470 l 1
 57 534 l 1
 176 534 l 1
 176 716 l 1
 240 716 l 1
 240 534 l 1
 433 534 l 1
 433 716 l 1
 496 716 l 1
 496 534 l 1
 604 534 l 1
 604 470 l 1
 496 470 l 1
 496 262 l 1
 604 262 l 1
 604 199 l 1
 496 199 l 1
 496 0 l 1
 433 0 l 1
 433 199 l 1
240 262 m 1
 433 262 l 1
 433 470 l 1
 240 470 l 1
 240 262 l 1
EndSplineSet
EndChar
StartChar: dollar
Encoding: 36 36 5
Width: 547
VWidth: 1507
Flags: W
HStem: 0 68<127.092 252 315 387.686> 648 68<164.372 252 315 403.338>
VStem: 27 68<96.754 152> 51 68<469.406 605.513> 252 63<-80 0 68 314 409 648 716 791> 436 67<564 618.816> 449 68<124.906 253.729>
Fore
517 179 m 0xca
 517 100 442 -0 336 0 c 2
 315 0 l 1
 315 -80 l 1
 252 -80 l 1
 252 0 l 1
 194 0 l 2
 106 0 27 51 27 152 c 1
 95 152 l 1xea
 95 94 146 68 194 68 c 2
 252 68 l 1
 252 341 l 1
 169 377 l 2
 113 401 51 443 51 546 c 0
 51 651 148 716 232 716 c 2
 252 716 l 1
 252 791 l 1
 315 791 l 1
 315 716 l 1
 336 716 l 2
 425 716 503 665 503 564 c 1
 436 564 l 1xdc
 436 621 387 648 336 648 c 2
 315 648 l 1
 315 381 l 1
 399 345 l 2
 472 314 517 279 517 179 c 0xca
336 68 m 2
 377 68 449 125 449 178 c 0
 449 238 431 264 383 285 c 2
 315 314 l 1
 315 68 l 1
 336 68 l 2
232 648 m 2
 179 648 119 609 119 547 c 0xd8
 119 462 167 445 185 437 c 2
 252 409 l 1
 252 648 l 1
 232 648 l 2
EndSplineSet
EndChar
StartChar: percent
Encoding: 37 37 6
Width: 875
VWidth: 1507
Flags: W
HStem: 18 63<591.986 626 659 693.842> 304 62<603.126 635 671 708.056> 329 63<162.358 196 229 264.585> 615 63<174.277 205 241 275.522>
VStem: 93 61<400.18 430 556 595.431> 285 60<411.75 448 579 607.218> 523 60<90.7487 118 244 282.595> 715 60<102.252 137 268 295.454>
Fore
345 579 m 2xbf
 345 626 324 678 241 678 c 2
 205 678 l 2
 141 678 93 611 93 556 c 2
 93 430 l 2
 93 368 131 329 196 329 c 2
 229 329 l 2
 296 329 345 387 345 448 c 2
 345 579 l 2xbf
285 460 m 2
 285 422 251 392 216 392 c 2
 210 392 l 2
 173 392 154 410 154 445 c 2
 154 544 l 2
 154 580 182 615 223 615 c 2
 229 615 l 2
 266 615 285 598 285 564 c 2
 285 460 l 2
775 268 m 2
 775 331 738 366 671 366 c 2
 635 366 l 2xdf
 577 366 523 310 523 244 c 2
 523 118 l 2
 523 56 560 18 626 18 c 2
 659 18 l 2
 724 18 775 73 775 137 c 2
 775 268 l 2
203 -26 m 1
 591 739 l 1
 657 739 l 1
 273 -26 l 1
 203 -26 l 1
715 149 m 2
 715 114 683 81 645 81 c 2
 639 81 l 2
 602 81 583 99 583 134 c 2
 583 234 l 2
 583 270 612 304 653 304 c 2
 659 304 l 2
 696 304 715 287 715 253 c 2
 715 149 l 2
EndSplineSet
EndChar
StartChar: ampersand
Encoding: 38 38 7
Width: 657
VWidth: 1507
Flags: W
HStem: -9 68<182.422 363.655> 651 65<242.422 394.5>
VStem: 54 68<121.964 264.937> 134 66<505.307 608.101> 418 66<504.478 625.611>
Fore
463 190 m 1
 491 249 499 292 499 318 c 1
 567 318 l 1
 567 244 535 173 511 133 c 1
 589 38 l 2
 600 24 612 11 623 0 c 1
 538 0 l 1
 498 48 l 2
 489 57 481 68 472 80 c 1
 432 37 368 -9 285 -9 c 2
 241 -9 l 2
 152 -9 54 83 54 179 c 2
 54 213 l 2
 54 292 125 348 210 395 c 1
 184 425 l 2
 136 478 134 512 134 534 c 2
 134 546 l 2
 134 649 221 716 304 716 c 2
 344 716 l 2
 420 716 484 657 484 576 c 2
 484 562 l 2
 484 489 441 435 321 380 c 2
 309 374 l 1
 463 190 l 1
122 179 m 2
 122 130 182 59 241 59 c 2
 285 59 l 2
 350 59 397 99 427 136 c 1
 250 347 l 1
 198 321 122 267 122 213 c 2
 122 179 l 2
304 651 m 2
 247 651 200 605 200 546 c 2
 200 535 l 2
 200 509 212 501 231 470 c 2
 233 465 245 450 267 424 c 1
 285 432 l 2
 415 490 418 535 418 562 c 2
 418 574 l 2
 418 619 381 651 341 651 c 2
 304 651 l 2
EndSplineSet
EndChar
StartChar: quotesingle
Encoding: 39 39 8
Width: 188
VWidth: 1507
Flags: W
VStem: 54 71<541 761 541 761 541 541>
Fore
54 761 m 1
 125 761 l 1
 125 541 l 1
 54 541 l 1
 54 761 l 1
EndSplineSet
EndChar
StartChar: parenleft
Encoding: 40 40 9
Width: 327
VWidth: 1507
Flags: W
HStem: 696 20G<168.5 282>
VStem: 71 68<81.493 439.794>
Fore
139 255 m 0
 139 70 210 -92 282 -207 c 1
 208 -207 l 1
 134 -89 71 70 71 255 c 0
 71 451 129 595 208 716 c 1
 282 716 l 1
 196 585 139 439 139 255 c 0
EndSplineSet
EndChar
StartChar: parenright
Encoding: 41 41 10
Width: 327
VWidth: 1507
Flags: W
HStem: 696 20G<71 184.5>
VStem: 214 68<81.1571 440.016>
Fore
282 255 m 0
 282 69 219 -88 145 -207 c 1
 71 -207 l 1
 143 -92 214 69 214 255 c 0
 214 439 157 585 71 716 c 1
 145 716 l 1
 224 595 282 452 282 255 c 0
EndSplineSet
EndChar
StartChar: asterisk
Encoding: 42 42 11
Width: 471
VWidth: 1507
Flags: W
VStem: 207 52<452 597 689 835 452 835 452 452>
Fore
207 687 m 1
 207 835 l 1
 259 835 l 1
 259 689 l 1
 386 763 l 1
 386 760 385 761 413 718 c 1
 283 644 l 1
 413 570 l 1
 386 525 l 1
 259 597 l 1
 259 452 l 1
 207 452 l 1
 207 598 l 1
 80 526 l 1
 53 571 l 1
 178 644 l 1
 53 716 l 1
 53 719 52 718 80 761 c 1
 207 687 l 1
EndSplineSet
EndChar
StartChar: plus
Encoding: 43 43 12
Width: 574
VWidth: 1507
Flags: W
HStem: 300 63<56 256 320 520>
VStem: 256 64<99 300 363 564>
Fore
320 300 m 1
 320 99 l 1
 256 99 l 1
 256 300 l 1
 56 300 l 1
 56 363 l 1
 256 363 l 1
 256 564 l 1
 320 564 l 1
 320 363 l 1
 520 363 l 1
 520 300 l 1
 320 300 l 1
EndSplineSet
EndChar
StartChar: comma
Encoding: 44 44 13
Width: 232
VWidth: 1507
Flags: W
HStem: -121 214<57 101 101 101>
VStem: 101 62<-16.767 93>
Fore
23 -72 m 1
 45 -50 101 -27 101 53 c 2
 101 93 l 1
 163 93 l 1
 163 53 l 2
 163 -64 85 -100 57 -121 c 1
 23 -72 l 1
EndSplineSet
EndChar
StartChar: hyphen
Encoding: 45 45 14
Width: 357
VWidth: 1507
Flags: W
HStem: 282 69<42 314 42 314 42 42>
Fore
42 282 m 1
 42 351 l 1
 314 351 l 1
 314 282 l 1
 42 282 l 1
EndSplineSet
EndChar
StartChar: period
Encoding: 46 46 15
Width: 272
VWidth: 1507
Flags: W
HStem: -8 106<98.8538 183.752>
VStem: 89 105<1.85384 88.273>
Fore
142 -8 m 256
 110 -8 89 16 89 45 c 256
 89 77 113 98 142 98 c 256
 171 98 194 77 194 45 c 256
 194 17 173 -8 142 -8 c 256
EndSplineSet
EndChar
StartChar: slash
Encoding: 47 47 16
Width: 453
VWidth: 1507
Flags: MW
Fore
-2 -26 m 1
 386 739 l 1
 452 739 l 1
 68 -26 l 1
 -2 -26 l 1
EndSplineSet
EndChar
StartChar: zero
Encoding: 48 48 17
Width: 574
VWidth: 1507
Flags: W
HStem: -8 61<176.995 357.293> 663 61<217.798 399.75>
VStem: 48 68<117.428 549.954> 460 68<166.191 600.767>
Fore
48 464 m 2
 48 599 162 724 276 724 c 2
 317 724 l 2
 459 724 528 635 528 514 c 2
 528 246 l 2
 528 110 412 -8 291 -8 c 2
 258 -8 l 2
 119 -8 48 83 48 205 c 2
 48 464 l 2
292 663 m 2
 185 663 116 547 116 464 c 2
 116 205 l 2
 116 143 144 53 256 53 c 2
 282 53 l 2
 376 53 460 154 460 246 c 2
 460 514 l 2
 460 577 432 663 318 663 c 2
 292 663 l 2
EndSplineSet
EndChar
StartChar: one
Encoding: 49 49 18
Width: 410
VWidth: 1507
Flags: W
HStem: 0 21G<213 280> 491 62<50 124.581> 696 20G<213 280>
VStem: 213 67<0 555 642.302 716>
Fore
50 553 m 1
 136 553 213 635 213 716 c 1
 280 716 l 1
 280 0 l 1
 213 0 l 1
 213 555 l 1
 167 510 112 494 50 491 c 1
 50 553 l 1
EndSplineSet
EndChar
StartChar: two
Encoding: 50 50 19
Width: 584
VWidth: 1507
Flags: W
HStem: 0 60<122 537> 675 61<204.681 403.922>
VStem: 48 74<60 144.447> 457 68<465.494 621.313>
Fore
66 629 m 1
 119 694 200 736 289 736 c 2
 314 736 l 2
 449 736 525 663 525 534 c 0
 525 464 501 423 436 374 c 2
 184 188 l 2
 160 171 122 137 122 60 c 1
 537 60 l 1
 537 0 l 1
 48 0 l 1
 48 68 l 2
 48 145 83 197 128 231 c 2
 415 443 l 2
 435 458 457 495 457 534 c 0
 457 628 410 675 315 675 c 2
 289 675 l 2
 215 675 156 630 121 588 c 1
 66 629 l 1
EndSplineSet
EndChar
StartChar: three
Encoding: 51 51 20
Width: 590
VWidth: 1507
Flags: W
HStem: -6 60<185.877 365.021> 384 61<207 407.971> 675 61<184.877 382.977>
VStem: 439 67<475.396 622.351> 475 68<160.692 319.976>
Fore
475 247 m 0xe8
 475 313 422 384 341 384 c 2
 207 384 l 1
 207 445 l 1
 348 445 l 2
 396 449 439 476 439 534 c 0
 439 628 392 675 297 675 c 2
 271 675 l 2
 197 675 138 630 103 588 c 1
 48 629 l 1
 95 688 172 736 271 736 c 2
 295 736 l 2
 464 736 506 627 506 534 c 0xf0
 506 483 489 444 455 416 c 1
 507 379 543 315 543 247 c 0
 543 95 426 -6 276 -6 c 0
 204 -6 120 8 33 116 c 1
 84 161 l 1
 163 72 218 54 277 54 c 0
 387 54 475 143 475 247 c 0xe8
EndSplineSet
EndChar
StartChar: four
Encoding: 52 52 21
Width: 589
VWidth: 1507
Flags: W
HStem: 0 21G<392 460> 148 60<131 392 460 552> 696 20G<378.376 460>
VStem: 392 68<0 148 208 598>
Fore
392 0 m 1
 392 148 l 1
 116 148 l 2
 82 148 48 161 48 211 c 1
 392 716 l 1
 460 716 l 1
 460 208 l 1
 552 208 l 1
 552 148 l 1
 460 148 l 1
 460 0 l 1
 392 0 l 1
392 598 m 1
 131 208 l 1
 392 208 l 1
 392 598 l 1
EndSplineSet
EndChar
StartChar: five
Encoding: 53 53 22
Width: 605
VWidth: 1507
Flags: W
HStem: -6 60<200.877 380.021> 384 61<181 425.05> 656 60<181 519>
VStem: 113 68<445 656> 490 68<160.692 319.759>
Fore
490 247 m 0
 490 313 437 384 356 384 c 2
 113 384 l 1
 113 716 l 1
 519 716 l 1
 519 656 l 1
 181 656 l 1
 181 445 l 1
 375 445 l 2
 489 445 558 337 558 247 c 0
 558 95 441 -6 291 -6 c 0
 219 -6 135 8 48 116 c 1
 99 161 l 1
 178 72 233 54 292 54 c 0
 402 54 490 143 490 247 c 0
EndSplineSet
EndChar
StartChar: six
Encoding: 54 54 23
Width: 598
VWidth: 1507
Flags: W
HStem: -6 60<198.263 377.369> 389 60<239.221 426.793> 675 61<251.44 394.868>
VStem: 54 85<140.417 286.818> 54 68<353 545.884> 482 68<158.339 250 250 333.592>
Fore
122 353 m 1xec
 158 401 219 449 298 449 c 2
 339 449 l 2
 508 449 550 344 550 250 c 2
 550 240 l 2
 550 97 426 -6 314 -6 c 2
 280 -6 l 2
 99 -6 54 148 54 288 c 2
 54 449 l 2
 54 620 194 736 339 736 c 0
 404 736 456 716 494 687 c 1
 454 632 l 1
 395 673 356 675 339 675 c 0
 221 675 122 572 122 451 c 2
 122 353 l 1xec
315 389 m 2
 219 389 139 297 139 200 c 0xf4
 139 135 167 54 279 54 c 2
 304 54 l 2
 389 54 482 138 482 240 c 2
 482 250 l 2
 482 316 454 389 341 389 c 2
 315 389 l 2
EndSplineSet
EndChar
StartChar: seven
Encoding: 55 55 24
Width: 554
VWidth: 1507
Flags: MW
HStem: 0 21G<187 255> 657 61<38 433>
VStem: 187 68<0 153.971>
Fore
38 718 m 1
 519 718 l 1
 519 672 l 1
 300 214 l 2
 271 154 255 82 255 0 c 1
 187 0 l 1
 195 138 208 173 225 211 c 2
 433 657 l 1
 38 657 l 1
 38 718 l 1
EndSplineSet
EndChar
StartChar: eight
Encoding: 56 56 25
Width: 592
VWidth: 1507
Flags: W
HStem: -8 61<178.359 379.171> 356 60<215.789 256 256 376.646> 665 60<225.215 398.997>
VStem: 48 68<112.341 255.633> 78 68<466.334 591.688> 448 69<481.706 619.898> 476 68<140.555 285.069>
Fore
517 540 m 0xec
 517 475 470 417 437 392 c 1
 498 365 544 296 544 219 c 0
 544 37 385 -8 277 -8 c 2
 258 -8 l 2
 147 -8 48 61 48 188 c 0xf2
 48 267 104 340 155 377 c 1
 85 420 78 480 78 514 c 0
 78 631 174 725 286 725 c 2
 324 725 l 2
 478 725 517 624 517 540 c 0xec
476 219 m 0
 476 291 402 356 342 356 c 2
 292 356 l 2
 186 356 116 244 116 188 c 0
 116 99 181 53 256 53 c 2
 276 53 l 2
 376 53 476 106 476 219 c 0
146 516 m 0xec
 146 430 232 416 256 416 c 2
 312 416 l 2
 387 422 448 487 448 540 c 0
 448 598 423 665 324 665 c 2
 301 665 l 2
 220 665 146 602 146 516 c 0xec
EndSplineSet
EndChar
StartChar: nine
Encoding: 57 57 26
Width: 592
VWidth: 1507
Flags: W
HStem: -6 60<179.353 347.227> 282 60<171.51 359.844> 675 61<217.454 400.627>
VStem: 48 68<398.439 567.792> 460 84<444.419 586.941> 476 68<183.571 377>
Fore
476 377 m 1xf4
 441 327 380 282 300 282 c 2
 259 282 l 2
 124 282 48 350 48 479 c 2
 48 490 l 2
 48 623 162 736 285 736 c 2
 318 736 l 2
 505 736 544 575 544 440 c 2
 544 279 l 2
 544 128 425 -6 259 -6 c 0
 195 -6 142 14 104 42 c 1
 145 98 l 1
 173 77 213 54 259 54 c 0
 377 54 476 154 476 279 c 2
 476 377 l 1xf4
283 342 m 2
 381 342 460 436 460 529 c 0xf8
 460 620 409 675 320 675 c 2
 294 675 l 2
 202 675 116 583 116 490 c 2
 116 479 l 2
 116 414 144 342 258 342 c 2
 283 342 l 2
EndSplineSet
EndChar
StartChar: colon
Encoding: 58 58 27
Width: 301
VWidth: 1507
Flags: W
HStem: 27 106<116.854 203.146> 396 106<116.854 203.146>
VStem: 107 106<36.8538 123.273 406.021 492.273>
Fore
160 27 m 256
 128 27 107 51 107 80 c 256
 107 112 131 133 160 133 c 256
 189 133 213 112 213 80 c 256
 213 48 189 27 160 27 c 256
160 396 m 256
 128 396 107 420 107 449 c 256
 107 481 131 502 160 502 c 256
 189 502 213 481 213 449 c 256
 213 418 189 396 160 396 c 256
EndSplineSet
EndChar
StartChar: semicolon
Encoding: 59 59 28
Width: 301
VWidth: 1507
Flags: W
HStem: 396 106<116.854 203.146>
VStem: 107 106<406.021 492.273> 139 61<31.1197 142>
Fore
160 396 m 256xc0
 128 396 107 420 107 449 c 256
 107 481 131 502 160 502 c 256
 189 502 213 481 213 449 c 256
 213 418 189 396 160 396 c 256xc0
60 -24 m 1
 87 1 139 23 139 101 c 2
 139 142 l 1
 200 142 l 1
 200 101 l 2xa0
 200 -16 121 -53 95 -72 c 1
 60 -24 l 1
EndSplineSet
EndChar
StartChar: less
Encoding: 60 60 29
Width: 621
VWidth: 1507
Flags: W
HStem: -11 21G<539.346 573>
Fore
573 615 m 1
 573 547 l 1
 166 301 l 1
 573 57 l 1
 573 -11 l 1
 48 301 l 1
 573 615 l 1
EndSplineSet
EndChar
StartChar: equal
Encoding: 61 61 30
Width: 527
VWidth: 1507
Flags: W
HStem: 185 70<42 464 42 464 42 42> 378 70<42 464>
Fore
42 185 m 1
 42 255 l 1
 464 255 l 1
 464 185 l 1
 42 185 l 1
42 378 m 1
 42 448 l 1
 464 448 l 1
 464 378 l 1
 42 378 l 1
EndSplineSet
EndChar
StartChar: greater
Encoding: 62 62 31
Width: 622
VWidth: 1507
Flags: W
HStem: -11 21G<48 81.6538>
Fore
573 301 m 1
 48 -11 l 1
 48 57 l 1
 455 301 l 1
 48 547 l 1
 48 615 l 1
 573 301 l 1
EndSplineSet
EndChar
StartChar: question
Encoding: 63 63 32
Width: 539
VWidth: 1507
Flags: W
HStem: -8 106<189.021 275.273> 651 67<89.5574 357.617>
VStem: 179 106<1.85384 88.1462> 193 68<164 301.805> 419 68<462.458 596.309>
Fore
232 -8 m 256xe8
 201 -8 179 16 179 45 c 256
 179 77 203 98 232 98 c 256
 264 98 285 74 285 45 c 256
 285 16 264 -8 232 -8 c 256xe8
188 651 m 2
 110 651 69 620 53 601 c 1
 23 662 l 1
 43 685 97 718 188 718 c 2
 271 718 l 2
 385 718 487 654 487 526 c 0
 487 412 373 358 323 336 c 0
 286 321 261 284 261 223 c 2
 261 164 l 1
 193 164 l 1
 193 223 l 2xd8
 193 274 214 355 315 402 c 0
 353 420 419 452 419 526 c 0
 419 626 329 651 271 651 c 2
 188 651 l 2
EndSplineSet
EndChar
StartChar: at
Encoding: 64 64 33
Width: 905
VWidth: 1507
Flags: W
HStem: -27 62<224.972 632.992> 139 58<321.062 496.134> 143 62<629.47 732.618> 514 59<339.984 514.056> 681 62<267.544 676.104>
VStem: 63 62<136.416 537.733> 235 59<223.446 467.96> 543 58<243.964 485.162 547 573> 776 62<257.546 580.82>
Fore
428 197 m 2xdf80
 492 197 540 242 543 308 c 2
 543 437 l 2
 539 481 502 514 458 514 c 2
 409 514 l 2
 345 514 294 468 294 399 c 2
 294 280 l 2
 294 236 327 197 377 197 c 2
 428 197 l 2xdf80
125 222 m 2
 125 124 200 35 312 35 c 2
 535 35 l 2
 588 35 636 51 678 84 c 1
 715 35 l 1
 671 2 609 -27 532 -27 c 2
 317 -27 l 2
 165 -27 63 94 63 226 c 2
 63 436 l 2
 63 614 207 743 371 743 c 2
 585 743 l 2
 735 743 838 625 838 490 c 2
 838 384 l 2
 838 255 806 143 680 143 c 0xbf80
 614 143 583 184 571 210 c 1
 543 164 487 139 428 139 c 2
 377 139 l 2xdf80
 297 139 235 198 235 280 c 2
 235 399 l 2
 235 500 317 573 409 573 c 2
 458 573 l 2
 494 573 521 562 543 547 c 1
 543 573 l 1
 601 573 l 1
 601 309 l 2
 601 259 624 205 680 205 c 0xbf80
 764 205 776 311 776 386 c 2
 776 494 l 2
 776 606 689 681 589 681 c 2
 368 681 l 2
 232 681 125 574 125 439 c 2
 125 222 l 2
EndSplineSet
EndChar
StartChar: A
Encoding: 65 65 34
Width: 788
VWidth: 1507
Flags: W
HStem: 0 21G<38 121.7 666.1 751> 200 61<226 559> 698 20G<347.142 365.5>
Fore
356 718 m 1
 375 718 433 713 455 663 c 2
 751 0 l 1
 675 0 l 1
 586 200 l 1
 200 200 l 1
 113 0 l 1
 38 0 l 1
 356 718 l 1
226 261 m 1
 559 261 l 1
 393 636 l 1
 226 261 l 1
EndSplineSet
EndChar
StartChar: B
Encoding: 66 66 35
Width: 714
VWidth: 1507
Flags: W
HStem: 0 60<134 538> 344 60<134 476.61> 656 60<134 472.969>
VStem: 66 68<60.3149 66 66 344 404 656> 528 70<475.1 596.496> 598 71<127.156 276.665>
Fore
669 203 m 0
 669 96 582 0 485 0 c 2
 130 0 l 2
 92 0 66 36 66 66 c 2
 66 716 l 1
 415 716 l 2
 505 716 598 638 598 528 c 0
 598 502 596 457 541 396 c 1
 608 371 669 294 669 203 c 0
598 203 m 256
 598 265 546 344 485 344 c 2
 134 344 l 1
 134 60 l 1
 485 60 l 2
 553 60 598 149 598 203 c 256
528 528 m 256
 528 589 476 656 415 656 c 2
 134 656 l 1
 134 404 l 1
 415 404 l 2
 479 404 528 468 528 528 c 256
EndSplineSet
EndChar
StartChar: C
Encoding: 67 67 36
Width: 705
VWidth: 1507
Flags: W
HStem: -15 60<213.328 464.889> 671 60<254.937 495.706>
VStem: 51 68<148.193 529.069> 586 68<164.383 255 502 582.85>
Fore
51 431 m 2
 51 584 170 731 336 731 c 2
 418 731 l 2
 542 731 651 639 651 502 c 1
 583 502 l 1
 583 596 507 671 418 671 c 2
 336 671 l 2
 217 671 119 552 119 431 c 2
 119 234 l 2
 119 139 194 45 285 45 c 2
 369 45 l 2
 493 45 586 140 586 255 c 1
 654 255 l 1
 654 93 525 -15 369 -15 c 2
 285 -15 l 2
 161 -15 51 96 51 234 c 2
 51 431 l 2
EndSplineSet
EndChar
StartChar: D
Encoding: 68 68 37
Width: 735
VWidth: 1507
Flags: W
HStem: 0 60<134 472.931> 656 60<134 513.71>
VStem: 66 68<60.3149 66 66 656> 601 68<191.625 286 286 565.608>
Fore
669 286 m 2
 669 120 535 -0 384 0 c 2
 130 0 l 2
 92 0 66 36 66 66 c 2
 66 716 l 1
 434 716 l 2
 575 716 669 607 669 481 c 2
 669 286 l 2
601 481 m 2
 601 584 520 656 434 656 c 2
 134 656 l 1
 134 60 l 1
 384 60 l 2
 499 60 601 158 601 286 c 2
 601 481 l 2
EndSplineSet
EndChar
StartChar: E
Encoding: 69 69 38
Width: 705
VWidth: 1507
Flags: W
HStem: 0 60<134 639> 344 60<134 565> 656 60<134 639>
VStem: 66 68<60.3149 344 404 656>
Fore
130 0 m 2
 92 0 66 36 66 66 c 2
 66 716 l 1
 639 716 l 1
 639 656 l 1
 134 656 l 1
 134 404 l 1
 565 404 l 1
 565 344 l 1
 134 344 l 1
 134 60 l 1
 639 60 l 1
 639 0 l 1
 130 0 l 2
EndSplineSet
EndChar
StartChar: F
Encoding: 70 70 39
Width: 705
VWidth: 1507
Flags: W
HStem: 0 21G<66 134> 344 60<134 565> 656 60<134 639>
VStem: 66 68<0 344 404 656>
Fore
134 344 m 1
 134 0 l 1
 66 0 l 1
 66 716 l 1
 639 716 l 1
 639 656 l 1
 134 656 l 1
 134 404 l 1
 565 404 l 1
 565 344 l 1
 134 344 l 1
EndSplineSet
EndChar
StartChar: G
Encoding: 71 71 40
Width: 705
VWidth: 1507
Flags: W
HStem: -15 60<213.328 466.197> 255 60<372 586> 671 60<254.937 495.706>
VStem: 51 68<148.193 234 234 529.069> 586 68<166.127 255 502 579.23>
Fore
119 234 m 2
 119 139 194 45 285 45 c 2
 369 45 l 2
 496 45 586 144 586 255 c 1
 372 255 l 1
 372 315 l 1
 654 315 l 1
 654 255 l 2
 654 93 525 -15 369 -15 c 2
 285 -15 l 2
 161 -15 51 96 51 234 c 2
 51 431 l 2
 51 584 170 731 336 731 c 2
 418 731 l 2
 542 731 651 639 651 502 c 1
 583 502 l 1
 583 596 507 671 418 671 c 2
 336 671 l 2
 217 671 119 552 119 431 c 2
 119 234 l 2
EndSplineSet
EndChar
StartChar: H
Encoding: 72 72 41
Width: 705
VWidth: 1507
Flags: W
HStem: 0 21G<66 134 571 639> 344 60<134 571> 696 20G<66 134 571 639>
VStem: 66 68<0 344 404 716> 571 68<0 344 404 716>
Fore
571 344 m 1
 134 344 l 1
 134 0 l 1
 66 0 l 1
 66 716 l 1
 134 716 l 1
 134 404 l 1
 571 404 l 1
 571 716 l 1
 639 716 l 1
 639 0 l 1
 571 0 l 1
 571 344 l 1
EndSplineSet
EndChar
StartChar: I
Encoding: 73 73 42
Width: 200
VWidth: 1507
Flags: W
HStem: 0 21G<66 134> 696 20G<66 134>
VStem: 66 68<0 716>
Fore
66 716 m 1
 134 716 l 1
 134 0 l 1
 66 0 l 1
 66 716 l 1
EndSplineSet
EndChar
StartChar: J
Encoding: 74 74 43
Width: 615
VWidth: 1507
Flags: W
HStem: -15 68<189.578 360.059> 696 20G<481 549>
VStem: 30 68<147.889 234> 481 68<169.926 716>
Fore
549 255 m 2
 549 93 417 -15 264 -15 c 0
 142 -15 30 95 30 234 c 1
 98 234 l 1
 98 143 170 53 264 53 c 0
 388 53 481 144 481 255 c 2
 481 716 l 1
 549 716 l 1
 549 255 l 2
EndSplineSet
EndChar
StartChar: K
Encoding: 75 75 44
Width: 675
VWidth: 1507
Flags: W
HStem: 0 21G<66 134 523.227 638> 696 20G<66 134 509.045 638>
VStem: 66 68<0 326 407 716>
Fore
543 0 m 1
 282 264 l 2
 255 291 227 308 200 315 c 0
 172 322 150 326 134 326 c 1
 134 0 l 1
 66 0 l 1
 66 716 l 1
 134 716 l 1
 134 407 l 1
 535 716 l 1
 638 716 l 1
 203 374 l 1
 229 374 269 366 334 306 c 2
 371 271 l 2
 378 264 374 266 407 234 c 2
 638 0 l 1
 543 0 l 1
EndSplineSet
EndChar
StartChar: L
Encoding: 76 76 45
Width: 616
VWidth: 1507
Flags: W
HStem: 0 60<134 579> 696 20G<66 134>
VStem: 66 68<60.3149 716>
Fore
130 0 m 2
 92 0 66 36 66 66 c 2
 66 716 l 1
 134 716 l 1
 134 60 l 1
 579 60 l 1
 579 0 l 1
 130 0 l 2
EndSplineSet
EndChar
StartChar: M
Encoding: 77 77 46
Width: 880
VWidth: 1507
Flags: W
HStem: 0 21G<66 134 429.338 450.662 746 814> 698 20G<66 144.813 735.149 814>
VStem: 66 68<0 565> 746 68<0 565>
Fore
814 0 m 1
 746 0 l 1
 746 565 l 1
 440 -9 l 1
 134 565 l 1
 134 0 l 1
 66 0 l 1
 66 718 l 1
 134 718 l 1
 440 152 l 1
 746 716 l 1
 814 716 l 1
 814 0 l 1
EndSplineSet
EndChar
StartChar: N
Encoding: 78 78 47
Width: 735
VWidth: 1507
Flags: W
HStem: 0 21G<66 134 585.511 669> 698 20G<66 149.39 598 669>
VStem: 66 68<0 603> 598 71<115 718>
Fore
598 115 m 1
 598 718 l 1
 669 718 l 1
 669 0 l 1
 601 0 l 1
 134 603 l 1
 134 0 l 1
 66 0 l 1
 66 718 l 1
 134 718 l 1
 598 115 l 1
EndSplineSet
EndChar
StartChar: O
Encoding: 79 79 48
Width: 706
VWidth: 1507
Flags: W
HStem: -15 60<217.668 454.688> 671 60<258.566 493.3>
VStem: 53 68<147.95 526.988> 588 68<187.007 481 481 566.72>
Fore
421 731 m 2
 547 731 656 620 656 481 c 2
 656 286 l 2
 656 131 531 -15 371 -15 c 2
 288 -15 l 2
 157 -15 53 100 53 235 c 2
 53 430 l 2
 53 585 175 731 339 731 c 2
 421 731 l 2
371 45 m 2
 489 45 588 165 588 286 c 2
 588 481 l 2
 588 575 513 671 421 671 c 2
 339 671 l 2
 226 671 121 558 121 430 c 2
 121 235 l 2
 121 138 196 45 288 45 c 2
 371 45 l 2
EndSplineSet
EndChar
StartChar: P
Encoding: 80 80 49
Width: 676
VWidth: 1507
Flags: W
HStem: 0 21G<66 134> 344 60<134 514.908> 656 60<134 514.908>
VStem: 66 68<0 344 404 656> 571 68<458.805 597.007>
Fore
639 528 m 256
 639 422 553 344 451 344 c 2
 134 344 l 1
 134 0 l 1
 66 0 l 1
 66 716 l 1
 451 716 l 2
 553 716 639 632 639 528 c 256
571 528 m 0
 571 587 523 656 451 656 c 2
 134 656 l 1
 134 404 l 1
 451 404 l 2
 517 404 571 460 571 528 c 0
EndSplineSet
EndChar
StartChar: Q
Encoding: 81 81 50
Width: 705
VWidth: 1507
Flags: W
HStem: -15 60<213.7 455.15> 671 60<253.214 489.332>
VStem: 51 68<149.28 525.287> 586 68<188.709 286 286 568.05>
Fore
654 286 m 2
 654 213 628 152 595 106 c 1
 662 35 l 1
 614 -14 l 1
 549 56 l 1
 507 19 447 -15 369 -15 c 2
 286 -15 l 2
 160 -15 51 96 51 235 c 2
 51 430 l 2
 51 593 181 731 338 731 c 2
 419 731 l 2
 550 731 654 616 654 481 c 2
 654 286 l 2
547 154 m 1
 568 188 586 233 586 286 c 2
 586 481 l 2
 586 578 511 671 419 671 c 2
 338 671 l 2
 217 671 119 550 119 430 c 2
 119 235 l 2
 119 141 194 45 286 45 c 2
 369 45 l 2
 423 45 468 68 503 101 c 1
 395 210 l 1
 443 258 l 1
 547 154 l 1
EndSplineSet
EndChar
StartChar: R
Encoding: 82 82 51
Width: 690
VWidth: 1507
Flags: W
HStem: 0 21G<66 134 574.875 668> 344 60<134 368.625 430 514.908> 656 60<134 514.908>
VStem: 66 68<0 344 404 656> 571 68<458.805 597.007>
Fore
639 528 m 256
 639 422 553 344 451 344 c 2
 430 344 l 1
 440 344 462 317 481 288 c 2
 668 0 l 1
 588 0 l 1
 399 288 l 2
 388 306 354 344 324 344 c 2
 134 344 l 1
 134 0 l 1
 66 0 l 1
 66 716 l 1
 451 716 l 2
 553 716 639 632 639 528 c 256
571 528 m 0
 571 587 523 656 451 656 c 2
 134 656 l 1
 134 404 l 1
 451 404 l 2
 517 404 571 460 571 528 c 0
EndSplineSet
EndChar
StartChar: S
Encoding: 83 83 52
Width: 765
VWidth: 1507
Flags: W
HStem: -15 60<214.364 543.406> 674 59<234.576 541.151>
VStem: 51 68<143.594 225> 81 68<478.678 602.528> 615 68<526 599.751> 645 68<138.851 292.088>
Fore
713 208 m 0xd4
 713 65 576 -15 448 -15 c 2
 297 -15 l 2
 166 -15 51 81 51 225 c 1
 119 225 l 1
 119 125 199 45 297 45 c 2
 448 45 l 2
 564 45 645 127 645 208 c 0xe4
 645 302 594 336 534 344 c 2
 235 381 l 2
 92 409 81 482 81 544 c 0
 81 679 234 733 315 733 c 2
 467 733 l 2
 586 733 683 650 683 526 c 1
 615 526 l 1xd8
 615 601 552 674 467 674 c 2
 315 674 l 2
 263 674 149 630 149 544 c 0
 149 505 155 462 246 449 c 2
 541 412 l 2
 670 389 713 309 713 208 c 0xd4
EndSplineSet
EndChar
StartChar: T
Encoding: 84 84 53
Width: 587
VWidth: 1507
Flags: W
HStem: 0 21G<261 329> 656 60<38 261 329 550>
VStem: 261 68<0 656>
Fore
261 656 m 1
 38 656 l 1
 38 716 l 1
 550 716 l 1
 550 656 l 1
 329 656 l 1
 329 0 l 1
 261 0 l 1
 261 656 l 1
EndSplineSet
EndChar
StartChar: U
Encoding: 85 85 54
Width: 720
VWidth: 1507
Flags: W
HStem: -15 60<223.668 460.688> 696 20G<59 127 594 662>
VStem: 59 68<147.95 716> 594 68<191.1 716>
Fore
294 -15 m 2
 163 -15 59 100 59 235 c 2
 59 716 l 1
 127 716 l 1
 127 235 l 2
 127 138 202 45 294 45 c 2
 377 45 l 2
 495 45 594 165 594 286 c 2
 594 716 l 1
 662 716 l 1
 662 286 l 2
 662 124 533 -15 377 -15 c 2
 294 -15 l 2
EndSplineSet
EndChar
StartChar: V
Encoding: 86 86 55
Width: 711
VWidth: 1507
Flags: W
HStem: -8 21G<371 400.762> 696 20G<38 117.582 593.262 674>
Fore
601 716 m 1
 674 716 l 1
 393 -8 l 1
 349 -8 311 5 283 68 c 2
 38 716 l 1
 110 716 l 1
 353 75 l 1
 601 716 l 1
EndSplineSet
EndChar
StartChar: W
Encoding: 87 87 56
Width: 1064
VWidth: 1507
Flags: W
HStem: -8 21G<345 371.261 692.739 720.5> 696 20<38 116.646 490.669 512 947.385 1027>
Fore
366 -8 m 1
 324 -8 281 5 253 68 c 2
 38 716 l 1
 110 716 l 1
 323 75 l 1
 496 724 l 1
 528 724 566 713 580 674 c 2
 742 75 l 1
 954 716 l 1
 1027 716 l 1
 811 68 l 2
 783 5 743 -8 698 -8 c 1
 532 623 l 1
 366 -8 l 1
EndSplineSet
EndChar
StartChar: X
Encoding: 88 88 57
Width: 696
VWidth: 1507
Flags: W
HStem: 0 21G<38 138.933 558 659> 696 20G<38 138.817 557.983 659>
Fore
124 0 m 1
 38 0 l 1
 304 357 l 1
 38 716 l 1
 124 716 l 1
 347 415 l 1
 573 716 l 1
 659 716 l 1
 390 357 l 1
 659 0 l 1
 573 0 l 1
 348 300 l 1
 124 0 l 1
EndSplineSet
EndChar
StartChar: Y
Encoding: 89 89 58
Width: 678
VWidth: 1507
Flags: W
HStem: 0 21G<304 372> 696 20G<38 129.817 548.983 641>
VStem: 304 68<0 357>
Fore
372 0 m 1
 304 0 l 1
 304 357 l 1
 38 716 l 1
 115 716 l 1
 338 415 l 1
 564 716 l 1
 641 716 l 1
 372 357 l 1
 372 0 l 1
EndSplineSet
EndChar
StartChar: Z
Encoding: 90 90 59
Width: 702
VWidth: 1507
Flags: W
HStem: 0 60<173 641> 656 60<62 529>
Fore
62 656 m 1
 62 716 l 1
 665 716 l 1
 173 60 l 1
 641 60 l 1
 641 0 l 1
 38 0 l 1
 529 656 l 1
 62 656 l 1
EndSplineSet
EndChar
StartChar: bracketleft
Encoding: 91 91 60
Width: 292
VWidth: 1507
Flags: W
HStem: -214 56<172.853 243> 745 55<175.955 243>
VStem: 56 63<-141.62 727.031>
Fore
56 689 m 2
 56 772 130 800 207 800 c 2
 243 800 l 1
 243 745 l 1
 207 745 l 2
 183 745 119 738 119 684 c 2
 119 -101 l 2
 119 -150 176 -158 207 -158 c 2
 243 -158 l 1
 243 -214 l 1
 207 -214 l 2
 140 -214 56 -192 56 -106 c 2
 56 689 l 2
EndSplineSet
EndChar
StartChar: bracketright
Encoding: 93 93 62
Width: 292
VWidth: 1507
Flags: W
HStem: -214 56<56 126.358> 745 55<56 124.585>
VStem: 179 64<-141.621 725.983>
Fore
243 -106 m 2
 243 -192 157 -214 92 -214 c 2
 56 -214 l 1
 56 -158 l 1
 92 -158 l 2
 124 -158 179 -150 179 -101 c 2
 179 684 l 2
 179 737 120 745 92 745 c 2
 56 745 l 1
 56 800 l 1
 92 800 l 2
 158 800 243 778 243 689 c 2
 243 -106 l 2
EndSplineSet
EndChar
StartChar: asciicircum
Encoding: 94 94 63
Width: 681
VWidth: 1507
Flags: W
HStem: 374 408<154 338 338 338>
Fore
338 663 m 1
 154 374 l 1
 86 374 l 1
 338 782 l 1
 592 374 l 1
 523 374 l 1
 338 663 l 1
EndSplineSet
EndChar
StartChar: underscore
Encoding: 95 95 64
Width: 539
VWidth: 1507
Flags: W
HStem: -137 60<-2 541>
Fore
-2 -137 m 1
 -2 -77 l 1
 541 -77 l 1
 541 -137 l 1
 -2 -137 l 1
EndSplineSet
EndChar
StartChar: grave
Encoding: 96 96 65
Width: 179
VWidth: 1507
Flags: W
HStem: 565 166<-5 176 -5 -5>
Fore
176 565 m 1
 106 565 l 1
 -5 731 l 1
 66 731 l 1
 176 565 l 1
EndSplineSet
EndChar
StartChar: a
Encoding: 97 97 66
Width: 530
VWidth: 1507
Flags: W
HStem: -8 61<152.181 329.796> 458 61<182.926 342.818>
VStem: 48 68<92.2853 384.904> 412 67<-3 69 133.878 403.801 464 511>
Fore
48 308 m 2
 48 424 142 519 252 519 c 2
 312 519 l 2
 339 519 360 513 373 500 c 2
 412 464 l 1
 412 511 l 1
 479 511 l 1
 479 -3 l 1
 412 -3 l 1
 412 69 l 1
 385 31 317 -8 261 -8 c 2
 200 -8 l 2
 109 -8 48 73 48 167 c 2
 48 308 l 2
261 53 m 2
 333 53 406 123 412 197 c 2
 412 344 l 2
 406 398 363 458 312 458 c 2
 252 458 l 2
 167 458 116 375 116 308 c 2
 116 167 l 2
 116 127 138 53 200 53 c 2
 261 53 l 2
EndSplineSet
Substitution2: "Single Substitution lookup 22 subtable" uni0E38
Substitution2: "Single Substitution lookup 22 subtable" uni0E38
EndChar
StartChar: b
Encoding: 98 98 67
Width: 532
VWidth: 1507
Flags: W
HStem: -8 61<192.516 350.657> 458 61<192.294 375.537> 696 20G<54 122>
VStem: 54 68<0 41 103.307 388.295 449 716> 416 68<127.86 413.109>
Fore
484 203 m 2
 484 80 388 -8 285 -8 c 2
 225 -8 l 2
 198 -8 178 -3 164 8 c 2
 122 41 l 1
 122 0 l 1
 54 0 l 1
 54 716 l 1
 122 716 l 1
 122 449 l 1
 181 506 214 519 261 519 c 2
 321 519 l 2
 409 519 484 443 484 344 c 2
 484 203 l 2
285 53 m 2
 360 53 416 128 416 207 c 2
 416 347 l 2
 416 395 381 458 321 458 c 2
 261 458 l 2
 201 458 138 411 122 333 c 1
 122 154 l 1
 131 102 179 53 225 53 c 2
 285 53 l 2
EndSplineSet
Substitution2: "Single Substitution lookup 22 subtable" uni0E39
Substitution2: "Single Substitution lookup 22 subtable" uni0E39
EndChar
StartChar: c
Encoding: 99 99 68
Width: 526
VWidth: 1507
Flags: W
HStem: -8 61<161.068 354.245> 458 61<182.926 369.129>
VStem: 48 68<102.109 384.904> 412 67<109.039 182 359 417.071>
Fore
48 308 m 2
 48 424 142 519 252 519 c 2
 311 519 l 2
 405 519 478 455 478 359 c 1
 410 359 l 1
 410 411 366 458 311 458 c 2
 252 458 l 2
 167 458 116 375 116 308 c 2
 116 167 l 2
 116 108 163 53 216 53 c 2
 276 53 l 2
 350 53 412 103 412 182 c 1
 479 182 l 1
 479 58 377 -8 276 -8 c 2
 216 -8 l 2
 119 -8 48 78 48 167 c 2
 48 308 l 2
EndSplineSet
Substitution2: "Single Substitution lookup 22 subtable" uni0E3A
Substitution2: "Single Substitution lookup 22 subtable" uni0E3A
EndChar
StartChar: d
Encoding: 100 100 69
Width: 533
VWidth: 1507
Flags: W
HStem: -8 61<152.181 329.796> 458 61<182.926 367.055> 696 20G<412 479>
VStem: 48 68<92.2853 384.904> 412 67<-3 69 133.878 409.823 472 716>
Fore
312 519 m 2
 355 519 375 514 412 472 c 1
 412 716 l 1
 479 716 l 1
 479 -3 l 1
 412 -3 l 1
 412 69 l 1
 393 43 328 -8 261 -8 c 2
 200 -8 l 2
 109 -8 48 73 48 167 c 2
 48 308 l 2
 48 424 142 519 252 519 c 2
 312 519 l 2
261 53 m 2
 333 53 406 123 412 197 c 2
 412 351 l 2
 408 398 369 458 312 458 c 2
 252 458 l 2
 167 458 116 375 116 308 c 2
 116 167 l 2
 116 127 138 53 200 53 c 2
 261 53 l 2
EndSplineSet
EndChar
StartChar: e
Encoding: 101 101 70
Width: 527
VWidth: 1507
Flags: W
HStem: -8 61<161.068 349.152> 267 53<116 412> 458 61<178.297 366.633>
VStem: 48 68<102.109 267 320 393.986> 412 67<116.702 188 320 344 344 406.664>
Fore
312 519 m 2
 407 519 479 437 479 344 c 2
 479 267 l 1
 116 267 l 1
 116 167 l 2
 116 108 163 53 216 53 c 2
 276 53 l 2
 358 53 412 120 412 188 c 1
 479 188 l 1
 479 70 385 -8 276 -8 c 2
 216 -8 l 2
 119 -8 48 78 48 167 c 2
 48 308 l 2
 48 424 142 519 252 519 c 2
 312 519 l 2
412 344 m 2
 412 391 369 458 312 458 c 2
 252 458 l 2
 168 458 116 389 116 320 c 1
 412 320 l 1
 412 344 l 2
EndSplineSet
EndChar
StartChar: f
Encoding: 102 102 71
Width: 319
VWidth: 1507
Flags: W
HStem: 0 21G<128 196> 458 53<30 128 196 289> 647 68<258.52 332>
VStem: 128 68<0 458 511 585.484>
Fore
128 458 m 1
 30 458 l 1
 30 511 l 1
 128 511 l 1
 128 612 211 715 332 715 c 1
 332 647 l 1
 250 647 197 584 196 511 c 1
 289 511 l 1
 289 458 l 1
 196 458 l 1
 196 0 l 1
 128 0 l 1
 128 458 l 1
EndSplineSet
EndChar
StartChar: g
Encoding: 103 103 72
Width: 533
VWidth: 1507
Flags: W
HStem: -187 57<164.335 346.701> 30 60<163.582 341.336> 457 62<182.926 342.472>
VStem: 48 68<136.844 383.756> 412 67<-71.0832 89 164.639 409.892 472 511>
Fore
277 -130 m 2
 339 -130 412 -80 412 -9 c 2
 412 89 l 1
 381 61 335 30 276 30 c 2
 216 30 l 2
 127 30 48 107 48 205 c 2
 48 308 l 2
 48 424 142 519 252 519 c 2
 312 519 l 2
 329 519 368 519 412 472 c 1
 412 511 l 1
 479 511 l 1
 479 -9 l 2
 479 -111 361 -187 273 -187 c 2
 213 -187 l 2
 118 -187 69 -118 54 -75 c 1
 134 -75 l 1
 150 -99 179 -130 217 -130 c 2
 277 -130 l 2
276 90 m 2
 346 90 406 159 412 235 c 2
 412 351 l 2
 408 399 368 457 312 457 c 2
 252 457 l 2
 173 457 116 380 116 308 c 2
 116 205 l 2
 116 143 166 90 216 90 c 2
 276 90 l 2
EndSplineSet
EndChar
StartChar: h
Encoding: 104 104 73
Width: 538
VWidth: 1507
Flags: W
HStem: 0 21G<54 122 416 484> 458 61<192.294 375.537> 696 20G<54 122>
VStem: 54 68<0 388.295 457 716> 416 68<0 413.109>
Fore
321 519 m 2
 409 519 484 443 484 344 c 2
 484 0 l 1
 416 0 l 1
 416 347 l 2
 416 395 381 458 321 458 c 2
 261 458 l 2
 201 458 138 411 122 333 c 1
 122 0 l 1
 54 0 l 1
 54 716 l 1
 122 716 l 1
 122 457 l 1
 152 485 202 519 261 519 c 2
 321 519 l 2
EndSplineSet
EndChar
StartChar: i
Encoding: 105 105 74
Width: 248
VWidth: 1507
Flags: W
HStem: 0 21G<90 158> 491 20G<90 158> 600 105<81.8538 168.146>
VStem: 72 106<609.727 694.752> 90 68<0 511>
Fore
90 511 m 1xe8
 158 511 l 1
 158 0 l 1
 90 0 l 1
 90 511 l 1xe8
125 600 m 256
 96 600 72 621 72 653 c 256
 72 684 97 705 125 705 c 256
 157 705 178 682 178 653 c 256xf0
 178 621 154 600 125 600 c 256
EndSplineSet
EndChar
StartChar: j
Encoding: 106 106 75
Width: 248
VWidth: 1507
Flags: W
HStem: -203 67<-106 27.6306> 491 20G<90 158> 600 105<81.8538 168.146>
VStem: 72 106<609.727 694.752> 90 68<-72.1559 511>
Fore
-45 -136 m 2xe8
 36 -136 89 -72 90 0 c 2
 90 511 l 1
 158 511 l 1
 158 0 l 2
 158 -118 64 -203 -45 -203 c 2
 -106 -203 l 1
 -106 -136 l 1
 -45 -136 l 2xe8
125 600 m 256
 96 600 72 621 72 653 c 256
 72 684 97 705 125 705 c 256
 157 705 178 682 178 653 c 256xf0
 178 621 154 600 125 600 c 256
EndSplineSet
EndChar
StartChar: k
Encoding: 107 107 76
Width: 506
VWidth: 1507
Flags: W
HStem: 0 21G<54 122 393.645 505> 491 20G<338.73 469> 696 20G<54 122>
VStem: 54 68<0 256 326 716>
Fore
196 304 m 1
 216 298 242 275 256 261 c 2
 505 0 l 1
 413 0 l 1
 203 217 l 2
 180 240 153 253 122 256 c 1
 122 0 l 1
 54 0 l 1
 54 716 l 1
 122 716 l 1
 122 326 l 1
 365 511 l 1
 469 511 l 1
 196 304 l 1
EndSplineSet
EndChar
StartChar: l
Encoding: 108 108 77
Width: 248
VWidth: 1507
Flags: W
HStem: 0 21G<90 158> 696 20G<90 158>
VStem: 90 68<0 716>
Fore
90 716 m 1
 158 716 l 1
 158 0 l 1
 90 0 l 1
 90 716 l 1
EndSplineSet
EndChar
StartChar: m
Encoding: 109 109 78
Width: 788
VWidth: 1507
Flags: W
HStem: 0 21G<54 122 360 428 666 734> 458 61<187.47 314.422 487.762 622.39>
VStem: 54 68<0 394.759 457 511> 360 68<0 402.365> 666 68<0 412.017>
CounterMasks: 1 38
Fore
567 458 m 0
 487 458 428 403 428 342 c 2
 428 0 l 1
 360 0 l 1
 360 344 l 2
 360 400 311 458 261 458 c 0
 194 458 122 401 122 333 c 2
 122 0 l 1
 54 0 l 1
 54 511 l 1
 122 511 l 1
 122 457 l 1
 152 485 202 519 261 519 c 0
 323 519 370 478 396 442 c 1
 433 483 494 519 567 519 c 0
 655 519 734 441 734 344 c 2
 734 0 l 1
 666 0 l 1
 666 347 l 2
 666 400 621 458 567 458 c 0
EndSplineSet
EndChar
StartChar: n
Encoding: 110 110 79
Width: 542
VWidth: 1507
Flags: W
HStem: 0 21G<54 122 421 488> 458 61<192.294 375.633>
VStem: 54 68<0 388.295 457 511> 421 67<0 410.42>
Fore
321 519 m 2
 416 519 488 437 488 344 c 2
 488 0 l 1
 421 0 l 1
 421 347 l 2
 421 391 381 458 321 458 c 2
 261 458 l 2
 201 458 138 411 122 333 c 1
 122 0 l 1
 54 0 l 1
 54 511 l 1
 122 511 l 1
 122 457 l 1
 152 485 202 519 261 519 c 2
 321 519 l 2
EndSplineSet
EndChar
StartChar: o
Encoding: 111 111 80
Width: 527
VWidth: 1507
Flags: W
HStem: -8 61<161.068 343.349> 458 61<182.926 366.633>
VStem: 48 68<102.109 384.904> 412 67<128.261 344 344 406.664>
Fore
312 519 m 2
 407 519 479 437 479 344 c 2
 479 203 l 2
 479 81 382 -8 276 -8 c 2
 216 -8 l 2
 119 -8 48 78 48 167 c 2
 48 308 l 2
 48 424 142 519 252 519 c 2
 312 519 l 2
276 53 m 2
 358 53 412 135 412 203 c 2
 412 344 l 2
 412 391 369 458 312 458 c 2
 252 458 l 2
 167 458 116 375 116 308 c 2
 116 167 l 2
 116 108 163 53 216 53 c 2
 276 53 l 2
EndSplineSet
EndChar
StartChar: p
Encoding: 112 112 81
Width: 533
VWidth: 1507
Flags: W
HStem: -188 21G<54 122> -8 61<192.433 349.349> 458 61<190.799 372.633>
VStem: 54 68<-188 39 100.494 389.168 452 511> 418 67<128.261 406.664>
Fore
222 -8 m 2
 203 -8 172 -8 122 39 c 1
 122 -188 l 1
 54 -188 l 1
 54 511 l 1
 122 511 l 1
 122 452 l 1
 129 461 176 519 258 519 c 2
 318 519 l 2
 413 519 485 437 485 344 c 2
 485 203 l 2
 485 81 388 -8 282 -8 c 2
 222 -8 l 2
282 53 m 2
 366 53 418 137 418 203 c 2
 418 344 l 2
 418 391 375 458 318 458 c 2
 258 458 l 2
 184 458 122 388 122 314 c 2
 122 167 l 2
 122 108 169 53 222 53 c 2
 282 53 l 2
EndSplineSet
EndChar
StartChar: q
Encoding: 113 113 82
Width: 533
VWidth: 1507
Flags: W
HStem: -188 21G<412 479> -8 61<161.068 341.652> 457 62<182.926 367.195>
VStem: 48 68<102.109 383.756> 412 67<-188 63 126.563 409.892 472 511>
Fore
312 519 m 2
 350 519 371 511 412 472 c 1
 412 511 l 1
 479 511 l 1
 479 -188 l 1
 412 -188 l 1
 412 63 l 1
 385 28 333 -8 276 -8 c 2
 216 -8 l 2
 119 -8 48 78 48 167 c 2
 48 308 l 2
 48 424 142 519 252 519 c 2
 312 519 l 2
276 53 m 2
 351 53 407 127 412 197 c 2
 412 351 l 2
 408 399 368 457 312 457 c 2
 252 457 l 2
 173 457 116 380 116 308 c 2
 116 167 l 2
 116 108 163 53 216 53 c 2
 276 53 l 2
EndSplineSet
EndChar
StartChar: r
Encoding: 114 114 83
Width: 349
VWidth: 1507
Flags: W
HStem: 0 21G<56 124> 458 61<227.887 320>
VStem: 56 68<0 384.518 458 511>
Fore
259 458 m 2
 191 458 124 388 124 308 c 2
 124 0 l 1
 56 0 l 1
 56 511 l 1
 124 511 l 1
 124 458 l 1
 193 519 244 519 259 519 c 2
 320 519 l 1
 320 458 l 1
 259 458 l 2
EndSplineSet
EndChar
StartChar: s
Encoding: 115 115 84
Width: 572
VWidth: 1507
Flags: W
HStem: -8 61<153.512 424.374> 458 61<184.103 419.488>
VStem: 48 68<93.9287 152> 72 68<322.681 417.222> 457 68<359 417.071> 470 68<93.9494 201.825>
Fore
357 53 m 2xe4
 392 53 470 84 470 140 c 0xe4
 470 207 429 216 404 220 c 2
 190 246 l 2
 115 257 72 295 72 369 c 0
 72 469 175 519 253 519 c 2
 357 519 l 2
 452 519 525 455 525 359 c 1
 457 359 l 1
 457 411 414 458 357 458 c 2
 253 458 l 2
 203 458 140 420 140 371 c 0xd8
 140 343 145 318 207 306 c 2
 421 280 l 2
 509 266 538 212 538 142 c 0
 538 52 453 -8 357 -8 c 2
 216 -8 l 2
 121 -8 48 56 48 152 c 1
 116 152 l 1
 116 100 159 53 216 53 c 2
 357 53 l 2xe4
EndSplineSet
EndChar
StartChar: t
Encoding: 116 116 85
Width: 319
VWidth: 1507
Flags: W
HStem: 0 21G<128 196> 458 53<30 128 196 289> 696 20G<128 196>
VStem: 128 68<0 458 511 716>
Fore
128 458 m 1
 30 458 l 1
 30 511 l 1
 128 511 l 1
 128 716 l 1
 196 716 l 1
 196 511 l 1
 289 511 l 1
 289 458 l 1
 196 458 l 1
 196 0 l 1
 128 0 l 1
 128 458 l 1
EndSplineSet
EndChar
StartChar: u
Encoding: 117 117 86
Width: 538
VWidth: 1507
Flags: W
HStem: -8 61<162.463 346.544> 491 20G<54 122 416 484>
VStem: 54 68<97.8906 511> 416 68<0 65 121.99 178 178 511>
Fore
217 -8 m 2
 129 -8 54 68 54 167 c 2
 54 511 l 1
 122 511 l 1
 122 164 l 2
 122 116 157 53 217 53 c 2
 277 53 l 2
 344 53 405 111 416 178 c 1
 416 511 l 1
 484 511 l 1
 484 0 l 1
 416 0 l 1
 416 65 l 1
 389 27 335 -8 277 -8 c 2
 217 -8 l 2
EndSplineSet
EndChar
StartChar: v
Encoding: 118 118 87
Width: 526
VWidth: 1507
Flags: W
HStem: -8 21G<276.5 307.553> 491 20G<30 108.335 417.574 496>
VStem: 30 466<511 511 511 511>
Fore
300 -8 m 1
 253 -8 216 14 200 47 c 2
 30 511 l 1
 101 511 l 1
 262 72 l 1
 425 511 l 1
 496 511 l 1
 300 -8 l 1
EndSplineSet
EndChar
StartChar: w
Encoding: 119 119 88
Width: 845
VWidth: 1507
Flags: W
HStem: -8 21G<266.5 282.791 563.116 579.5> 491 20<30 109.775 388.364 412.5 736.225 816>
Fore
422 422 m 1
 276 -8 l 1
 257 -8 219 -2 205 35 c 2
 30 511 l 1
 103 511 l 1
 249 80 l 1
 395 520 l 1
 430 520 458 502 467 476 c 2
 597 80 l 1
 743 511 l 1
 816 511 l 1
 642 35 l 2
 630 -1 589 -8 570 -8 c 1
 422 422 l 1
EndSplineSet
EndChar
StartChar: x
Encoding: 120 120 89
Width: 562
VWidth: 1507
Flags: W
HStem: 0 21G<21 122.799 439.018 541> 491 20G<48 148.474 414.211 514>
Fore
430 511 m 1
 514 511 l 1
 326 270 l 1
 541 0 l 1
 455 0 l 1
 280 219 l 1
 107 0 l 1
 21 0 l 1
 235 270 l 1
 48 511 l 1
 133 511 l 1
 280 321 l 1
 430 511 l 1
EndSplineSet
EndChar
StartChar: y
Encoding: 121 121 90
Width: 539
VWidth: 1507
Flags: W
HStem: -187 57<170.72 353.454> 30 62<162.566 345.766> 491 20G<54 122 416 484>
VStem: 54 68<135.047 511> 416 68<-69.679 92 161.144 511>
Fore
484 -9 m 2
 484 -106 371 -187 277 -187 c 2
 217 -187 l 2
 136 -187 79 -135 59 -75 c 1
 139 -75 l 1
 154 -99 184 -130 222 -130 c 2
 282 -130 l 2
 344 -130 416 -80 416 -9 c 2
 416 92 l 1
 386 63 337 30 277 30 c 2
 217 30 l 2
 131 30 54 104 54 205 c 2
 54 511 l 1
 122 511 l 1
 122 202 l 2
 122 150 159 92 217 92 c 2
 277 92 l 2
 340 92 405 145 416 216 c 1
 416 511 l 1
 484 511 l 1
 484 -9 l 2
EndSplineSet
EndChar
StartChar: z
Encoding: 122 122 91
Width: 565
VWidth: 1507
Flags: MW
HStem: 0 53<176 506> 458 53<63 387>
Fore
506 0 m 1
 48 0 l 1
 387 458 l 1
 63 458 l 1
 63 511 l 1
 517 511 l 1
 176 53 l 1
 506 53 l 1
 506 0 l 1
EndSplineSet
EndChar
StartChar: braceleft
Encoding: 123 123 92
Width: 428
VWidth: 1507
Flags: W
HStem: -214 56<294.46 363> 745 55<295.744 363>
VStem: 176 64<-141.185 176.933 353.158 725.983>
Fore
148 268 m 1
 180 250 240 191 240 119 c 2
 240 -101 l 2
 240 -149 295 -158 327 -158 c 2
 363 -158 l 1
 363 -214 l 1
 327 -214 l 2
 262 -214 176 -192 176 -106 c 2
 176 119 l 2
 176 186 76 268 27 268 c 1
 76 268 176 334 176 419 c 2
 176 689 l 2
 176 778 261 800 327 800 c 2
 363 800 l 1
 363 745 l 1
 327 745 l 2
 302 745 240 738 240 684 c 2
 240 419 l 2
 240 332 176 275 148 268 c 1
EndSplineSet
EndChar
StartChar: bar
Encoding: 124 124 93
Width: 247
VWidth: 1507
Flags: W
VStem: 90 68<-151 867>
Fore
90 867 m 1
 158 867 l 1
 158 -151 l 1
 90 -151 l 1
 90 867 l 1
EndSplineSet
EndChar
StartChar: braceright
Encoding: 125 125 94
Width: 428
VWidth: 1507
Flags: W
HStem: -214 56<63 133.147> 745 55<63 130.488>
VStem: 187 63<-141.621 176.933 352.985 727.031>
Fore
250 -106 m 2
 250 -192 166 -214 99 -214 c 2
 63 -214 l 1
 63 -158 l 1
 99 -158 l 2
 130 -158 187 -150 187 -101 c 2
 187 119 l 2
 187 179 231 240 279 268 c 1
 244 277 187 338 187 419 c 2
 187 684 l 2
 187 738 124 745 99 745 c 2
 63 745 l 1
 63 800 l 1
 99 800 l 2
 176 800 250 772 250 689 c 2
 250 419 l 2
 250 334 350 268 399 268 c 1
 350 268 250 186 250 119 c 2
 250 -106 l 2
EndSplineSet
EndChar
StartChar: asciitilde
Encoding: 126 126 95
Width: 602
VWidth: 1507
Flags: MW
HStem: 259 68<352.65 463.804> 386 68<147.468 243.955>
VStem: 506 55<378.86 443>
Fore
50 270 m 1
 50 397 143 454 194 454 c 0
 311 454 312 327 416 327 c 0
 452 327 495 364 506 443 c 1
 561 443 l 1
 561 316 468 259 416 259 c 0
 279 259 273 386 194 386 c 0
 158 386 116 346 104 270 c 1
 50 270 l 1
EndSplineSet
EndChar
StartChar: quotedbl
Encoding: 34 34 97
Width: 349
VWidth: 1507
Flags: W
VStem: 54 71<541 761 541 761 541 541> 223 71<541 761>
Fore
54 761 m 1
 125 761 l 1
 125 541 l 1
 54 541 l 1
 54 761 l 1
223 761 m 1
 294 761 l 1
 294 541 l 1
 223 541 l 1
 223 761 l 1
EndSplineSet
EndChar
StartChar: exclam
Encoding: 33 33 98
Width: 272
VWidth: 1507
Flags: W
HStem: -8 106<98.727 183.752> 698 20G<107 175>
VStem: 89 105<1.85384 88.1462> 107 68<164 718>
Fore
107 718 m 1xd0
 175 718 l 1
 175 164 l 1
 107 164 l 1
 107 718 l 1xd0
142 98 m 256
 110 98 89 74 89 45 c 256
 89 16 110 -8 142 -8 c 256
 173 -8 194 17 194 45 c 256xe0
 194 77 171 98 142 98 c 256
EndSplineSet
EndChar
StartChar: cent
Encoding: 162 162 101
Width: 575
VWidth: 1507
Flags: W
HStem: 96 61<195.076 262 330 384.97> 562 59<215.019 262 330 404.488>
VStem: 80 68<204.064 271 271 489.558> 262 68<-21 96 623 742> 443 68<213.756 286 463 521.071>
Fore
148 271 m 2
 148 211 197 157 247 157 c 2
 330 157 l 2
 364 157 443 196 443 286 c 1
 511 286 l 1
 511 172 422 105 330 98 c 1
 330 -21 l 1
 262 -21 l 1
 262 96 l 1
 247 96 l 2
 159 96 80 174 80 271 c 2
 80 412 l 2
 80 512 157 610 262 621 c 1
 262 742 l 1
 330 742 l 1
 330 623 l 1
 342 623 l 2
 437 623 510 559 510 463 c 1
 442 463 l 1
 442 515 399 562 342 562 c 2
 262 562 l 1
 194 551 148 474 148 412 c 2
 148 271 l 2
EndSplineSet
EndChar
StartChar: sterling
Encoding: 163 163 102
Width: 575
VWidth: 1507
Flags: W
HStem: 0 60<68 137.411 210 534> 315 68<65 200 280 464> 656 68<321.87 449.939>
VStem: 190 68<431.815 586.852> 231 67<139.877 232.563>
Fore
258 513 m 256xf0
 258 474 259 434 268 383 c 1
 464 383 l 1
 464 315 l 1
 280 315 l 1
 298 194 l 1
 298 138 244 60 210 60 c 1
 534 60 l 1
 534 0 l 1
 68 0 l 1
 68 60 l 1
 124 60 231 125 231 196 c 1xe8
 231 196 230 198 222 250 c 2
 213 315 l 1
 65 315 l 1
 65 383 l 1
 200 383 l 1
 195 412 190 461 190 480 c 2
 190 513 l 2
 190 621 276 724 393 724 c 0
 436 724 474 709 506 678 c 1
 461 624 l 1
 444 642 420 656 393 656 c 0
 311 656 258 583 258 513 c 256xf0
EndSplineSet
EndChar
StartChar: currency
Encoding: 164 164 103
Width: 732
VWidth: 1507
Flags: W
HStem: 66 65<274.822 455.879> 564 65<276.532 431.897>
VStem: 84 70<253.678 440.312> 577 70<253.293 438.534>
Fore
365 66 m 256
 261 66 209 113 191 131 c 1
 130 66 l 1
 84 112 l 1
 145 175 l 1
 120 205 84 261 84 347 c 256
 84 404 101 468 145 522 c 1
 84 583 l 1
 130 630 l 1
 191 567 l 1
 236 602 296 629 366 629 c 256
 405 629 472 622 541 567 c 1
 606 630 l 1
 650 583 l 1
 588 522 l 1
 626 478 647 421 647 347 c 0
 647 291 632 227 588 175 c 1
 650 112 l 1
 604 66 l 1
 541 131 l 1
 499 92 438 66 365 66 c 256
577 347 m 0
 577 468 475 564 365 564 c 0
 249 564 154 463 154 347 c 0
 154 228 250 131 365 131 c 256
 479 131 577 226 577 347 c 0
EndSplineSet
EndChar
StartChar: yen
Encoding: 165 165 104
Width: 575
VWidth: 1507
Flags: W
HStem: 0 21G<243 311> 262 65<78 243 311 478> 696 20G<6 95.8239 458.977 549>
VStem: 243 68<0 262 327 357>
Fore
243 262 m 1
 78 262 l 1
 78 327 l 1
 243 327 l 1
 243 357 l 1
 6 716 l 1
 83 716 l 1
 276 415 l 1
 472 716 l 1
 549 716 l 1
 311 357 l 1
 311 327 l 1
 478 327 l 1
 478 262 l 1
 311 262 l 1
 311 0 l 1
 243 0 l 1
 243 262 l 1
EndSplineSet
EndChar
StartChar: brokenbar
Encoding: 166 166 105
Width: 238
VWidth: 1507
Flags: W
HStem: 445 422<90 158 90 158 90 90>
VStem: 90 68<-151 309 445 867>
Fore
90 445 m 1
 90 867 l 1
 158 867 l 1
 158 445 l 1
 90 445 l 1
158 309 m 1
 158 -151 l 1
 90 -151 l 1
 90 309 l 1
 158 309 l 1
EndSplineSet
EndChar
StartChar: section
Encoding: 167 167 106
Width: 601
VWidth: 1507
Flags: W
HStem: -53 61<147.731 417.795> 684 61<205.364 442.277>
VStem: 42 68<46.3386 107> 66 68<331.444 422.947> 95 68<554.796 644.102> 464 68<47.8559 150.133> 479 68<585 646.815> 493 68<270.147 373.14>
Fore
152 499 m 1xd4
 133 511 95 537 95 595 c 0
 95 687 185 745 276 745 c 2
 380 745 l 2
 475 745 547 681 547 585 c 1
 479 585 l 1xca
 479 642 433 684 380 684 c 2
 276 684 l 2
 227 684 163 648 163 597 c 0
 163 558 197 544 229 532 c 2
 443 458 l 2
 533 427 561 375 561 320 c 0xc9
 561 246 507 210 485 197 c 1
 501 184 532 157 532 96 c 0
 532 12 452 -53 351 -53 c 2
 210 -53 l 2
 115 -53 42 11 42 107 c 1
 110 107 l 1xe4
 110 49 158 8 210 8 c 2
 351 8 l 2
 386 8 464 39 464 95 c 0
 464 144 435 162 398 175 c 2
 184 249 l 2
 75 285 66 334 66 372 c 0
 66 437 107 476 152 499 c 1xd4
412 235 m 1
 437 243 493 268 493 318 c 0
 493 367 464 385 427 398 c 2
 243 461 l 1
 212 461 134 434 134 374 c 0xd1
 134 335 169 320 200 309 c 2
 412 235 l 1
EndSplineSet
EndChar
StartChar: dieresis
Encoding: 168 168 107
Width: 348
VWidth: 1507
Flags: W
HStem: 606 105<21.727 108.146 237.515 323.146>
VStem: 12 106<615.854 700.752> 228 105<615.727 701.485>
Fore
65 606 m 256
 33 606 12 630 12 659 c 256
 12 688 33 711 65 711 c 256
 93 711 118 690 118 659 c 256
 118 627 94 606 65 606 c 256
280 606 m 256
 251 606 228 627 228 659 c 256
 228 690 251 711 280 711 c 256
 312 711 333 688 333 659 c 256
 333 627 309 606 280 606 c 256
EndSplineSet
EndChar
StartChar: copyright
Encoding: 169 169 108
Width: 734
VWidth: 1507
Flags: W
HStem: 23 54<267.533 472.022> 178 50<291.511 436.893> 496 51<304.144 446.034> 638 54<266.551 469.563>
VStem: 42 53<247.995 458.574> 214 54<250.791 457.475> 464 55<255.155 312 434 480.758> 644 52<249.438 460.521>
Fore
42 356 m 0
 42 530 182 692 369 692 c 0
 544 692 696 539 696 356 c 0
 696 168 543 23 369 23 c 256
 195 23 42 168 42 356 c 0
644 356 m 0
 644 509 515 638 369 638 c 0
 206 638 95 493 95 356 c 0
 95 189 232 77 369 77 c 256
 513 77 644 196 644 356 c 0
214 398 m 2
 214 476 277 547 357 547 c 2
 399 547 l 2
 468 547 516 497 516 434 c 1
 461 434 l 1
 461 471 431 496 398 496 c 2
 357 496 l 2
 306 496 268 445 268 395 c 2
 268 304 l 2
 268 267 300 228 333 228 c 2
 374 228 l 2
 427 228 464 261 464 312 c 1
 519 312 l 1
 519 223 447 178 374 178 c 2
 332 178 l 2
 260 178 214 241 214 300 c 2
 214 398 l 2
EndSplineSet
EndChar
StartChar: logicalnot
Encoding: 172 172 111
Width: 646
VWidth: 1507
Flags: MW
HStem: 371 68<42 534>
VStem: 534 67<140 371>
Fore
534 140 m 1
 534 371 l 1
 42 371 l 1
 42 439 l 1
 601 439 l 1
 601 140 l 1
 534 140 l 1
EndSplineSet
EndChar
StartChar: registered
Encoding: 174 174 112
Width: 553
VWidth: 1507
Flags: W
HStem: 255 39<194.366 364.404> 488 32<229 273.827 312 338.943> 586 32<229 337.925> 692 39<194.604 365.05>
VStem: 47 37<403.896 579.36> 190 39<378 488 520 586> 341 40<522.022 574.946> 475 38<404.475 580.143>
Fore
47 491 m 0
 47 620 150 731 279 731 c 0
 411 731 513 613 513 491 c 0
 513 375 419 255 279 255 c 256
 141 255 47 372 47 491 c 0
475 491 m 256
 475 607 378 692 279 692 c 0
 174 692 84 599 84 491 c 0
 84 388 169 294 279 294 c 256
 380 294 475 378 475 491 c 256
381 552 m 256
 381 515 351 490 318 490 c 2
 312 490 l 1
 315 490 321 483 329 470 c 2
 390 378 l 1
 348 378 l 1
 288 472 l 2
 278 484 271 488 259 488 c 2
 229 488 l 1
 229 378 l 1
 190 378 l 1
 190 618 l 1
 318 618 l 2
 356 618 381 583 381 552 c 256
341 552 m 256
 341 566 329 586 311 586 c 2
 229 586 l 1
 229 520 l 1
 311 520 l 2
 329 520 341 538 341 552 c 256
EndSplineSet
EndChar
StartChar: macron
Encoding: 175 175 113
Width: 357
VWidth: 1507
Flags: W
HStem: 636 60<42 314 42 314 42 42>
Fore
42 636 m 1
 42 696 l 1
 314 696 l 1
 314 636 l 1
 42 636 l 1
EndSplineSet
EndChar
StartChar: degree
Encoding: 176 176 114
Width: 325
VWidth: 1507
Flags: W
HStem: 484 45<106.187 219.296> 704 45<105.577 220.297>
VStem: 30 45<558.986 673.672> 250 45<558.768 674.281>
Fore
163 484 m 256
 85 484 30 544 30 617 c 256
 30 689 85 749 163 749 c 256
 241 749 295 689 295 617 c 256
 295 543 240 484 163 484 c 256
163 704 m 256
 113 704 75 664 75 617 c 256
 75 566 116 529 163 529 c 256
 210 529 250 566 250 617 c 256
 250 667 210 704 163 704 c 256
EndSplineSet
EndChar
StartChar: plusminus
Encoding: 177 177 115
Width: 646
VWidth: 1507
Flags: W
HStem: 0 63<90 555> 336 63<90 291 354 555>
VStem: 291 63<136 336 399 600>
Fore
354 336 m 1
 354 136 l 1
 291 136 l 1
 291 336 l 1
 90 336 l 1
 90 399 l 1
 291 399 l 1
 291 600 l 1
 354 600 l 1
 354 399 l 1
 555 399 l 1
 555 336 l 1
 354 336 l 1
555 0 m 1
 90 0 l 1
 90 63 l 1
 555 63 l 1
 555 0 l 1
EndSplineSet
EndChar
StartChar: twosuperior
Encoding: 178 178 116
Width: 390
VWidth: 1507
Flags: W
HStem: 282 48<98 345> 689 47<167.433 266.738>
VStem: 42 56<330 382.752> 286 53<573.394 668.975>
Fore
51 665 m 1
 84 707 134 736 193 736 c 2
 207 736 l 2
 293 736 339 688 339 609 c 0
 339 558 321 537 283 508 c 2
 133 396 l 2
 111 380 99 350 98 330 c 1
 345 330 l 1
 345 282 l 1
 42 282 l 1
 42 329 l 2
 42 377 64 409 93 430 c 0
 102 436 264 559 264 559 c 0
 275 566 286 588 286 609 c 0
 286 647 270 689 208 689 c 2
 193 689 l 2
 176 689 139 686 93 633 c 1
 51 665 l 1
EndSplineSet
EndChar
StartChar: threesuperior
Encoding: 179 179 117
Width: 369
VWidth: 1507
Flags: W
HStem: 279 48<129.188 245.18> 513 48<130 260.539> 687 49<109.007 247.412>
VStem: 268 55<568.567 668.193> 291 51<373.363 489.308>
Fore
291 436 m 0xe8
 291 475 260 513 216 513 c 2
 130 513 l 1
 130 561 l 1
 220 561 l 2
 248 562 268 581 268 609 c 0
 268 661 242 687 190 687 c 2
 173 687 l 2
 131 687 94 659 74 633 c 1
 33 663 l 1
 69 708 117 736 173 736 c 2
 188 736 l 2
 295 736 323 663 323 609 c 0xf0
 323 579 314 555 295 537 c 1
 327 515 342 479 342 436 c 0
 342 338 269 279 176 279 c 0
 106 279 63 308 21 359 c 1
 60 393 l 1
 118 330 154 327 178 327 c 0
 235 327 291 371 291 436 c 0xe8
EndSplineSet
EndChar
StartChar: acute
Encoding: 180 180 118
Width: 179
VWidth: 1507
Flags: W
HStem: 565 166<66 106 106 106>
Fore
106 731 m 1
 176 731 l 1
 66 565 l 1
 -5 565 l 1
 106 731 l 1
EndSplineSet
EndChar
StartChar: mu
Encoding: 181 181 119
Width: 544
VWidth: 1507
Flags: W
HStem: -187 21G<54 122> -8 61<162.463 346.544> 491 20G<54 122 416 484>
VStem: 54 68<-187 24 96.7674 511> 416 68<0 65 121.99 511>
Fore
416 65 m 1
 389 27 335 -8 277 -8 c 2
 217 -8 l 2
 181 -8 149 3 122 24 c 1
 122 -187 l 1
 54 -187 l 1
 54 511 l 1
 122 511 l 1
 122 164 l 2
 122 116 157 53 217 53 c 2
 277 53 l 2
 344 53 405 111 416 178 c 1
 416 511 l 1
 484 511 l 1
 484 0 l 1
 416 0 l 1
 416 65 l 1
EndSplineSet
EndChar
StartChar: paragraph
Encoding: 182 182 120
Width: 619
VWidth: 1507
Flags: W
HStem: 650 68<436 502>
VStem: 45 391<404.74 591.095> 368 68<-59 283> 502 68<-59 650>
Fore
45 497 m 256xd0
 45 616 138 716 234 716 c 2
 570 718 l 1
 570 -59 l 1
 502 -59 l 1
 502 650 l 1
 436 650 l 1
 436 -59 l 1
 368 -59 l 1
 368 283 l 1xb0
 234 283 l 2
 138 283 45 380 45 497 c 256xd0
EndSplineSet
EndChar
StartChar: periodcentered
Encoding: 183 183 121
Width: 346
VWidth: 1507
Flags: W
HStem: 271 151<118.625 227.764>
VStem: 98 151<291.976 401>
Fore
173 271 m 256
 128 271 98 303 98 347 c 256
 98 390 128 422 173 422 c 256
 219 422 249 391 249 347 c 256
 249 305 221 271 173 271 c 256
EndSplineSet
EndChar
StartChar: cedilla
Encoding: 184 184 122
Width: 325
VWidth: 1507
Flags: MW
HStem: -193 53<119.864 188.912>
VStem: 59 59<-138.65 -106> 193 59<-135.287 -95.16>
Fore
118 -106 m 1
 118 -126 129 -140 145 -140 c 2
 157 -140 l 2
 190 -140 193 -131 193 -118 c 0
 193 -85 122 -82 122 -17 c 2
 122 6 l 1
 178 6 l 1
 178 -17 l 1
 191 -56 214 -46 240 -81 c 0
 248 -91 252 -104 252 -119 c 0
 252 -148 243 -168 224 -178 c 0
 205 -188 183 -193 157 -193 c 2
 145 -193 l 2
 93 -189 59 -162 59 -106 c 1
 118 -106 l 1
EndSplineSet
EndChar
StartChar: onesuperior
Encoding: 185 185 123
Width: 325
VWidth: 1507
Flags: MW
HStem: 573 47<71 129.425> 696 20G<166.5 220>
VStem: 167 53<282 601 657.02 716 282 716 282 282>
Fore
71 620 m 1
 127 620 166 668 167 716 c 1
 220 716 l 1
 220 282 l 1
 167 282 l 1
 167 601 l 1
 143 581 114 573 71 573 c 1
 71 620 l 1
EndSplineSet
EndChar
StartChar: onequarter
Encoding: 188 188 126
Width: 824
VWidth: 1507
Flags: W
HStem: 573 47<44 101.995>
VStem: 140 53<657.02 716>
Fore
696 0 m 1
 696 87 l 1
 749 87 l 1
 749 136 l 1
 696 136 l 1
 696 434 l 1
 645 434 l 1
 439 133 l 1
 439 102 454 87 485 87 c 2
 642 87 l 1
 642 0 l 1
 696 0 l 1
642 136 m 1
 505 136 l 1
 642 339 l 1
 642 136 l 1
137 -26 m 1
 525 739 l 1
 591 739 l 1
 207 -26 l 1
 137 -26 l 1
44 573 m 1
 102 573 125 590 140 601 c 1
 140 282 l 1
 193 282 l 1
 193 716 l 1
 140 716 l 1
 139 668 99 620 44 620 c 1
 44 573 l 1
EndSplineSet
LCarets2: 2 0 0 
Ligature2: "'frac' Diagonal Fractions in Latin lookup 0 subtable" one fraction four
Ligature2: "'frac' Diagonal Fractions in Latin lookup 0 subtable" one slash four
EndChar
StartChar: onehalf
Encoding: 189 189 127
Width: 824
VWidth: 1507
Flags: W
HStem: 0 47<531 770> 389 45<559.617 691.551> 573 47<44 101.995>
VStem: 140 53<657.02 716> 711 52<278.417 370.434>
Fore
487 366 m 1
 515 401 561 434 621 434 c 2
 635 434 l 2
 737 434 763 368 763 314 c 0
 763 263 740 238 708 217 c 2
 564 110 l 2
 538 89 532 59 531 47 c 1
 770 47 l 1
 770 0 l 1
 478 0 l 1
 478 45 l 2
 478 88 501 122 526 142 c 2
 690 265 l 2
 701 272 711 293 711 314 c 0
 711 346 696 389 636 389 c 2
 621 389 l 2
 581 389 545 360 526 336 c 1
 487 366 l 1
137 -26 m 1
 525 739 l 1
 591 739 l 1
 207 -26 l 1
 137 -26 l 1
44 573 m 1
 102 573 125 590 140 601 c 1
 140 282 l 1
 193 282 l 1
 193 716 l 1
 140 716 l 1
 139 668 99 620 44 620 c 1
 44 573 l 1
EndSplineSet
LCarets2: 2 0 0 
Ligature2: "'frac' Diagonal Fractions in Latin lookup 0 subtable" one fraction two
Ligature2: "'frac' Diagonal Fractions in Latin lookup 0 subtable" one slash two
EndChar
StartChar: threequarters
Encoding: 190 190 128
Width: 824
VWidth: 1507
Flags: W
HStem: 277 49<141.635 262.98> 687 49<128.295 193 210 269.7>
VStem: 288 53<568.401 668.193> 311 51<371.758 487.467>
Fore
288 609 m 0xe0
 288 570 251 559 238 559 c 2
 148 559 l 1
 148 513 l 1
 235 513 l 2
 281 513 311 471 311 434 c 0
 311 374 258 326 197 326 c 0
 161 326 129 337 80 392 c 1
 41 357 l 1
 100 282 156 277 196 277 c 0
 290 277 362 337 362 434 c 0xd0
 362 470 347 511 315 537 c 1
 332 556 341 580 341 609 c 0
 341 663 314 736 208 736 c 2
 193 736 l 2
 130 736 81 701 51 663 c 1
 93 633 l 1
 114 658 148 687 193 687 c 2
 210 687 l 2
 262 687 288 661 288 609 c 0xe0
696 0 m 1
 696 87 l 1
 749 87 l 1
 749 136 l 1
 696 136 l 1
 696 434 l 1
 645 434 l 1
 439 133 l 1
 439 102 454 87 485 87 c 2
 642 87 l 1
 642 0 l 1
 696 0 l 1
642 136 m 1
 505 136 l 1
 642 339 l 1
 642 136 l 1
211 -26 m 1
 598 739 l 1
 665 739 l 1
 280 -26 l 1
 211 -26 l 1
EndSplineSet
LCarets2: 2 0 0 
Ligature2: "'frac' Diagonal Fractions in Latin lookup 0 subtable" three fraction four
Ligature2: "'frac' Diagonal Fractions in Latin lookup 0 subtable" three slash four
EndChar
StartChar: Aring
Encoding: 197 197 134
Width: 798
VWidth: 1507
Flags: W
HStem: 0 21G<38 121.7 666.1 751> 200 61<226 559> 850 51<351.249 435.882>
VStem: 288 51<751.596 837.506> 449 51<751.992 837.546>
Fore
500 794 m 0
 500 747 469 708 430 695 c 1
 441 685 449 674 455 663 c 2
 751 0 l 1
 675 0 l 1
 586 200 l 1
 200 200 l 1
 113 0 l 1
 38 0 l 1
 347 699 l 1
 313 715 288 750 288 794 c 0
 288 850 332 901 395 901 c 0
 457 901 500 850 500 794 c 0
226 261 m 1
 559 261 l 1
 393 636 l 1
 226 261 l 1
395 850 m 0
 361 850 339 823 339 794 c 256
 339 765 362 740 395 740 c 0
 422 740 449 763 449 794 c 256
 449 826 422 850 395 850 c 0
EndSplineSet
EndChar
StartChar: AE
Encoding: 198 198 135
Width: 955
VWidth: 1507
Flags: W
HStem: 0 60<562 926> 200 61<214 449> 344 60<499 852> 656 60<428 788>
Fore
344 718 m 1
 358 718 365 716 374 716 c 2
 788 716 l 1
 788 656 l 1
 428 656 l 1
 485 404 l 1
 852 404 l 1
 852 344 l 1
 499 344 l 1
 562 60 l 1
 926 60 l 1
 926 0 l 1
 508 0 l 1
 463 200 l 1
 188 200 l 1
 101 0 l 1
 26 0 l 1
 344 718 l 1
214 261 m 1
 449 261 l 1
 365 633 l 1
 214 261 l 1
EndSplineSet
EndChar
StartChar: Ccedilla
Encoding: 199 199 136
Width: 694
VWidth: 1507
Flags: W
HStem: -193 53<322.864 391.912> -15 60<213.328 326 381 462.455> 671 60<254.937 495.706>
VStem: 51 68<148.193 529.069> 262 59<-138.65 -106> 396 59<-135.287 -94.1166> 586 68<164.383 255 502 582.85>
Fore
51 431 m 2
 51 584 170 731 336 731 c 2
 418 731 l 2
 542 731 651 639 651 502 c 1
 583 502 l 1
 583 596 507 671 418 671 c 2
 336 671 l 2
 217 671 119 552 119 431 c 2
 119 234 l 2
 119 139 194 45 285 45 c 2
 369 45 l 2
 493 45 586 140 586 255 c 1
 654 255 l 1
 654 89 516 -13 381 -15 c 1
 381 -17 l 1
 395 -59 417 -45 444 -81 c 0
 451 -91 455 -104 455 -119 c 0
 455 -148 446 -168 427 -178 c 0
 408 -188 386 -193 360 -193 c 2
 348 -193 l 2
 296 -189 262 -162 262 -106 c 1
 321 -106 l 1
 321 -126 332 -140 348 -140 c 2
 360 -140 l 2
 393 -140 396 -131 396 -118 c 0
 396 -81 326 -86 326 -15 c 1
 285 -15 l 2
 161 -15 51 96 51 234 c 2
 51 431 l 2
EndSplineSet
EndChar
StartChar: Eth
Encoding: 208 208 145
Width: 803
VWidth: 1507
Flags: W
HStem: 0 60<202 540.931> 335 63<66 134 202 455> 656 60<202 578.398>
VStem: 134 68<61.1073 335 398 656> 669 68<191.625 565.608>
Fore
669 481 m 2
 669 583 587 656 502 656 c 2
 202 656 l 1
 202 398 l 1
 455 398 l 1
 455 335 l 1
 202 335 l 1
 202 60 l 1
 452 60 l 2
 567 60 669 158 669 286 c 2
 669 481 l 2
197 0 m 2
 165 0 134 31 134 66 c 2
 134 335 l 1
 66 335 l 1
 66 398 l 1
 134 398 l 1
 134 716 l 1
 502 716 l 2
 643 716 737 607 737 481 c 2
 737 286 l 2
 737 120 603 -0 452 0 c 2
 197 0 l 2
EndSplineSet
EndChar
StartChar: multiply
Encoding: 215 215 152
Width: 646
VWidth: 1507
Flags: W
HStem: 128 409<164 485 164 164>
VStem: 121 408<493 493 493 493>
Fore
280 333 m 1
 263 348 136 476 121 493 c 1
 164 537 l 1
 324 377 l 1
 485 537 l 1
 520 500 l 1
 529 493 l 1
 369 333 l 1
 369 332 430 271 529 172 c 1
 485 128 l 1
 324 289 l 1
 164 128 l 1
 128 163 l 1
 121 172 l 1
 280 333 l 1
EndSplineSet
EndChar
StartChar: Oslash
Encoding: 216 216 153
Width: 717
VWidth: 1507
Flags: W
HStem: -15 60<212.596 454.688> 671 60<258.566 451.083>
VStem: 53 68<144.831 526.988> 588 68<187.007 566.048>
Fore
288 -15 m 2
 238 -15 194 3 163 24 c 1
 128 -26 l 1
 60 -26 l 1
 119 62 l 1
 81 102 53 163 53 235 c 2
 53 430 l 2
 53 585 175 731 339 731 c 2
 421 731 l 2
 467 731 510 717 549 689 c 1
 582 739 l 1
 648 739 l 1
 589 653 l 1
 626 611 656 550 656 481 c 2
 656 286 l 2
 656 131 531 -15 371 -15 c 2
 288 -15 l 2
339 671 m 2
 226 671 121 558 121 430 c 2
 121 235 l 2
 121 192 133 153 158 119 c 1
 513 636 l 1
 468 671 435 671 421 671 c 2
 339 671 l 2
371 45 m 2
 489 45 588 165 588 286 c 2
 588 481 l 2
 588 527 570 567 550 595 c 1
 197 77 l 1
 224 56 255 45 288 45 c 2
 371 45 l 2
EndSplineSet
EndChar
StartChar: Thorn
Encoding: 222 222 159
Width: 595
VWidth: 1507
Flags: W
HStem: 0 21G<90 158> 167 61<158 381.037> 528 60<158 386.677>
VStem: 90 68<0 167 228 528 588 733> 469 68<306.35 458.127>
Fore
537 389 m 0
 537 227 407 167 253 167 c 2
 158 167 l 1
 158 0 l 1
 90 0 l 1
 90 733 l 1
 158 733 l 1
 158 588 l 1
 292 588 l 2
 413 588 537 527 537 389 c 0
469 389 m 0
 469 485 372 528 292 528 c 2
 158 528 l 1
 158 228 l 1
 253 228 l 2
 372 228 469 266 469 389 c 0
EndSplineSet
EndChar
StartChar: uni00DF
Encoding: 223 223 160
Width: 605
VWidth: 1507
Flags: W
HStem: -190 21G<66 134> -14 68<269.9 435.162> 668 60<203.668 381.15>
VStem: 66 68<-190 596.443> 318 68<339.593 435.821> 430 67<526 615.714> 479 68<95.4908 208.128>
Fore
270 668 m 2xfc
 195 668 134 596 134 517 c 2
 134 -190 l 1
 66 -190 l 1
 66 517 l 2
 66 628 155 728 270 728 c 2
 330 728 l 2
 416 728 497 656 497 553 c 2
 497 484 l 1xfc
 446 462 386 439 386 393 c 0
 386 346 407 342 454 295 c 0
 504 245 547 238 547 157 c 0
 547 92 510 -14 362 -14 c 0
 304 -14 242 11 217 26 c 1
 247 87 l 1
 288 65 327 54 362 54 c 0
 452 54 479 121 479 152 c 0xfa
 479 207 454 208 405 250 c 0
 351 297 318 337 318 393 c 0
 318 446 361 489 430 526 c 1
 430 553 l 2
 430 602 386 668 330 668 c 2
 270 668 l 2xfc
EndSplineSet
EndChar
StartChar: ae
Encoding: 230 230 167
Width: 905
VWidth: 1507
Flags: W
HStem: -6 60<156.64 336.538 532.016 719.641> 267 53<192.53 419 487 782> 460 60<160.365 372.066 553.545 734.537>
VStem: 57 68<84.2998 202.895> 419 68<135.452 167 167 267 320 395.425> 782 68<115.901 188 320 344 344 409.549>
Fore
228 460 m 2
 191 460 164 445 145 425 c 1
 107 478 l 1
 143 506 183 520 228 520 c 2
 320 520 l 2
 378 520 432 482 461 434 c 1
 494 478 549 519 623 519 c 2
 683 519 l 2
 770 519 850 444 850 344 c 2
 850 267 l 1
 487 267 l 1
 487 167 l 2
 487 117 528 53 586 53 c 2
 647 53 l 2
 724 53 782 111 782 188 c 1
 850 188 l 1
 850 68 744 -8 647 -8 c 2
 586 -8 l 2
 517 -8 465 36 439 86 c 1
 404 38 343 -6 268 -6 c 2
 208 -6 l 2
 126 -6 57 53 57 142 c 0
 57 249 165 320 259 320 c 2
 419 320 l 1
 419 353 l 2
 416 403 369 460 320 460 c 2
 228 460 l 2
268 54 m 2
 345 54 416 131 419 199 c 2
 419 267 l 1
 259 267 l 2
 198 267 125 207 125 145 c 0
 125 99 159 54 208 54 c 2
 268 54 l 2
782 344 m 2
 782 394 741 458 683 458 c 2
 623 458 l 2
 543 458 487 394 487 320 c 1
 782 320 l 1
 782 344 l 2
EndSplineSet
EndChar
StartChar: ccedilla
Encoding: 231 231 168
Width: 526
VWidth: 1507
Flags: MW
HStem: -193 53<235.864 304.912> -8 61<161.068 238 294 352.284> 458 61<182.926 369.129>
VStem: 48 68<102.109 384.904> 175 59<-138.65 -106> 309 59<-135.287 -95.16> 412 67<109.104 182 359 417.071>
Fore
234 -106 m 1
 234 -126 245 -140 261 -140 c 2
 273 -140 l 2
 306 -140 309 -131 309 -118 c 0
 309 -85 238 -82 238 -17 c 2
 238 -8 l 1
 216 -8 l 2
 119 -8 48 78 48 167 c 2
 48 308 l 2
 48 424 142 519 252 519 c 2
 311 519 l 2
 405 519 478 455 478 359 c 1
 410 359 l 1
 410 411 366 458 311 458 c 2
 252 458 l 2
 167 458 116 375 116 308 c 2
 116 167 l 2
 116 108 163 53 216 53 c 2
 276 53 l 2
 350 53 412 103 412 182 c 1
 479 182 l 1
 479 57 373 -4 294 -6 c 1
 294 -17 l 1
 307 -56 330 -46 356 -81 c 0
 364 -91 368 -104 368 -119 c 0
 368 -148 359 -168 340 -178 c 0
 321 -188 299 -193 273 -193 c 2
 261 -193 l 2
 209 -189 175 -162 175 -106 c 1
 234 -106 l 1
EndSplineSet
EndChar
StartChar: eth
Encoding: 240 240 177
Width: 627
VWidth: 1507
Flags: W
HStem: -14 56<214.872 400.702> 480 57<215.084 369.263>
VStem: 45 61<154.756 360.737> 510 66<157.059 376.2>
Fore
167 791 m 1
 258 754 297 728 326 707 c 1
 397 741 l 2
 422 752 446 764 469 776 c 1
 493 724 l 1
 375 671 l 1
 379 668 379 667 381 665 c 0
 565 512 576 353 576 276 c 0
 576 83 446 -14 304 -14 c 0
 149 -14 45 104 45 255 c 0
 45 435 186 537 309 537 c 0
 402 537 449 499 464 487 c 1
 453 505 418 564 318 642 c 1
 232 600 l 2
 204 587 175 574 146 562 c 1
 125 612 l 1
 265 677 l 1
 231 699 182 721 140 736 c 1
 167 791 l 1
303 42 m 0
 426 42 510 127 510 268 c 0
 507 343 491 429 399 460 c 0
 358 474 325 480 297 480 c 0
 182 480 106 373 106 256 c 0
 106 117 204 42 303 42 c 0
EndSplineSet
EndChar
StartChar: divide
Encoding: 247 247 184
Width: 646
VWidth: 1507
Flags: W
HStem: 124 105<252.515 338.273> 300 63<56 520 56 520 56 56> 425 106<253.248 338.146>
VStem: 243 105<133.515 219.146 434.727 521.146>
Fore
56 300 m 1
 56 363 l 1
 520 363 l 1
 520 300 l 1
 56 300 l 1
295 425 m 256
 266 425 243 446 243 478 c 256
 243 506 264 531 295 531 c 256
 327 531 348 507 348 478 c 256
 348 446 324 425 295 425 c 256
295 124 m 256
 264 124 243 147 243 176 c 256
 243 208 266 229 295 229 c 256
 327 229 348 205 348 176 c 256
 348 147 327 124 295 124 c 256
EndSplineSet
EndChar
StartChar: oslash
Encoding: 248 248 185
Width: 541
VWidth: 1507
Flags: W
HStem: -8 61<197.712 349.349> 458 61<188.926 341.144>
VStem: 54 68<139.345 384.904> 418 67<128.261 203 203 369.312>
Fore
485 203 m 2
 485 81 388 -8 282 -8 c 2
 222 -8 l 2
 191 -8 163 -0 139 15 c 1
 110 -26 l 1
 39 -26 l 1
 95 54 l 1
 68 87 54 124 54 167 c 2
 54 308 l 2
 54 424 148 519 258 519 c 2
 318 519 l 2
 347 519 375 511 401 494 c 1
 431 537 l 1
 499 537 l 1
 443 457 l 1
 473 423 485 381 485 344 c 2
 485 203 l 2
282 53 m 2
 366 53 418 137 418 203 c 2
 418 344 l 2
 418 362 413 380 402 398 c 1
 175 68 l 1
 188 58 203 53 222 53 c 2
 282 53 l 2
258 458 m 2
 173 458 122 375 122 308 c 2
 122 167 l 2
 122 147 127 129 136 113 c 1
 365 442 l 1
 351 453 335 458 318 458 c 2
 258 458 l 2
EndSplineSet
EndChar
StartChar: thorn
Encoding: 254 254 191
Width: 664
VWidth: 1507
Flags: W
HStem: -8 61<240.207 423.203> 458 61<263.466 443.537> 696 20G<128 196>
VStem: 128 68<-228 27 100.064 387.841 464 716> 491 68<128.261 344 344 409.549>
Fore
392 519 m 2
 479 519 559 444 559 344 c 2
 559 203 l 2
 559 81 462 -8 356 -8 c 2
 295 -8 l 2
 257 -8 224 4 196 27 c 1
 196 -228 l 1
 128 -228 l 1
 128 716 l 1
 196 716 l 1
 196 464 l 1
 230 497 278 519 332 519 c 2
 392 519 l 2
356 53 m 2
 437 53 491 133 491 203 c 2
 491 344 l 2
 491 399 444 458 392 458 c 2
 332 458 l 2
 255 458 196 385 196 314 c 2
 196 167 l 2
 196 107 245 53 295 53 c 2
 356 53 l 2
EndSplineSet
EndChar
StartChar: Lslash
Encoding: 321 321 193
Width: 661
VWidth: 1507
Flags: W
HStem: 0 60<166 610> 696 20G<98 166>
VStem: 98 68<60 280 412 716>
Fore
15 300 m 1
 98 360 l 1
 98 716 l 1
 166 716 l 1
 166 412 l 1
 276 493 l 1
 276 413 l 1
 166 332 l 1
 166 60 l 1
 610 60 l 1
 610 0 l 1
 98 0 l 1
 98 280 l 1
 15 220 l 1
 15 300 l 1
EndSplineSet
EndChar
StartChar: lslash
Encoding: 322 322 194
Width: 290
VWidth: 1507
Flags: MW
HStem: 0 21G<113 181> 696 20G<113 181>
VStem: 113 68<0 285 428 716>
Fore
33 303 m 1
 113 371 l 1
 113 716 l 1
 181 716 l 1
 181 428 l 1
 256 491 l 1
 256 409 l 1
 181 344 l 1
 181 0 l 1
 113 0 l 1
 113 285 l 1
 36 220 l 1
 33 303 l 1
EndSplineSet
EndChar
StartChar: OE
Encoding: 338 338 195
Width: 1132
VWidth: 1507
Flags: W
HStem: 0 68<205.956 467.627 591 1070> 339 68<591 996> 648 68<246.984 505.71 591 1070>
VStem: 54 68<155.29 519.15> 523 68<128 339 407 615>
Fore
54 430 m 2
 54 599 192 716 341 716 c 2
 1070 716 l 1
 1070 648 l 1
 591 648 l 1
 591 407 l 1
 996 407 l 1
 996 339 l 1
 591 339 l 1
 591 68 l 1
 1070 68 l 1
 1070 0 l 1
 289 0 l 2
 165 0 54 94 54 235 c 2
 54 430 l 2
122 235 m 2
 122 147 189 68 289 68 c 2
 372 68 l 2
 437 68 487 93 523 128 c 1
 523 615 l 1
 493 637 459 648 422 648 c 2
 341 648 l 2
 211 648 122 543 122 430 c 2
 122 235 l 2
EndSplineSet
EndChar
StartChar: oe
Encoding: 339 339 196
Width: 919
VWidth: 1507
Flags: W
HStem: -8 61<164.725 349.208 529.311 717.152> 267 53<484 779> 458 61<188.797 369.999 547.277 731.537>
VStem: 53 68<101.451 386.223> 416 68<126.096 167 167 267 320 393.986> 779 68<116.702 188 320 344 344 409.217>
CounterMasks: 1 1c
Fore
680 519 m 2
 767 519 847 444 847 344 c 2
 847 267 l 1
 484 267 l 1
 484 167 l 2
 484 107 533 53 583 53 c 2
 644 53 l 2
 724 53 779 116 779 188 c 1
 847 188 l 1
 847 70 753 -8 644 -8 c 2
 583 -8 l 2
 518 -8 468 30 442 75 c 1
 402 25 345 -8 280 -8 c 2
 220 -8 l 2
 133 -8 53 67 53 167 c 2
 53 308 l 2
 53 428 149 519 256 519 c 2
 317 519 l 2
 402 519 445 456 458 434 c 1
 491 479 545 519 620 519 c 2
 680 519 l 2
280 53 m 2
 365 53 416 136 416 203 c 2
 416 344 l 2
 416 398 367 458 317 458 c 2
 256 458 l 2
 175 458 121 378 121 308 c 2
 121 167 l 2
 121 107 170 53 220 53 c 2
 280 53 l 2
779 344 m 2
 779 400 730 458 680 458 c 2
 620 458 l 2
 536 458 484 389 484 320 c 1
 779 320 l 1
 779 344 l 2
EndSplineSet
EndChar
StartChar: florin
Encoding: 402 402 202
Width: 732
VWidth: 1507
Flags: W
HStem: -223 68<50 164.663> 466 45<235 345 416 522> 731 68<563.297 677>
Fore
378 65 m 2
 359 -127 202 -223 44 -223 c 1
 50 -155 l 1
 215 -155 300 -49 311 65 c 2
 345 466 l 1
 232 466 l 1
 235 511 l 1
 348 511 l 1
 364 693 518 799 683 799 c 1
 677 731 l 1
 530 731 431 645 416 511 c 1
 525 511 l 1
 522 466 l 1
 413 466 l 1
 378 65 l 2
EndSplineSet
EndChar
StartChar: circumflex
Encoding: 710 710 203
Width: 483
VWidth: 1507
Flags: W
HStem: 745 176<222 404 222 222>
VStem: 98 306<745 745 745 745>
Fore
222 921 m 1
 280 921 l 1
 404 745 l 1
 339 745 l 1
 250 876 l 1
 163 745 l 1
 98 745 l 1
 222 921 l 1
EndSplineSet
EndChar
StartChar: caron
Encoding: 711 711 204
Width: 483
VWidth: 1507
Flags: W
HStem: 745 176<98 280 98 98>
VStem: 98 306<921 921 921 921>
Fore
98 921 m 1
 163 921 l 1
 250 790 l 1
 339 921 l 1
 404 921 l 1
 280 745 l 1
 222 745 l 1
 98 921 l 1
EndSplineSet
EndChar
StartChar: breve
Encoding: 728 728 205
Width: 452
VWidth: 1507
Flags: W
HStem: 633 48<161.367 291.098>
VStem: 65 53<727.086 796> 335 52<727.64 796>
Fore
226 681 m 256
 292 681 335 735 335 796 c 1
 387 796 l 1
 387 703 311 633 226 633 c 256
 135 633 65 710 65 796 c 1
 118 796 l 1
 118 735 159 681 226 681 c 256
EndSplineSet
EndChar
StartChar: dotaccent
Encoding: 729 729 206
Width: 238
VWidth: 1507
Flags: W
HStem: 644 117<77.147 169.619>
VStem: 65 117<656.286 748.853>
Fore
124 644 m 256
 90 644 65 667 65 702 c 256
 65 736 88 761 124 761 c 256
 159 761 182 736 182 702 c 256
 182 667 156 644 124 644 c 256
EndSplineSet
EndChar
StartChar: ring
Encoding: 730 730 207
Width: 419
VWidth: 1507
Flags: W
HStem: 598 49<161.542 255.129> 770 49<161.872 255.007>
VStem: 98 48<662.913 753.977> 270 48<661.969 754.958>
Fore
210 598 m 0
 143 598 98 645 98 707 c 0
 98 770 143 819 210 819 c 0
 271 819 318 773 318 707 c 0
 318 642 270 598 210 598 c 0
210 770 m 0
 173 770 146 741 146 707 c 0
 146 675 174 647 210 647 c 0
 244 647 270 676 270 707 c 0
 270 743 242 770 210 770 c 0
EndSplineSet
EndChar
StartChar: ogonek
Encoding: 731 731 208
Width: 292
VWidth: 1507
Flags: W
HStem: -193 53<107.423 176.136>
VStem: 44 59<-139.174 -89.1675> 178 59<-138.65 -106>
Fore
103 -118 m 0
 103 -132 107 -140 139 -140 c 2
 151 -140 l 2
 167 -140 178 -126 178 -106 c 1
 237 -106 l 1
 237 -162 203 -189 151 -193 c 2
 139 -193 l 2
 112 -193 90 -188 72 -178 c 0
 53 -168 44 -148 44 -119 c 0
 44 -71 79 -61 102 -42 c 1
 109 -38 114 -29 118 -17 c 1
 118 6 l 1
 173 6 l 1
 173 -17 l 2
 173 -84 103 -82 103 -118 c 0
EndSplineSet
EndChar
StartChar: tilde
Encoding: 732 732 209
Width: 325
VWidth: 1507
Flags: W
HStem: 600 47<196.96 262.216> 677 47<77.1886 139.661>
VStem: 9 51<624 670.308> 270 51<654.016 699>
Fore
231 647 m 0
 253 647 270 669 270 699 c 1
 321 699 l 1
 318 617 270 600 222 600 c 0
 164 600 146 677 99 677 c 0
 88 677 60 667 60 624 c 1
 9 624 l 1
 15 709 65 724 106 724 c 0
 173 724 195 647 231 647 c 0
EndSplineSet
EndChar
StartChar: uni0E01
Encoding: 3585 3585 212
Width: 593
VWidth: 1507
Flags: W
HStem: 0 21G<106 173 443 511> 537 60<200.255 411.115>
VStem: 106 67<0 366.047> 443 68<0 502.442>
Fore
359 597 m 2
 427 597 511 532 511 446 c 2
 511 0 l 1
 443 0 l 1
 443 446 l 2
 442 494 403 537 359 537 c 2
 264 537 l 2
 201 537 138 474 121 422 c 1
 138 408 173 378 173 312 c 2
 173 0 l 1
 106 0 l 1
 106 312 l 2
 106 351 73 388 39 392 c 1
 53 508 154 597 267 597 c 2
 359 597 l 2
EndSplineSet
EndChar
StartChar: uni0E02
Encoding: 3586 3586 213
Width: 559
VWidth: 1507
Flags: W
HStem: 2 58<320 388.26> 327 42<88.3363 169.806> 475 42<100.856 169.964> 550 47<111.352 224.038>
VStem: 27 50<379.936 462.094> 181 44<380.313 464.602> 252 68<60.2681 69 69 335.578> 270 50<388.406 498.302> 418 67<88.4864 142 142 597>
Fore
172 597 m 0xfd80
 275 594 320 514 320 430 c 2
 320 60 l 1xfd80
 342 60 l 2
 375 63 418 93 418 142 c 2
 418 597 l 1
 485 597 l 1
 485 152 l 2
 485 80 422 2 342 2 c 2
 317 2 l 2
 283 2 252 31 252 69 c 2
 252 308 l 2xfe80
 252 318 253 327 255 336 c 2
 261 362 l 2
 267 388 270 402 270 428 c 0
 266 491 227 550 164 550 c 0
 138 550 115 536 99 514 c 1
 109 516 118 517 130 517 c 0
 178 517 225 476 225 422 c 0
 225 370 179 327 130 327 c 0
 64 327 27 388 27 443 c 0
 27 538 97 597 172 597 c 0xfd80
130 475 m 256
 100 475 77 449 77 422 c 256
 77 392 103 369 130 369 c 0
 155 369 181 393 181 422 c 256
 181 449 160 475 130 475 c 256
EndSplineSet
EndChar
StartChar: uni0E03
Encoding: 3587 3587 214
Width: 575
VWidth: 1507
Flags: W
HStem: 0 60<330 399.471> 312 41<72.9149 153.431> 452 38<81.9631 154.595> 544 53<99.5927 157>
VStem: 14 49<362.524 474.571> 163 39<362.858 443.132> 262 68<60.9741 68 68 360.208> 329 49<424.242 523.056> 428 68<89.3832 597>
Fore
353 60 m 2xfe80
 388 64 428 96 428 142 c 2
 428 597 l 1
 496 597 l 1
 496 152 l 2
 496 83 434 -0 353 0 c 2
 327 0 l 2
 293 0 262 30 262 68 c 2
 262 347 l 2xfe80
 262 389 329 419 329 487 c 0
 329 507 321 525 304 541 c 1
 234 434 l 1
 157 544 l 1
 129 543 78 524 68 475 c 1
 82 485 97 490 113 490 c 0
 160 490 202 451 202 398 c 0
 202 351 158 312 112 312 c 0
 34 312 14 394 14 436 c 0
 14 528 94 597 179 597 c 1
 234 514 l 1
 291 597 l 1
 358 580 378 523 378 478 c 0xfd80
 378 410 343 380 334 362 c 1
 332 356 330 346 330 333 c 2
 330 60 l 1
 353 60 l 2xfe80
163 402 m 0
 163 432 139 452 113 452 c 0
 93 452 63 434 63 402 c 0
 63 377 84 353 113 353 c 0
 140 353 163 378 163 402 c 0
EndSplineSet
EndChar
StartChar: uni0E04
Encoding: 3588 3588 215
Width: 634
VWidth: 1507
Flags: W
HStem: 0 21G<81 176.074 490 558> 203 44<283.259 360.646> 351 44<275.433 360.42> 537 60<236.962 455.039>
VStem: 81 68<112 446.682> 371 44<257.86 339.968> 490 68<0 503.512>
Fore
81 375 m 2
 81 486 189 597 297 597 c 2
 405 597 l 2
 492 597 558 537 558 446 c 2
 558 0 l 1
 490 0 l 1
 490 446 l 2
 490 487 455 537 405 537 c 2
 301 537 l 2
 228 537 149 453 149 375 c 2
 149 112 l 1
 226 327 l 2
 239 363 272 395 318 395 c 0
 377 395 415 346 415 298 c 0
 415 244 367 203 318 203 c 256
 293 203 270 212 250 229 c 1
 169 0 l 1
 81 0 l 1
 81 375 l 2
318 351 m 256
 291 351 265 329 265 298 c 0
 265 267 291 247 318 247 c 0
 347 247 371 271 371 298 c 256
 371 329 345 351 318 351 c 256
EndSplineSet
EndChar
StartChar: uni0E05
Encoding: 3589 3589 216
Width: 639
VWidth: 1507
Flags: W
HStem: 0 21G<81 176.186 490 558> 203 44<277.785 359.71> 353 43<277.835 361.399> 577 20G<228 305.722 399.611 458.5>
VStem: 81 68<112 446.022> 372 44<259.382 342.318> 490 68<0 503.534>
Fore
416 597 m 1
 501 591 558 519 558 448 c 2
 558 0 l 1
 490 0 l 1
 490 448 l 2
 490 487 462 520 427 529 c 1
 357 440 l 1
 274 526 l 1
 206 509 149 441 149 377 c 2
 149 112 l 1
 228 329 l 2
 241 365 275 396 320 396 c 0
 368 396 416 354 416 300 c 256
 416 246 368 203 320 203 c 0
 293 203 271 212 252 231 c 1
 169 0 l 1
 81 0 l 1
 81 377 l 2
 81 473 170 588 286 597 c 1
 357 525 l 1
 416 597 l 1
320 353 m 256
 289 353 267 327 267 300 c 256
 267 273 289 247 320 247 c 0
 343 247 372 270 372 300 c 256
 372 327 350 353 320 353 c 256
EndSplineSet
EndChar
StartChar: uni0E06
Encoding: 3590 3590 217
Width: 714
VWidth: 1507
Flags: W
HStem: 0 45<210.329 263.663> 155 64<345.798 472.792> 161 49<206.184 264> 312 41<74.2755 153.884> 452 38<83.5381 155.684> 544 53<101.34 158>
VStem: 15 50<361.217 474.789> 146 47<63.5907 148.111> 164 39<363.532 443.132> 264 68<45 155 219 360.208> 330 50<421.964 523.056> 567 68<89 597>
Fore
252 161 m 2xbf50
 215 161 193 133 193 106 c 0
 193 69 231 45 264 45 c 1
 264 161 l 1
 252 161 l 2xbf50
292 597 m 1
 358 580 380 523 380 478 c 0xbeb0
 380 413 345 381 336 362 c 0
 334 356 332 346 332 333 c 2
 332 219 l 1
 445 191 533 134 567 89 c 1
 567 597 l 1
 635 597 l 1
 635 0 l 1
 567 0 l 1
 552 21 486 121 332 155 c 1xde50
 332 45 l 1
 312 10 296 0 252 0 c 0
 198 0 146 47 146 106 c 256
 146 165 199 210 252 210 c 2
 264 210 l 1
 264 347 l 2xbf50
 264 358 268 368 274 378 c 2
 298 409 l 2
 314 427 330 454 330 487 c 0
 330 507 322 525 306 541 c 1
 235 434 l 1
 158 544 l 1
 122 543 77 516 69 475 c 1
 83 485 98 490 115 490 c 0
 160 490 203 451 203 398 c 0xbeb0
 203 349 158 312 113 312 c 0
 35 312 15 396 15 436 c 0
 15 529 96 597 181 597 c 1
 235 514 l 1
 292 597 l 1
164 402 m 0
 164 432 141 452 115 452 c 0
 95 452 65 434 65 402 c 0
 65 376 85 353 115 353 c 0
 141 353 164 379 164 402 c 0
EndSplineSet
EndChar
StartChar: uni0E07
Encoding: 3591 3591 218
Width: 517
VWidth: 1507
Flags: W
HStem: 0 60<338.4 369> 404 44<301.254 366.291> 553 42<299.263 382.981>
VStem: 246 43<459.854 541.637> 369 68<60 409> 393 44<458.389 543.704>
Fore
344 595 m 0xf8
 391 595 437 556 437 503 c 2
 437 0 l 1xf4
 369 0 l 2
 343 0 284 8 241 74 c 2
 36 392 l 1
 115 392 l 1
 311 87 l 2
 323 73 345 60 369 60 c 1
 369 409 l 1
 360 406 351 404 342 404 c 0
 287 404 246 450 246 500 c 256
 246 557 294 595 344 595 c 0xf8
393 500 m 0
 393 531 370 553 342 553 c 256
 315 553 289 531 289 500 c 0
 289 477 312 448 342 448 c 256
 373 448 393 477 393 500 c 0
EndSplineSet
EndChar
StartChar: uni0E08
Encoding: 3592 3592 219
Width: 578
VWidth: 1507
Flags: W
HStem: 0 60<354 396.284> 202 44<218.323 285.706> 350 43<216.568 301.602> 537 60<179.68 395.159>
VStem: 163 44<257.164 339.692> 286 68<60 205> 312 42<256.695 339.613> 428 68<91.6985 503.362>
Fore
354 60 m 1xfd
 391 64 428 106 428 151 c 2
 428 445 l 2
 428 487 392 537 345 537 c 2
 252 537 l 2
 163 537 119 456 103 419 c 1
 36 442 l 1
 55 486 120 593 252 597 c 2
 348 597 l 2
 429 597 496 520 496 445 c 2
 496 146 l 2
 496 71 424 -0 354 0 c 2xfb
 286 0 l 1
 286 205 l 1xfd
 285 203 263 202 259 202 c 0
 204 202 163 248 163 298 c 256
 163 355 210 393 259 393 c 256
 313 393 354 347 354 298 c 2xfb
 354 60 l 1xfd
312 298 m 256
 312 329 286 350 259 350 c 256
 231 350 207 329 207 298 c 0
 207 273 230 246 259 246 c 256
 286 246 312 268 312 298 c 256
EndSplineSet
EndChar
StartChar: uni0E09
Encoding: 3593 3593 220
Width: 610
VWidth: 1507
Flags: W
HStem: 0 48<449.697 540.443> 140 42<90.8447 156.505> 286 41<89.6736 173.956> 537 60<211.36 428.311>
VStem: 38 42<193.128 275.759> 53 69<366 442.791> 157 68<75 143> 184 41<191.236 275.711> 389 48<62.1804 106> 461 68<225 502.922> 553 47<60.0385 151.322>
Fore
461 443 m 2xf2e0
 461 488 427 534 377 537 c 2
 279 537 l 2
 201 537 122 452 122 366 c 1
 53 366 l 1
 53 487 160 597 279 597 c 2
 380 597 l 2
 455 597 529 528 529 443 c 2
 529 207 l 1
 586 184 600 136 600 109 c 0
 600 55 562 0 491 0 c 0
 435 0 390 47 389 106 c 1
 225 0 l 1xf5e0
 157 0 l 1
 157 143 l 1xf2e0
 140 141 143 140 133 140 c 0
 84 140 38 178 38 234 c 256
 38 289 85 327 133 327 c 0
 181 327 225 286 225 237 c 2xf9e0
 225 75 l 1
 461 225 l 1
 461 443 l 2xf2e0
133 286 m 256
 106 286 80 265 80 234 c 0xf9e0
 80 204 106 182 133 182 c 256
 160 182 184 204 184 234 c 256
 184 264 160 286 133 286 c 256
553 106 m 0
 553 141 526 164 494 164 c 256
 460 164 437 133 437 106 c 0
 437 71 465 48 496 48 c 0
 526 48 553 71 553 106 c 0
EndSplineSet
EndChar
StartChar: uni0E0A
Encoding: 3594 3594 221
Width: 563
VWidth: 1507
Flags: W
HStem: 0 60<320 388.26> 327 42<88.3363 169.806> 475 42<100.856 169.964> 550 47<111.352 224.038>
VStem: 27 50<379.936 462.094> 181 44<380.313 464.602> 252 68<60.9741 68 68 335.578> 270 50<388.406 498.302> 418 67<88.9429 143 143 378>
Fore
130 475 m 256xfc80
 100 475 77 449 77 422 c 256
 77 392 103 369 130 369 c 0
 155 369 181 393 181 422 c 256
 181 449 160 475 130 475 c 256xfc80
172 597 m 0
 275 594 320 514 320 430 c 2
 320 60 l 1xfd80
 342 60 l 2
 375 63 418 93 418 143 c 2
 418 369 l 2
 418 392 362 419 333 419 c 1
 333 449 l 1
 433 485 470 540 479 684 c 1
 547 684 l 1
 534 606 l 2
 512 474 440 443 412 433 c 1
 437 426 476 396 485 378 c 1
 485 152 l 2
 485 82 422 -0 342 0 c 2
 317 0 l 2
 283 0 252 30 252 68 c 2
 252 308 l 2xfe80
 252 318 253 327 255 336 c 2
 261 362 l 2
 267 388 270 402 270 428 c 0xfd80
 266 491 227 550 164 550 c 0
 138 550 115 536 99 514 c 1
 109 516 118 517 130 517 c 0
 178 517 225 476 225 422 c 0
 225 370 179 327 130 327 c 0
 64 327 27 388 27 443 c 0
 27 538 97 597 172 597 c 0
EndSplineSet
EndChar
StartChar: uni0E0B
Encoding: 3595 3595 222
Width: 572
VWidth: 1507
Flags: W
HStem: 0 60<329 397.26> 312 41<71.2755 150.884> 452 38<80.5381 152.684> 544 53<98.3404 155>
VStem: 12 50<361.217 474.789> 161 39<363.532 443.132> 261 68<60.9741 359.234> 327 50<421.964 523.056> 393 101<386 443> 427 67<88.9429 143 143 374>
Fore
326 0 m 2xfc40
 292 0 261 30 261 68 c 2
 261 347 l 2xfe40
 261 358 264 368 272 378 c 2
 295 409 l 2
 311 427 327 454 327 487 c 0
 327 507 319 525 303 541 c 1
 232 434 l 1
 155 544 l 1
 119 543 74 516 66 475 c 1
 80 485 95 490 112 490 c 0
 157 490 200 451 200 398 c 0
 200 349 155 312 110 312 c 0
 32 312 12 396 12 436 c 0
 12 529 93 597 178 597 c 1
 232 514 l 1
 289 597 l 1
 355 580 377 523 377 478 c 0xfd
 377 413 342 381 334 362 c 1
 330 356 329 346 329 333 c 2
 329 60 l 1
 351 60 l 2
 384 63 427 93 427 143 c 2
 427 374 l 1xfe40
 421 394 391 412 389 412 c 1
 392 422 393 432 393 443 c 256
 393 454 392 467 389 481 c 1
 476 529 480 580 488 689 c 1
 555 689 l 1
 546 614 l 2
 533 515 495 469 433 446 c 1
 474 423 494 403 494 386 c 2xfc80
 494 152 l 2
 494 82 431 -0 351 0 c 2
 326 0 l 2xfc40
161 402 m 0
 161 432 138 452 112 452 c 0
 92 452 62 434 62 402 c 0
 62 376 82 353 112 353 c 0
 138 353 161 379 161 402 c 0
EndSplineSet
EndChar
StartChar: uni0E0C
Encoding: 3596 3596 223
Width: 854
VWidth: 1507
Flags: W
HStem: 2 43<155.316 239.388 415.3 439> 140 56<524.979 573.725> 148 43<170.507 239.091> 158 47<387.522 439> 537 60<197.255 407.616>
VStem: 103 42<55.4117 137.488> 103 67<188 366.047> 249 43<55.358 138.165> 330 45<60.7614 145.072> 439 69<48 140 205 446 446 505.041> 705 67<72 597>
Fore
356 597 m 2xabe0
 424 597 508 532 508 446 c 2
 508 196 l 1
 594 168 661 122 705 72 c 1
 705 597 l 1
 772 597 l 1
 772 0 l 1
 705 0 l 1
 607 103 552 126 508 140 c 1xcbe0
 508 35 l 1
 492 19 467 2 439 2 c 0
 377 2 330 46 330 103 c 0
 330 164 374 205 439 205 c 1
 439 446 l 2
 439 495 399 537 356 537 c 2
 261 537 l 2
 198 537 135 474 118 422 c 1
 135 408 170 378 170 312 c 2
 170 188 l 1x9be0
 180 190 186 191 197 191 c 0
 250 191 292 148 292 98 c 0
 292 49 254 2 197 2 c 0
 149 2 108 38 103 80 c 2xade0
 103 312 l 2
 103 351 70 388 36 392 c 1
 50 508 151 597 264 597 c 2
 356 597 l 2xabe0
197 148 m 256xade0
 167 148 145 121 145 98 c 0
 145 71 167 45 197 45 c 256
 228 45 249 71 249 98 c 0
 249 125 227 148 197 148 c 256xade0
439 158 m 1x99e0
 403 158 375 136 375 103 c 256
 375 59 416 48 439 48 c 1
 439 158 l 1x99e0
EndSplineSet
EndChar
StartChar: uni0E0D
Encoding: 3597 3597 224
Width: 860
VWidth: 1507
Flags: W
HStem: -249 50<562.682 670.175> -78 40<466.728 549.069> 0 60<516 680.89> 0 47<164.425 246.882> 152 42<179.295 247.738> 537 60<203.255 415.43>
VStem: 110 45<57.0913 143.404> 110 68<190 364.75> 258 43<57.709 141.298> 418 40<-169.116 -86.3861> 448 68<61.2426 502.442> 558 40<-159.029 -86.9738> 716 68<95.7656 597> 749 53<-147.66 -65>
Fore
124 422 m 1xedb8
 141 408 173 380 178 312 c 2
 178 190 l 1xedb8
 187 193 196 194 205 194 c 0
 247 194 301 160 301 98 c 0
 301 44 257 0 205 0 c 0
 154 0 110 39 110 83 c 2xde90
 110 312 l 2
 110 350 76 388 42 392 c 1
 56 508 157 597 270 597 c 2
 363 597 l 2
 431 597 516 532 516 446 c 2
 516 60 l 1
 633 60 l 2
 675 64 716 104 716 154 c 2
 716 597 l 1
 784 597 l 1
 784 154 l 2
 784 73 715 -0 633 0 c 2
 517 0 l 2
 476 0 451 40 448 68 c 2
 448 446 l 2
 448 495 406 537 363 537 c 2
 267 537 l 2
 204 537 141 474 124 422 c 1xedb8
258 99 m 256
 258 130 232 152 205 152 c 256
 177 152 155 130 155 99 c 256
 155 69 178 47 205 47 c 256xde90
 232 47 258 69 258 99 c 256
508 -38 m 0
 558 -38 598 -74 598 -128 c 0
 598 -142 595 -164 559 -194 c 1
 571 -197 583 -199 594 -199 c 0
 672 -199 734 -137 749 -65 c 1
 802 -65 l 1
 779 -176 683 -249 585 -249 c 0
 493 -249 418 -201 418 -128 c 0xccd4
 418 -82 458 -38 508 -38 c 0
558 -128 m 0
 558 -99 534 -78 508 -78 c 0
 478 -78 458 -101 458 -128 c 0
 458 -154 479 -178 508 -178 c 256
 537 -178 558 -154 558 -128 c 0
EndSplineSet
Substitution2: "Single Substitution lookup 22 subtable" uni0E0D.alt1
Substitution2: "Single Substitution lookup 22 subtable" uni0E0D.alt1
EndChar
StartChar: uni0E0E
Encoding: 3598 3598 225
Width: 615
VWidth: 1507
Flags: W
HStem: -294 44<150.725 233.995> -146 43<149.308 235.802> 0 44<91.8689 174.803> 146 44<90.7095 159.766> 537 60<219.258 433.594>
VStem: 38 43<54.9726 135.906> 96 44<-238.965 -155.178> 160 68<187 353.066> 185 43<54 136.614> 466 68<-136 502.442>
Fore
143 427 m 1xff40
 185 412 228 357 228 311 c 2xff40
 228 90 l 2xfec0
 228 38 180 0 133 0 c 0
 77 0 38 46 38 95 c 0
 38 146 78 190 133 190 c 2
 146 190 l 2
 150 190 155 189 160 187 c 1
 160 311 l 2
 160 344 103 393 62 396 c 1
 72 503 169 597 289 597 c 2
 381 597 l 2
 449 597 534 532 534 446 c 2
 534 -146 l 1
 480 -257 410 -289 383 -301 c 1
 283 -228 l 1
 274 -255 244 -294 191 -294 c 0
 145 -294 96 -254 96 -197 c 256
 96 -143 143 -103 191 -103 c 0
 220 -103 245 -117 264 -130 c 2
 384 -223 l 1
 413 -210 441 -181 466 -136 c 1
 466 446 l 2
 466 491 429 537 381 537 c 2
 286 537 l 2
 221 537 164 479 143 427 c 1xff40
133 146 m 256
 103 146 81 122 81 95 c 256
 81 66 107 44 133 44 c 0
 163 44 185 68 185 95 c 0xfec0
 185 128 159 146 133 146 c 256
191 -146 m 0
 161 -146 140 -170 140 -197 c 256
 140 -229 168 -250 191 -250 c 0
 222 -250 244 -226 244 -197 c 256
 244 -169 226 -146 191 -146 c 0
EndSplineSet
Substitution2: "Single Substitution lookup 22 subtable" uni0E0E.alt1
Substitution2: "Single Substitution lookup 22 subtable" uni0E0E.alt1
EndChar
StartChar: uni0E0F
Encoding: 3599 3599 226
Width: 613
VWidth: 1507
Flags: W
HStem: -283 43<103.946 186.089> -134 44<103.573 186.487> 0 44<91.3149 175.951> 146 44<91.5813 159.453> 537 60<219.258 433.594>
VStem: 38 43<54.9328 135.471> 48 44<-227.934 -144.978> 160 68<187 353.233> 185 43<54 136.265> 466 68<-196.234 502.442>
Fore
381 597 m 2xfd40
 449 597 534 532 534 446 c 2
 534 -148 l 2
 534 -220 484 -258 418 -301 c 1
 345 -185 l 1
 277 -301 l 1
 228 -235 l 1xf8c0
 212 -264 178 -283 145 -283 c 0
 95 -283 48 -242 48 -187 c 256
 48 -133 94 -90 145 -90 c 0
 174 -90 199 -102 220 -127 c 2
 279 -213 l 1
 348 -95 l 1
 424 -213 l 1
 461 -188 466 -172 466 -148 c 2
 466 446 l 2
 466 491 429 537 381 537 c 2
 286 537 l 2
 221 537 164 479 143 427 c 1
 164 418 228 376 228 312 c 2xfb40
 228 90 l 2xf8c0
 228 38 180 0 133 0 c 256
 84 0 38 41 38 95 c 0
 38 145 80 190 133 190 c 2
 147 190 l 2
 152 190 156 189 160 187 c 1
 160 311 l 2
 160 344 103 393 62 396 c 1
 72 503 169 597 289 597 c 2
 381 597 l 2xfd40
133 146 m 0
 104 145 81 122 81 95 c 0xfcc0
 81 66 107 44 133 44 c 0
 164 44 185 67 185 95 c 256
 185 122 163 146 133 146 c 0
145 -134 m 256
 115 -134 92 -160 92 -187 c 0xfa40
 92 -213 116 -240 145 -240 c 256
 175 -240 197 -214 197 -187 c 256
 197 -160 175 -134 145 -134 c 256
EndSplineSet
Substitution2: "Single Substitution lookup 22 subtable" uni0E0F.alt1
Substitution2: "Single Substitution lookup 22 subtable" uni0E0F.alt1
EndChar
StartChar: uni0E10
Encoding: 3600 3600 227
Width: 538
VWidth: 1507
Flags: W
HStem: -268 43<29.451 112.304> -154 32<336.922 388.512> -118 44<28.3064 113.783> -45 31<336.417 404.319> 0 60<279 326.248> 134 45<143.544 208.321> 285 45<142.355 225.175> 494 55<307.315 453.726> 543 54<148.627 289.016>
VStem: -27 45<-213.935 -129.168> 41 68<451 500.221> 87 44<190.83 274.118> 211 68<60 139> 237 42<190.197 273.921> 303 30<-117.837 -48.8911> 356 68<90.8734 143 143 315> 389 50<-229.687 -151> 409 30<-118.3 -48.8289>
Fore
109 451 m 1xfee280
 229 433 330 396 424 342 c 1
 424 152 l 2
 424 79 361 0 279 0 c 2xfee7
 211 0 l 1
 211 139 l 1xfeca
 202 136 193 134 184 134 c 0
 130 134 87 181 87 232 c 256
 87 286 132 330 184 330 c 256
 235 330 279 290 279 232 c 2xfed6
 279 60 l 1
 321 64 356 102 356 143 c 2
 356 315 l 1
 283 358 178 390 41 410 c 1
 41 578 164 597 199 597 c 0xfeeb
 257 597 326 556 389 549 c 0
 426 549 456 568 493 603 c 1
 493 540 l 1
 481 525 454 494 395 494 c 0xff6280
 331 494 266 543 199 543 c 0
 154 543 109 490 109 451 c 1xfee280
371 -14 m 0
 403 -14 439 -42 439 -83 c 2xfe4240
 439 -190 l 2
 439 -241 404 -278 335 -300 c 1
 267 -188 l 1
 184 -300 l 1
 146 -229 l 1
 129 -255 105 -268 74 -268 c 0
 17 -268 -27 -222 -27 -170 c 256
 -27 -115 21 -74 71 -74 c 0
 101 -74 134 -84 146 -110 c 2
 194 -213 l 1
 267 -113 l 1
 350 -240 l 1
 376 -228 389 -209 389 -184 c 2
 389 -151 l 1xfe4280
 383 -153 377 -154 371 -154 c 0
 330 -154 303 -120 303 -83 c 256
 303 -43 335 -14 371 -14 c 0
71 -118 m 256
 44 -118 18 -140 18 -170 c 256
 18 -198 39 -225 71 -225 c 256
 103 -225 124 -196 124 -170 c 256
 124 -140 98 -118 71 -118 c 256
131 232 m 0xfe56
 131 207 155 179 184 179 c 256
 214 179 237 205 237 232 c 256
 237 262 211 285 184 285 c 256
 154 285 131 259 131 232 c 0xfe56
371 -45 m 256
 348 -45 333 -63 333 -83 c 256
 333 -103 348 -122 371 -122 c 0
 392 -122 409 -105 409 -86 c 0xfe4240
 409 -62 392 -45 371 -45 c 256
EndSplineSet
Substitution2: "Single Substitution lookup 22 subtable" uni0E10.alt1
Substitution2: "Single Substitution lookup 22 subtable" uni0E10.alt1
EndChar
StartChar: uni0E11
Encoding: 3601 3601 228
Width: 780
VWidth: 1507
Flags: W
HStem: 0 21G<265 341.987 635 702> 312 41<75.9149 156.431> 452 38<84.9631 157.595> 544 53<102.593 160>
VStem: 17 49<362.524 474.571> 166 39<362.858 443.132> 265 68<175 363.653> 332 49<423.9 523.056> 635 67<0 494.694>
Fore
294 597 m 1xfd80
 361 580 381 523 381 478 c 0xfd80
 381 410 344 376 338 366 c 0
 334 361 333 352 333 339 c 2
 333 175 l 1
 525 597 l 1
 616 597 702 534 702 443 c 2
 702 0 l 1
 635 0 l 1
 635 443 l 2
 635 475 612 514 568 523 c 1
 333 0 l 1
 265 0 l 1
 265 347 l 2xfe80
 265 389 332 419 332 487 c 0
 332 507 324 525 308 541 c 1
 237 434 l 1
 160 544 l 1
 132 543 81 524 71 475 c 1
 85 485 100 490 116 490 c 0
 163 490 205 451 205 398 c 0
 205 351 161 312 115 312 c 0
 37 312 17 394 17 436 c 0
 17 528 97 597 182 597 c 1
 237 514 l 1
 294 597 l 1xfd80
166 402 m 0
 166 432 142 452 116 452 c 0
 96 452 66 434 66 402 c 0
 66 377 87 353 116 353 c 0
 143 353 166 378 166 402 c 0
EndSplineSet
EndChar
StartChar: uni0E12
Encoding: 3602 3602 229
Width: 901
VWidth: 1507
Flags: W
HStem: 0 53<152 210.856 437.488 485.94> 142 54<569.835 616.71> 160 47<439.594 487> 172 44<250.45 310.47> 321 44<251.65 331.4> 577 20G<236 307.108 399.054 449.5 754 822>
VStem: 84 68<53 445.453> 194 47<225.377 311.269> 342 44<228.176 311.231> 378 46<61.3414 146.557> 487 68<48 142 207 498.085> 754 68<72 597>
Fore
274 523 m 1xaf70
 212 506 152 447 152 372 c 2
 152 53 l 1
 223 62 281 119 311 175 c 1
 302 173 296 172 291 172 c 0x9f70
 241 172 194 213 194 268 c 256
 194 324 240 365 291 365 c 0
 341 365 386 324 386 268 c 0
 386 137 259 -0 137 0 c 2
 84 0 l 1
 84 372 l 2
 84 477 183 597 289 597 c 1
 356 523 l 1
 415 597 l 1
 484 597 555 531 555 445 c 2
 555 196 l 1
 632 174 699 133 754 72 c 1
 754 597 l 1
 822 597 l 1
 822 0 l 1
 754 0 l 1
 645 112 600 129 555 142 c 1xcfb0
 555 35 l 1
 539 12 507 0 481 0 c 0
 426 0 378 47 378 104 c 0
 378 156 424 207 478 207 c 2
 487 207 l 1
 487 445 l 2
 487 483 458 515 425 525 c 1
 356 437 l 1
 274 523 l 1xaf70
291 321 m 256
 264 321 241 298 241 268 c 256
 241 238 264 216 291 216 c 256
 318 216 342 238 342 268 c 256x9fb0
 342 295 321 321 291 321 c 256
479 160 m 2xaf70
 452 160 425 133 424 104 c 0
 425 72 451 48 487 48 c 1
 487 160 l 1
 479 160 l 2xaf70
EndSplineSet
EndChar
StartChar: uni0E13
Encoding: 3603 3603 230
Width: 857
VWidth: 1507
Flags: W
HStem: 0 44<156.648 238.797 701.11 782.031> 149 44<172.214 239.318> 537 60<197.255 408.438>
VStem: 103 43<54.9812 138.23> 103 67<188 365.744> 250 44<54.6674 139.269> 440 68<74 502.442> 638 46<63.4697 115.444> 708 68<214 597> 800 49<62.5416 149.302>
Fore
118 422 m 1xefc0
 135 408 170 378 170 311 c 2
 170 188 l 1xefc0
 180 192 187 193 199 193 c 0
 249 193 294 152 294 96 c 0
 294 49 252 0 199 0 c 0
 159 0 109 27 103 80 c 2xf7c0
 103 312 l 2
 103 351 70 388 36 392 c 1
 50 508 151 597 264 597 c 2
 356 597 l 2
 424 597 508 532 508 446 c 2
 508 74 l 1
 545 113 620 178 708 214 c 1
 708 597 l 1
 776 597 l 1
 776 205 l 1
 800 196 849 165 849 104 c 0
 849 45 796 0 743 0 c 0
 682 0 638 50 638 106 c 2
 638 116 l 1
 601 91 557 52 508 0 c 1
 440 0 l 1
 440 446 l 2
 440 493 401 537 356 537 c 2
 261 537 l 2
 198 537 135 474 118 422 c 1xefc0
199 149 m 0
 172 149 146 127 146 96 c 0xf7c0
 146 73 166 44 199 44 c 0
 230 44 250 73 250 96 c 0
 250 126 226 149 199 149 c 0
743 48 m 0
 774 48 800 77 800 106 c 0
 800 135 775 163 742 163 c 0
 710 163 684 135 684 106 c 0
 684 78 708 48 743 48 c 0
EndSplineSet
EndChar
StartChar: uni0E14
Encoding: 3604 3604 231
Width: 639
VWidth: 1507
Flags: W
HStem: 0 53<151 236.06> 136 40<276.197 317> 282 42<276.485 359.319> 537 60<239.564 453.01>
VStem: 81 70<53 442.219> 223 42<187.611 269.81> 371 39<186.539 270.076> 488 70<0 500.812>
Fore
265 229 m 0
 265 199 291 176 318 176 c 0
 350 176 371 201 371 228 c 256
 371 258 345 282 318 282 c 256
 289 282 265 255 265 229 c 0
308 537 m 2
 226 537 151 450 151 366 c 2
 151 53 l 1
 217 53 282 95 317 136 c 1
 255 136 223 181 223 229 c 256
 223 279 265 324 318 324 c 0
 362 324 410 285 410 229 c 0
 410 117 270 0 151 0 c 2
 81 0 l 1
 81 369 l 2
 81 482 190 597 311 597 c 2
 405 597 l 2
 490 597 558 523 558 443 c 2
 558 0 l 1
 488 0 l 1
 488 448 l 2
 488 487 447 537 405 537 c 2
 308 537 l 2
EndSplineSet
EndChar
StartChar: uni0E15
Encoding: 3605 3605 232
Width: 637
VWidth: 1507
Flags: W
HStem: 0 53<149 233.926> 280 43<277.312 360.15> 578 20G<236.5 309.31 398.611 445>
VStem: 81 68<53 436.783> 223 44<186.654 270.527> 371 39<188.292 268.676> 490 68<0 496.397>
Fore
415 598 m 1
 475 589 558 529 558 445 c 2
 558 0 l 1
 490 0 l 1
 490 445 l 2
 490 483 461 512 425 522 c 1
 356 434 l 1
 274 520 l 1
 204 503 149 433 149 366 c 2
 149 53 l 1
 212 53 284 92 317 133 c 1
 237 138 223 200 223 228 c 0
 223 283 268 323 318 323 c 256
 373 323 410 277 410 229 c 0
 410 108 267 -0 149 0 c 2
 81 0 l 1
 81 366 l 2
 81 472 182 597 291 597 c 1
 356 526 l 1
 415 598 l 1
318 280 m 256
 291 280 267 258 267 228 c 0
 267 202 289 176 318 176 c 256
 345 176 371 198 371 228 c 256
 371 258 345 280 318 280 c 256
EndSplineSet
EndChar
StartChar: uni0E16
Encoding: 3606 3606 233
Width: 592
VWidth: 1507
Flags: W
HStem: 0 42<160.083 242.779> 148 42<175.578 241.99> 537 60<200.255 411.438>
VStem: 106 67<187 365.744> 106 43<53.7202 135.988> 253 45<51.5291 137.044> 443 68<0 502.442>
Fore
202 148 m 256xee
 172 148 149 119 149 96 c 0
 149 66 175 42 202 42 c 256
 230 42 253 65 253 96 c 0
 253 122 231 148 202 148 c 256xee
359 597 m 2
 427 597 511 532 511 446 c 2
 511 0 l 1
 443 0 l 1
 443 446 l 2
 443 493 404 537 359 537 c 2
 264 537 l 2
 201 537 138 474 121 422 c 1
 138 408 173 378 173 311 c 2
 173 187 l 1xf6
 178 189 183 190 188 190 c 2
 202 190 l 2
 242 190 298 152 298 96 c 0
 298 41 253 0 202 0 c 0
 159 0 112 32 106 78 c 2xee
 106 312 l 2xf6
 106 351 73 388 39 392 c 1
 53 508 154 597 267 597 c 2
 359 597 l 2
EndSplineSet
EndChar
StartChar: uni0E17
Encoding: 3607 3607 234
Width: 673
VWidth: 1507
Flags: W
HStem: 0 21G<158 234.642 528 595> 409 42<92.5799 156.705> 552 42<93.2838 174.735>
VStem: 41 42<460.432 541.638> 158 68<149 413> 185 41<460.018 541.628> 528 67<0 490.632>
Fore
134 594 m 256xfa
 181 594 226 556 226 503 c 2xf6
 226 149 l 1xfa
 421 597 l 1
 512 597 595 533 595 443 c 2
 595 0 l 1
 528 0 l 1
 528 443 l 2
 528 481 491 515 452 523 c 1
 226 0 l 1xf6
 158 0 l 1
 158 413 l 1
 150 410 142 409 134 409 c 0
 86 409 41 449 41 502 c 0
 41 555 88 594 134 594 c 256xfa
185 502 m 0
 185 529 161 552 134 552 c 256
 109 552 83 531 83 502 c 256
 83 472 107 451 134 451 c 256
 164 451 185 475 185 502 c 0
EndSplineSet
EndChar
StartChar: uni0E18
Encoding: 3608 3608 235
Width: 523
VWidth: 1507
Flags: W
HStem: 0 60<167.405 342.1> 491 57<312.725 442.725> 537 60<153.337 297.756>
VStem: 56 65<454 503> 99 68<61.4685 354> 377 68<97.8923 314>
Fore
169 0 m 2xb4
 135 0 99 28 99 69 c 2
 99 354 l 1
 167 354 l 1
 167 60 l 1xac
 292 60 l 2
 341 60 377 114 377 155 c 2
 377 314 l 1
 319 345 220 383 56 410 c 1
 56 522 120 597 216 597 c 0xb4
 271 597 343 548 385 548 c 0
 422 548 461 580 479 604 c 1
 479 541 l 1
 456 508 426 491 387 491 c 0xd4
 326 491 277 537 214 537 c 0
 145 537 121 477 121 454 c 1
 221 440 327 408 445 344 c 1
 445 152 l 2
 445 72 367 -0 289 0 c 2
 169 0 l 2xb4
EndSplineSet
EndChar
StartChar: uni0E19
Encoding: 3609 3609 236
Width: 612
VWidth: 1507
Flags: W
HStem: 0 50<449.588 539.582> 413 42<93.2838 157.337> 556 41<91.9723 175.419>
VStem: 41 42<464.997 546.847> 158 70<84 416> 185 43<463.701 545.531> 390 47<61.9529 134.856> 460 69<214 597> 552 48<63.3745 152.791>
Fore
41 505 m 0xfb80
 41 560 88 597 134 597 c 256
 177 597 228 564 228 508 c 2xf780
 228 84 l 1xfb80
 263 124 352 203 460 214 c 1
 460 597 l 1
 529 597 l 1
 529 207 l 1
 557 197 600 167 600 107 c 0
 600 46 551 0 494 0 c 256
 439 0 390 46 390 107 c 0
 390 119 392 134 393 137 c 1
 355 124 314 98 228 0 c 1xf780
 158 0 l 1
 158 416 l 1
 153 414 145 413 134 413 c 0
 88 413 41 455 41 505 c 0xfb80
185 505 m 256
 185 535 161 556 134 556 c 256
 104 556 83 532 83 505 c 256
 83 476 109 455 134 455 c 0
 164 455 185 478 185 505 c 256
552 107 m 0
 552 143 527 163 494 164 c 0
 467 164 437 137 437 107 c 0
 437 77 460 50 494 50 c 0
 524 50 552 73 552 107 c 0
EndSplineSet
EndChar
StartChar: uni0E1A
Encoding: 3610 3610 237
Width: 652
VWidth: 1507
Flags: W
HStem: 0 60<231 469.259> 402 46<93.255 162.678> 552 45<95.9024 176.745>
VStem: 41 43<457.688 540.336> 163 68<60.1501 66 66 405> 188 43<457.386 541.588> 502 68<92.4447 597>
Fore
136 597 m 0xfa
 191 597 231 549 231 499 c 2
 231 60 l 1xf6
 419 60 l 2
 462 60 502 104 502 149 c 2
 502 597 l 1
 570 597 l 1
 570 145 l 2
 570 57 490 0 419 0 c 2
 226 0 l 2
 188 0 163 35 163 66 c 2
 163 405 l 1
 153 403 144 402 136 402 c 0
 80 402 41 451 41 500 c 0
 41 549 83 597 136 597 c 0xfa
188 499 m 0
 188 526 166 552 136 552 c 0
 110 552 84 528 84 499 c 256
 84 472 106 448 136 448 c 256
 162 448 188 466 188 499 c 0
EndSplineSet
EndChar
StartChar: uni0E1B
Encoding: 3611 3611 238
Width: 652
VWidth: 1507
Flags: W
HStem: 0 60<232.313 467.277> 405 44<94.6171 160.069> 555 42<94.7791 175.964>
VStem: 39 44<460.573 543.143> 163 68<60.4326 69 69 410> 187 44<458.65 543.855> 502 68<95.2728 894>
Fore
419 60 m 2xf6
 466 60 502 110 502 152 c 2
 502 894 l 1
 570 894 l 1
 570 148 l 2
 570 70 502 0 419 0 c 2
 234 0 l 2
 198 0 163 32 163 69 c 2
 163 410 l 1xfa
 154 407 145 405 136 405 c 0
 80 405 39 451 39 502 c 0
 39 554 85 597 136 597 c 256
 184 597 231 556 231 502 c 2
 231 60 l 1
 419 60 l 2xf6
83 502 m 0
 83 472 109 449 136 449 c 256
 166 449 187 475 187 502 c 256xf6
 187 529 166 555 136 555 c 0
 110 555 83 530 83 502 c 0
EndSplineSet
EndChar
StartChar: uni0E1C
Encoding: 3612 3612 239
Width: 636
VWidth: 1507
Flags: W
HStem: 0 21G<130.5 167.618 461.217 510.5> 405 44<151.926 220.815> 553 44<136.367 220.481>
VStem: 83 44<457.898 543.983> 83 68<86 409> 231 43<459.6 541.596> 488 68<99.3797 597>
Fore
274 500 m 0xf6
 274 450 229 405 178 405 c 2
 164 405 l 2
 160 405 156 406 151 409 c 1
 151 86 l 1
 314 282 l 1
 327 282 338 275 348 262 c 2
 479 90 l 1
 485 96 488 107 488 124 c 2
 488 597 l 1
 556 597 l 1
 556 113 l 2
 556 65 545 4 476 0 c 1
 323 207 l 1
 151 0 l 1
 110 0 83 38 83 77 c 2xee
 83 503 l 2
 83 556 129 597 178 597 c 256
 228 597 274 556 274 500 c 0xf6
231 500 m 256
 231 531 205 553 178 553 c 256
 150 553 127 532 127 500 c 0xf6
 127 470 151 449 178 449 c 256
 205 449 231 470 231 500 c 256
EndSplineSet
EndChar
StartChar: uni0E1D
Encoding: 3613 3613 240
Width: 639
VWidth: 1507
Flags: W
HStem: 0 21G<130 167.618 461.217 510.5> 405 44<153.768 219.927> 555 42<138.196 219.273>
VStem: 83 44<459.412 543.44> 83 68<85 410> 231 43<460.728 543.733> 488 68<99.3201 894>
Fore
274 502 m 0xf6
 274 451 231 405 179 405 c 0
 169 405 160 407 151 410 c 1
 151 85 l 1
 314 282 l 1
 327 282 338 276 348 263 c 2
 479 90 l 1
 485 96 488 107 488 123 c 2
 488 894 l 1
 556 894 l 1
 556 113 l 2
 556 64 545 4 476 0 c 1
 323 207 l 1
 151 0 l 1
 109 0 83 40 83 76 c 2xee
 83 503 l 2
 83 559 129 597 179 597 c 0
 228 597 274 556 274 502 c 0xf6
231 502 m 256
 231 531 205 555 179 555 c 0
 149 555 127 529 127 502 c 256xf6
 127 475 149 449 179 449 c 0
 205 449 231 473 231 502 c 256
EndSplineSet
EndChar
StartChar: uni0E1E
Encoding: 3614 3614 241
Width: 705
VWidth: 1507
Flags: W
HStem: -3 21G<221 247 520.196 551.5> 409 43<91.9558 159.064> 555 42<91.7469 174.764>
VStem: 39 42<463.145 544.044> 160 68<128 413> 184 44<462.293 546.043> 559 68<116.803 597>
Fore
552 112 m 1xfa
 560 120 559 131 559 143 c 2
 559 597 l 1
 627 597 l 1
 627 151 l 2
 627 63 577 8 526 -3 c 1
 396 445 l 1
 312 204 l 2
 285 128 259 60 235 0 c 1
 207 0 160 13 160 66 c 2
 160 413 l 1xfa
 151 410 142 409 133 409 c 0
 80 409 39 455 39 503 c 0
 39 559 84 597 133 597 c 256
 181 597 228 556 228 503 c 2xf6
 228 128 l 1
 392 589 l 1
 402 586 410 579 415 567 c 2
 552 112 l 1xfa
184 503 m 0xf6
 184 534 161 555 133 555 c 256
 104 555 81 529 81 503 c 0
 81 481 102 452 133 452 c 256
 162 452 184 478 184 503 c 0xf6
EndSplineSet
EndChar
StartChar: uni0E1F
Encoding: 3615 3615 242
Width: 705
VWidth: 1507
Flags: W
HStem: 0 21G<221 247 520.196 551.5> 409 43<91.9558 159.064> 555 42<91.7469 174.764>
VStem: 39 42<463.145 544.044> 160 68<128 413> 184 44<462.293 546.043> 559 68<116.803 143 143 894>
Fore
235 0 m 1xfa
 207 0 160 13 160 66 c 2
 160 413 l 1xfa
 151 410 142 409 133 409 c 0
 80 409 39 455 39 503 c 0
 39 559 84 597 133 597 c 256
 181 597 228 556 228 503 c 2xf6
 228 128 l 1
 392 589 l 1
 402 586 410 579 415 567 c 2
 552 112 l 1
 560 120 559 131 559 143 c 2
 559 894 l 1
 627 894 l 1
 627 151 l 2
 627 63 577 8 526 -3 c 1
 396 445 l 1
 312 204 l 2
 285 128 259 60 235 0 c 1xfa
184 503 m 0xf6
 184 534 161 555 133 555 c 256
 104 555 81 529 81 503 c 0
 81 481 102 452 133 452 c 256
 162 452 184 478 184 503 c 0xf6
EndSplineSet
EndChar
StartChar: uni0E20
Encoding: 3616 3616 243
Width: 613
VWidth: 1507
Flags: W
HStem: 0 44<94.2619 178.023> 148 43<94.3051 161.883> 537 60<219.364 435.016>
VStem: 41 42<54.8296 135.985> 163 68<187 351.484> 188 43<55.2656 137.588> 467 68<0 503.266>
Fore
145 427 m 1xfa
 175 415 231 367 231 312 c 2xfa
 231 90 l 2xf6
 231 41 184 0 136 0 c 0
 79 0 41 50 41 95 c 0
 41 150 87 191 136 191 c 0
 145 191 154 190 163 187 c 1
 163 311 l 2
 163 344 107 393 63 396 c 1
 76 510 176 597 291 597 c 2
 383 597 l 2
 450 597 535 534 535 446 c 2
 535 0 l 1
 467 0 l 1
 467 446 l 2
 467 493 428 537 383 537 c 2
 288 537 l 2
 218 537 163 475 145 427 c 1xfa
136 148 m 256
 108 148 84 124 83 95 c 0
 84 66 108 44 136 44 c 256
 166 44 188 68 188 95 c 256xf6
 188 122 166 148 136 148 c 256
EndSplineSet
EndChar
StartChar: uni0E21
Encoding: 3617 3617 244
Width: 624
VWidth: 1507
Flags: W
HStem: 0 45<121.329 174.663> 161 49<116.047 175 243 302.953> 412 42<109.511 173.705> 556 41<108.787 192.187>
VStem: 57 47<63.5907 148.111 462.33 547.38> 175 68<45 155 210 416> 202 41<463.018 545.42> 478 68<77 597>
Fore
151 597 m 0xfd
 194 597 243 559 243 508 c 2
 243 205 l 1xfb
 354 176 432 133 478 77 c 1
 478 597 l 1
 546 597 l 1
 546 0 l 1
 478 0 l 1
 465 19 397 119 243 155 c 1
 243 45 l 1
 223 10 207 0 163 0 c 0
 109 0 57 47 57 106 c 256
 57 165 110 210 163 210 c 2
 175 210 l 1
 175 416 l 1
 167 413 159 412 151 412 c 0
 98 412 57 458 57 505 c 0
 57 555 97 597 151 597 c 0xfd
163 161 m 2
 126 161 104 133 104 106 c 0
 104 69 142 45 175 45 c 1
 175 161 l 1xfd
 163 161 l 2
151 454 m 256
 181 454 202 478 202 505 c 256xfb
 202 535 178 556 151 556 c 256
 121 556 99 532 99 505 c 0
 99 479 122 454 151 454 c 256
EndSplineSet
EndChar
StartChar: uni0E22
Encoding: 3618 3618 245
Width: 634
VWidth: 1507
Flags: W
HStem: 0 60<167.445 458.287> 247 54<269.77 301> 407 42<193.062 274.804> 555 42<193.724 275.934>
VStem: 84 64<350.623 450.353> 99 68<60.8093 68 68 146.736> 286 44<459.561 545.196> 488 68<88.5938 597>
Fore
409 60 m 2xf7
 453 60 488 104 488 143 c 2
 488 597 l 1
 556 597 l 1
 556 143 l 2
 556 67 493 0 404 0 c 2
 175 0 l 2
 134 0 104 29 99 68 c 2
 99 110 l 2xf7
 99 173 124 250 178 271 c 1
 118 289 84 349 84 425 c 0
 84 495 131 597 222 597 c 2
 234 597 l 2
 283 597 330 554 330 502 c 0
 330 447 284 407 234 407 c 0
 196 407 166 427 149 452 c 1
 148 447 148 440 148 430 c 0xfb
 148 365 163 330 262 306 c 0
 276 303 289 301 301 301 c 1
 301 247 l 1
 278 247 256 243 234 234 c 0
 174 212 167 138 167 110 c 2
 167 60 l 1
 409 60 l 2xf7
286 502 m 256
 286 529 267 555 234 555 c 256
 201 555 182 529 182 502 c 256
 182 475 204 449 234 449 c 256
 264 449 286 475 286 502 c 256
EndSplineSet
EndChar
StartChar: uni0E23
Encoding: 3619 3619 246
Width: 538
VWidth: 1507
Flags: W
HStem: 0 42<288.168 370.975> 145 42<289.158 353.145> 488 60<315.367 454.515> 534 61<144.773 297.738>
VStem: 39 67<445 496.451> 235 44<51.3805 134.496> 354 68<185 311> 381 41<52.1421 136.043>
Fore
235 93 m 0xdd
 235 141 283 187 330 187 c 2
 341 187 l 2
 345 187 349 186 354 185 c 1
 354 311 l 1
 298 342 200 379 39 405 c 1
 39 552 142 595 213 595 c 0xde
 273 595 350 548 392 548 c 0
 418 548 451 559 493 603 c 1
 493 540 l 1
 473 517 439 488 395 488 c 0xee
 320 494 267 534 208 534 c 0
 165 534 106 498 106 445 c 1
 215 430 321 394 422 338 c 1
 422 93 l 2
 422 45 383 0 330 0 c 256
 277 0 235 45 235 93 c 0xdd
330 145 m 0
 307 145 279 125 279 93 c 0
 279 62 302 42 330 42 c 256
 358 42 380 64 381 93 c 0xcd
 381 124 358 145 330 145 c 0
EndSplineSet
EndChar
StartChar: uni0E24
Encoding: 3620 3620 247
Width: 592
VWidth: 1507
Flags: W
HStem: 0 44<157.943 243.408> 146 45<175.347 243.482> 537 60<200.33 412.43>
VStem: 107 68<188 366.276> 107 42<53.5781 135.986> 253 44<53.9544 135.928> 445 68<-249 502.442>
Fore
200 0 m 0xf6
 158 0 107 37 107 90 c 2xee
 107 312 l 2
 107 351 76 388 41 392 c 1
 51 500 150 597 268 597 c 2
 360 597 l 2
 428 597 513 532 513 446 c 2
 513 -249 l 1
 445 -249 l 1
 445 446 l 2
 445 495 403 537 360 537 c 2
 265 537 l 2
 207 537 145 482 122 422 c 1
 154 397 175 363 175 312 c 2
 175 188 l 1
 183 191 188 191 196 191 c 0
 245 191 297 155 297 95 c 0
 297 44 256 0 200 0 c 0xf6
200 146 m 256
 171 146 149 121 149 95 c 0
 149 65 173 44 200 44 c 256
 231 44 253 67 253 95 c 256
 253 123 231 146 200 146 c 256
EndSplineSet
EndChar
StartChar: uni0E25
Encoding: 3621 3621 248
Width: 601
VWidth: 1507
Flags: W
HStem: 0 44<136.591 220.884> 149 44<156.667 221.078> 323 67<231.234 370.468> 537 60<203.135 417.664>
VStem: 47 69<368 444.173> 81 46<54.0471 115.166> 231 43<54.8572 138.911> 451 69<0 238.649 308 503.766>
Fore
369 597 m 2xfb
 453 597 520 528 520 445 c 2
 520 0 l 1
 451 0 l 1
 451 178 l 2
 445 253 372 323 303 323 c 256
 241 323 166 270 154 188 c 1
 163 191 171 193 179 193 c 0
 228 193 274 151 274 96 c 256
 274 41 228 0 179 0 c 0
 109 0 81 67 81 110 c 2
 81 136 l 2xf7
 81 260 129 305 151 324 c 0
 186 358 238 390 304 390 c 0
 349 390 395 375 452 308 c 1
 452 445 l 2
 452 481 421 537 369 537 c 2
 273 537 l 2
 202 537 122 468 116 368 c 1
 47 368 l 1
 47 478 139 597 273 597 c 2
 369 597 l 2xfb
176 149 m 0
 137 149 127 114 127 96 c 0
 127 68 148 44 179 44 c 0
 209 44 231 69 231 96 c 256
 231 125 211 149 176 149 c 0
EndSplineSet
EndChar
StartChar: uni0E26
Encoding: 3622 3622 249
Width: 618
VWidth: 1507
Flags: W
HStem: 0 45<95.7692 179.826> 148 43<95.8117 165.544> 537 60<222.364 438.016>
VStem: 42 44<55.2859 137.329> 166 68<188 351.484> 190 44<56.5312 139.043> 470 68<-249 503.266>
Fore
386 597 m 2xfa
 453 597 538 534 538 446 c 2
 538 -249 l 1
 470 -249 l 1
 470 446 l 2
 470 493 431 537 386 537 c 2
 291 537 l 2
 221 537 166 475 148 427 c 1
 178 415 234 367 234 312 c 2xfa
 234 92 l 2xf6
 230 42 187 0 139 0 c 0
 83 0 42 45 42 96 c 256
 42 153 88 191 139 191 c 0
 151 191 160 190 166 188 c 1
 166 311 l 2
 166 344 110 393 66 396 c 1
 79 510 179 597 294 597 c 2
 386 597 l 2xfa
139 148 m 256
 112 148 86 127 86 96 c 256
 86 66 112 45 139 45 c 256
 168 45 190 71 190 96 c 0xf6
 190 127 167 148 139 148 c 256
EndSplineSet
EndChar
StartChar: uni0E27
Encoding: 3623 3623 250
Width: 523
VWidth: 1507
Flags: W
HStem: 0 44<305.393 390.536> 148 43<308.036 373.893> 537 58<186.331 348.262>
VStem: 38 65<442 513.459> 253 44<52.5886 137.699> 375 68<187 509.922> 401 42<55.2452 136.921>
Fore
253 95 m 256xfa
 253 149 300 191 348 191 c 0
 357 191 366 190 375 187 c 1
 375 454 l 2
 375 481 354 532 309 537 c 2
 246 537 l 2
 221 535 146 514 103 419 c 1
 38 442 l 1
 61 514 143 595 246 595 c 2
 309 595 l 2
 366 593 443 535 443 454 c 2xfc
 443 95 l 2
 443 41 397 0 348 0 c 0
 293 0 253 45 253 95 c 256xfa
401 95 m 256xfa
 401 125 375 148 348 148 c 256
 318 148 297 122 297 95 c 0
 297 63 320 44 348 44 c 0
 375 44 401 65 401 95 c 256xfa
EndSplineSet
EndChar
StartChar: uni0E28
Encoding: 3624 3624 251
Width: 634
VWidth: 1507
Flags: W
HStem: 0 21G<80 174.193 488 556> 202 44<280.166 355.549> 537 60<238.713 424.916>
VStem: 80 68<110 440.966> 366 44<256.351 339.233> 488 68<0 453.5 453.5 459.741> 496 65<642.252 684>
Fore
80 372 m 2xfc
 80 488 192 597 308 597 c 2
 404 597 l 2
 419 597 436 596 478 579 c 1
 487 610 496 646 496 684 c 1
 561 684 l 1xfa
 561 639 553 590 529 535 c 1
 547 509 556 479 556 446 c 2
 556 0 l 1
 488 0 l 1
 488 446 l 2
 488 452 487 455 487 461 c 1
 457 420 421 388 380 366 c 1
 400 346 410 323 410 297 c 256
 410 242 365 202 315 202 c 0
 290 202 268 211 249 228 c 1
 167 0 l 1
 80 0 l 1
 80 372 l 2xfc
308 537 m 2
 223 537 156 452 148 372 c 2
 148 110 l 1
 223 326 l 2
 235 359 266 386 304 390 c 1
 372 408 423 470 451 519 c 1
 436 531 420 537 404 537 c 2
 308 537 l 2
315 348 m 256
 288 348 262 327 262 297 c 0
 262 266 286 246 315 246 c 0
 341 246 366 268 366 297 c 0
 366 328 343 348 315 348 c 256
EndSplineSet
EndChar
StartChar: uni0E29
Encoding: 3625 3625 252
Width: 666
VWidth: 1507
Flags: W
HStem: 0 60<231 465.009> 234 46<330.813 402.846 439 500> 384 41<327.094 406.068> 405 44<92.8075 160.455> 555 42<94.1402 177.018>
VStem: 39 44<459.053 544.047> 163 68<60.1338 69 69 410> 187 44<459.87 544.21> 276 41<293.126 374.502> 415 40<300.315 374.368> 500 68<95.7216 234 303 597>
Fore
137 597 m 0xdee0
 191 597 231 549 231 500 c 2
 231 60 l 1
 418 60 l 2
 461 60 500 108 500 152 c 2
 500 234 l 1
 413 234 l 2
 343 234 276 261 276 335 c 0
 276 381 318 425 365 425 c 0
 414 425 455 380 455 335 c 0
 455 312 450 294 439 280 c 1
 500 280 l 1
 500 597 l 1
 568 597 l 1
 568 303 l 1
 593 317 619 347 632 384 c 1
 678 384 l 1xede0
 650 293 600 264 568 252 c 1
 568 149 l 2
 568 70 498 0 418 0 c 2
 228 0 l 2
 191 0 163 38 163 69 c 2
 163 410 l 1
 154 407 145 405 136 405 c 0
 80 405 39 451 39 502 c 256
 39 557 87 597 137 597 c 0xdee0
136 555 m 0
 106 555 83 529 83 502 c 256
 83 474 104 449 136 449 c 0xdde0
 163 449 187 476 187 505 c 256
 187 534 161 555 136 555 c 0
365 384 m 0xece0
 342 384 317 361 317 335 c 0
 317 309 336 285 365 285 c 0
 395 285 415 308 415 335 c 256
 415 364 390 384 365 384 c 0xece0
EndSplineSet
EndChar
StartChar: uni0E2A
Encoding: 3626 3626 253
Width: 649
VWidth: 1507
Flags: MW
HStem: -2 44<183.098 263.755> 146 44<197.592 264.623> 320 67<311 345> 537 60<247.353 436.426>
VStem: 90 70<366 445.984> 127 43<55.8238 136.265> 274 44<50.6943 135.874> 497 70<0 240.266 324 452.431 452.431 459.85> 506 65<639.075 684>
Fore
222 -2 m 0xd3
 171 -2 127 45 127 93 c 2
 127 169 l 2xd7
 127 272 210 369 311 387 c 0
 375 405 429 462 461 519 c 1
 447 531 432 537 416 537 c 2
 317 537 l 2
 242 537 160 457 160 366 c 1
 90 366 l 1
 90 484 194 597 320 597 c 2
 416 597 l 2
 444 597 468 588 488 579 c 1
 504 629 506 663 506 684 c 1
 571 684 l 1xda80
 571 633 560 583 538 534 c 1
 557 507 567 477 567 445 c 2
 567 0 l 1
 497 0 l 1
 497 176 l 2
 485 275 404 320 345 320 c 0
 277 320 205 248 197 187 c 1
 206 189 214 190 222 190 c 0
 277 190 318 145 318 96 c 0
 318 42 274 -2 222 -2 c 0xd3
222 146 m 256
 192 146 170 122 170 95 c 0
 170 63 203 42 228 42 c 0
 256 42 274 70 274 95 c 0
 274 122 252 146 222 146 c 256
497 445 m 2
 497 451 496 451 496 460 c 1
 473 428 446 401 415 378 c 1
 448 367 475 349 497 324 c 1
 497 445 l 2
EndSplineSet
EndChar
StartChar: uni0E2B
Encoding: 3627 3627 254
Width: 673
VWidth: 1507
Flags: W
HStem: 0 21G<160 285 526 594> 409 43<92.3893 159.374> 553 42<94.0389 174.368 475.407 560.482>
VStem: 42 42<461.362 543.015> 160 68<134 412> 185 43<460.701 542.404> 424 42<468.76 543.604> 526 68<0 363> 570 44<460.54 542.182>
Fore
614 503 m 0xfa80
 614 462 590 434 562 418 c 1
 581 407 590 380 594 363 c 1
 594 0 l 1
 526 0 l 1
 526 371 l 1
 479 343 342 196 228 0 c 1xf7
 160 0 l 1
 160 412 l 1xfa
 152 410 145 409 139 409 c 0
 90 409 42 447 42 502 c 0
 42 555 87 595 134 595 c 0
 179 595 228 551 228 505 c 2xf6
 228 134 l 1
 280 211 l 2
 314 261 394 369 473 419 c 1
 429 441 424 484 424 503 c 0
 424 559 468 597 519 597 c 0
 567 597 614 554 614 503 c 0xfa80
134 452 m 256
 164 452 185 475 185 502 c 256
 185 531 160 553 134 553 c 0
 113 553 84 533 84 502 c 256
 84 472 107 452 134 452 c 256
466 503 m 256
 466 475 488 451 519 451 c 256
 546 451 570 473 570 503 c 0xf280
 570 533 542 553 519 553 c 0
 490 553 466 533 466 503 c 256
EndSplineSet
EndChar
StartChar: uni0E2C
Encoding: 3628 3628 255
Width: 714
VWidth: 1507
Flags: W
HStem: -3 21G<228.5 279 527.995 566.5> 409 43<99.7847 166.064> 555 42<99.3812 181.832> 641 43<483.739 559.519> 788 43<483.647 566.61>
VStem: 47 42<463.059 544.873> 167 68<143 413> 191 44<462.293 544.51> 430 43<694.826 776.745> 567 68<133.443 650>
Fore
529 831 m 0xfec0
 578 831 621 791 629 743 c 1
 645 759 658 782 669 811 c 1
 718 811 l 1
 697 761 670 718 635 681 c 1
 635 151 l 2
 635 87 599 11 534 -3 c 1
 404 430 l 1
 360 308 315 180 243 0 c 1
 214 0 167 13 167 66 c 2
 167 413 l 1xfec0
 158 410 149 409 140 409 c 0
 89 409 47 454 47 503 c 0
 47 558 92 597 140 597 c 256
 193 597 235 552 235 503 c 2xfdc0
 235 143 l 1
 399 589 l 1
 410 586 417 579 422 567 c 2
 559 127 l 1
 563 131 567 136 567 158 c 2
 567 650 l 1
 560 646 551 641 526 641 c 0
 477 641 430 679 430 736 c 256
 430 791 479 831 529 831 c 0xfec0
577 736 m 256
 577 765 552 788 526 788 c 0
 499 788 473 766 473 736 c 256
 473 706 499 684 526 684 c 0
 552 684 577 707 577 736 c 256
191 503 m 0xfdc0
 191 534 168 555 140 555 c 256
 111 555 89 529 89 503 c 0
 89 482 109 452 140 452 c 256
 169 452 191 478 191 503 c 0xfdc0
EndSplineSet
Substitution2: "Single Substitution lookup 22 subtable" uni0E2C.alt1
Substitution2: "Single Substitution lookup 22 subtable" uni0E2C.alt1
EndChar
StartChar: uni0E2D
Encoding: 3629 3629 256
Width: 590
VWidth: 1507
Flags: MW
HStem: 0 60<173 415.022> 205 42<173.878 240.033> 348 42<158.298 240.2> 537 60<200.586 412.32>
VStem: 106 42<255.701 338.113> 106 67<60.0475 68 68 207> 250 42<255.808 338.568> 443 68<89.23 504.379>
Fore
44 422 m 1
 72 523 164 597 265 597 c 2
 360 597 l 2
 436 597 511 536 511 454 c 2
 511 145 l 2
 511 74 444 0 366 0 c 2
 169 0 l 2
 131 0 106 34 106 68 c 2
 106 297 l 2
 106 351 152 390 199 390 c 256
 246 390 292 350 292 297 c 256
 292 248 252 205 199 205 c 2
 186 205 l 2
 181 205 177 206 173 207 c 1
 173 60 l 1
 366 60 l 2
 410 60 443 106 443 143 c 2
 443 451 l 2
 443 497 401 537 360 537 c 2
 265 537 l 2
 195 537 135 466 118 422 c 1
 44 422 l 1
250 297 m 256
 250 327 226 348 199 348 c 0
 173 348 148 326 148 297 c 256
 148 270 169 247 199 247 c 256
 229 247 250 270 250 297 c 256
EndSplineSet
EndChar
StartChar: uni0E2E
Encoding: 3630 3630 257
Width: 581
VWidth: 1507
Flags: W
HStem: 0 60<166 408.117> 142 42<166.276 232.043> 286 43<149.74 230.703> 347 57<147.424 289.39> 535 60<158.348 369.303>
VStem: 63 67<422.343 509.105> 98 42<192.898 276.226> 98 68<61.6462 65 65 145> 241 42<193.021 275.948> 425 60<587.942 651> 434 68<85.7083 453.786>
Fore
350 595 m 2xfca0
 377 595 398 591 416 580 c 1
 420 605 423 628 425 651 c 1
 485 651 l 1xfcc0
 482 614 476 577 467 541 c 1
 489 514 502 482 502 443 c 2
 502 146 l 2
 502 72 438 0 359 0 c 2
 164 0 l 2
 131 0 98 29 98 65 c 2xf9a0
 98 235 l 2xfa80
 98 288 144 329 191 329 c 0
 244 329 283 282 283 235 c 0
 283 182 239 142 191 142 c 0
 180 142 175 142 166 145 c 1
 166 60 l 1xf980
 360 60 l 2
 413 60 434 116 434 151 c 2
 434 454 l 1
 355 349 252 347 213 347 c 0
 151 347 63 376 63 452 c 256
 63 526 132 595 205 595 c 2
 350 595 l 2xfca0
404 508 m 1
 393 527 366 534 350 535 c 2
 208 535 l 2
 162 534 130 493 130 460 c 0
 130 442 148 404 214 404 c 0
 299 404 363 439 404 508 c 1
241 235 m 0
 241 262 218 286 191 286 c 0
 161 286 140 262 140 235 c 256xfa80
 140 205 164 184 191 184 c 256
 221 184 241 207 241 235 c 0
EndSplineSet
EndChar
StartChar: uni0E2F
Encoding: 3631 3631 258
Width: 574
VWidth: 1507
Flags: W
HStem: 0 69<341 395.5> 366 55<201.831 223 212.416 329.681> 546 45<97.7329 181.175>
VStem: 42 44<451.106 534.682> 193 42<451.161 534.942> 422 71<96.317 452 515.274 597>
Fore
422 452 m 1
 383 405 325 370 250 366 c 0
 222 366 128 360 69 421 c 0
 51 440 42 464 42 493 c 0
 42 545 87 591 140 591 c 256
 191 591 235 550 235 494 c 0
 235 461 223 437 200 421 c 1
 218 421 228 419 246 419 c 0
 351 419 421 505 422 598 c 1
 449 598 l 2
 467 598 482 598 493 597 c 1
 493 154 l 2
 493 66 425 -0 341 0 c 1
 339 69 l 1
 379 69 422 96 422 154 c 2
 422 452 l 1
193 493 m 256
 193 523 167 546 140 546 c 256
 110 546 86 520 86 493 c 256
 86 466 109 440 140 440 c 0
 170 440 193 466 193 493 c 256
EndSplineSet
EndChar
StartChar: uni0E30
Encoding: 3632 3632 259
Width: 538
VWidth: 1507
Flags: W
HStem: 51 53<211.968 340.284> 234 43<108.158 189.785> 321 53<211.968 334.255> 503 44<107.754 191.228>
VStem: 51 45<138.031 221.564 407.723 491.41> 202 44<138.356 221.771 408.242 491.462> 434 54<200.321 285 475.01 555>
Fore
149 547 m 0
 198 547 246 505 246 451 c 0
 246 418 234 393 210 375 c 1
 216 374 222 374 227 374 c 2
 244 374 l 2
 360 374 428 456 434 555 c 1
 488 555 l 1
 488 413 370 321 244 321 c 0
 100 321 51 399 51 451 c 0
 51 506 99 547 149 547 c 0
202 451 m 256
 202 480 175 503 149 503 c 0
 122 503 96 479 96 448 c 0
 96 418 122 396 149 396 c 256
 178 396 202 424 202 451 c 256
149 277 m 0
 198 277 246 235 246 181 c 0
 246 149 234 124 210 106 c 1
 216 105 222 104 227 104 c 2
 244 104 l 2
 308 104 422 129 434 285 c 1
 488 285 l 1
 488 144 370 51 244 51 c 0
 100 51 51 129 51 181 c 0
 51 236 99 277 149 277 c 0
202 181 m 256
 202 210 175 234 149 234 c 0
 122 234 96 208 96 178 c 0
 96 148 122 127 149 127 c 256
 176 127 202 151 202 181 c 256
EndSplineSet
EndChar
StartChar: uni0E31
Encoding: 3633 3633 260
Width: 0
VWidth: 1507
Flags: W
HStem: 693 55<-193.719 -67.8318> 870 42<-295.388 -214.391>
VStem: -347 44<775.634 862.832> -205 44<776.751 860.786> 27 54<841.958 926>
Fore
-255 912 m 0
 -205 912 -161 873 -161 819 c 0
 -161 788 -172 764 -194 749 c 1
 -188 748 -182 748 -176 748 c 2
 -155 748 l 2
 -27 752 22 836 27 926 c 1
 81 926 l 1
 81 786 -34 693 -170 693 c 0
 -269 693 -347 743 -347 819 c 0
 -347 873 -306 912 -255 912 c 0
-205 819 m 0
 -205 849 -228 870 -255 870 c 256
 -283 870 -303 852 -303 819 c 0
 -303 793 -285 767 -255 767 c 256
 -226 767 -205 793 -205 819 c 0
EndSplineSet
Substitution2: "Single Substitution lookup 22 subtable" uni0E31.alt1
Substitution2: "Single Substitution lookup 22 subtable" uni0E31.alt1
EndChar
StartChar: uni0E32
Encoding: 3634 3634 261
Width: 526
VWidth: 1507
Flags: W
HStem: 0 21G<374 445> 529 68<173.451 344.385>
VStem: 36 63<443 513.513> 374 71<0 499.969>
Fore
294 597 m 2
 383 597 443 526 443 446 c 2
 445 0 l 1
 374 0 l 1
 374 446 l 2
 374 496 333 525 294 529 c 2
 244 529 l 2
 153 523 115 453 99 421 c 1
 36 443 l 1
 58 510 133 593 247 597 c 2
 294 597 l 2
EndSplineSet
EndChar
StartChar: uni0E34
Encoding: 3636 3636 263
Width: 0
VWidth: 1507
Flags: MW
HStem: 740 54<-458 -377.01> 874 52<-394.853 -238.829>
Fore
-537 740 m 1
 -509 838 -434 926 -303 926 c 0
 -214 926 -113 842 -80 686 c 1
 -287 741 -407 740 -537 740 c 1
-163 763 m 1
 -175 811 -243 874 -303 874 c 0
 -365 874 -432 845 -458 794 c 1
 -399 794 -277 791 -163 763 c 1
EndSplineSet
Substitution2: "Single Substitution lookup 22 subtable" uni0E34.alt1
Substitution2: "Single Substitution lookup 22 subtable" uni0E34.alt1
EndChar
StartChar: uni0E35
Encoding: 3637 3637 264
Width: 0
VWidth: 1507
Flags: W
HStem: 740 54<-458 -377.01> 874 52<-394.853 -237.701>
VStem: -140 60<809 927>
Fore
-163 763 m 1
 -175 811 -243 874 -303 874 c 0
 -365 874 -432 845 -458 794 c 1
 -399 794 -277 791 -163 763 c 1
-303 926 m 0
 -216 926 -140 843 -140 809 c 1
 -140 927 l 1
 -80 927 l 1
 -80 686 l 1
 -287 741 -407 740 -537 740 c 1
 -509 838 -434 926 -303 926 c 0
EndSplineSet
Substitution2: "Single Substitution lookup 22 subtable" uni0E35.alt1
Substitution2: "Single Substitution lookup 22 subtable" uni0E35.alt1
EndChar
StartChar: uni0E36
Encoding: 3638 3638 265
Width: 0
VWidth: 1507
Flags: W
HStem: 740 54<-458 -377.01> 874 52<-394.853 -254.098> 932 40<-165.552 -84.2909>
VStem: -75 40<839.211 922.674>
Fore
-125 972 m 0
 -80 972 -35 937 -35 880 c 0
 -35 840 -63 792 -115 788 c 1
 -99 757 -88 723 -80 686 c 1
 -287 741 -407 740 -537 740 c 1
 -509 838 -434 926 -303 926 c 0
 -272 926 -242 917 -214 900 c 1
 -206 933 -178 972 -125 972 c 0
-176 880 m 0
 -176 875 -175 873 -175 868 c 1
 -157 850 -153 847 -143 832 c 1
 -135 830 -129 829 -125 829 c 0
 -96 829 -75 855 -75 880 c 0
 -75 910 -98 932 -125 932 c 256
 -154 932 -176 906 -176 880 c 0
-163 763 m 1
 -175 811 -243 874 -303 874 c 0
 -365 874 -432 845 -458 794 c 1
 -399 794 -277 791 -163 763 c 1
EndSplineSet
Substitution2: "Single Substitution lookup 22 subtable" uni0E36.alt1
Substitution2: "Single Substitution lookup 22 subtable" uni0E36.alt1
EndChar
StartChar: uni0E37
Encoding: 3639 3639 266
Width: 0
VWidth: 1507
Flags: W
HStem: 740 54<-458 -377.01> 874 52<-394.853 -258.995>
VStem: -249 61<915 957> -140 60<809 957>
Fore
-303 926 m 0
 -281 926 -259 922 -249 915 c 1
 -249 957 l 1
 -188 957 l 1
 -188 880 l 1
 -167 867 -143 833 -140 809 c 1
 -140 957 l 1
 -80 957 l 1
 -80 686 l 1
 -287 741 -407 740 -537 740 c 1
 -509 838 -434 926 -303 926 c 0
-163 763 m 1
 -175 811 -243 874 -303 874 c 0
 -365 874 -432 845 -458 794 c 1
 -399 794 -277 791 -163 763 c 1
EndSplineSet
Substitution2: "Single Substitution lookup 22 subtable" uni0E37.alt1
Substitution2: "Single Substitution lookup 22 subtable" uni0E37.alt1
EndChar
StartChar: uni0E38
Encoding: 3640 3640 267
Width: 0
VWidth: 1507
Flags: W
HStem: -217 39<-205.176 -143.424> -81 39<-205.467 -128.648>
VStem: -255 41<-170.514 -89.5735> -143 68<-297 -214> -119 44<-170.467 -90.9833>
Fore
-167 -42 m 0xf0
 -126 -44 -75 -76 -75 -128 c 2xe8
 -75 -297 l 1
 -143 -297 l 1
 -143 -214 l 1
 -148 -216 -156 -217 -167 -217 c 0
 -214 -217 -255 -176 -255 -130 c 256
 -255 -81 -212 -42 -167 -42 c 0xf0
-119 -130 m 256
 -119 -103 -143 -81 -167 -81 c 256
 -191 -81 -214 -103 -214 -130 c 0
 -214 -154 -195 -178 -167 -178 c 0
 -137 -178 -119 -154 -119 -130 c 256
EndSplineSet
Substitution2: "Single Substitution lookup 21 subtable" a
Substitution2: "Single Substitution lookup 22 subtable" uni0E38.alt1
Substitution2: "Single Substitution lookup 21 subtable" a
Substitution2: "Single Substitution lookup 22 subtable" uni0E38.alt1
EndChar
StartChar: uni0E39
Encoding: 3641 3641 268
Width: 0
VWidth: 1507
Flags: W
HStem: -301 60<-202 -146> -210 38<-329.737 -270.889> -81 37<-329.356 -252.922>
VStem: -374 38<-166.173 -87.6496> -270 68<-241 -207> -246 44<-165.444 -87.875> -146 68<-241 -44>
Fore
-291 -44 m 0xfa
 -256 -44 -202 -67 -202 -125 c 2xf6
 -202 -241 l 1
 -146 -241 l 1
 -146 -44 l 1
 -78 -44 l 1
 -78 -241 l 2
 -79 -281 -102 -301 -146 -301 c 2
 -270 -301 l 1
 -270 -207 l 1
 -274 -209 -278 -210 -281 -210 c 2
 -291 -210 l 2
 -339 -210 -374 -171 -374 -127 c 0
 -374 -79 -334 -44 -291 -44 c 0xfa
-291 -172 m 0
 -267 -172 -246 -154 -246 -127 c 0
 -246 -104 -263 -81 -291 -81 c 0
 -320 -81 -336 -104 -336 -127 c 256
 -336 -152 -320 -172 -291 -172 c 0
EndSplineSet
Substitution2: "Single Substitution lookup 21 subtable" b
Substitution2: "Single Substitution lookup 22 subtable" uni0E39.alt1
Substitution2: "Single Substitution lookup 21 subtable" b
Substitution2: "Single Substitution lookup 22 subtable" uni0E39.alt1
EndChar
StartChar: uni0E3A
Encoding: 3642 3642 269
Width: 0
VWidth: 1507
Flags: W
HStem: -172 106<-177.164 -95.0792>
VStem: -190 106<-159.686 -77.1969>
Fore
-190 -119 m 0
 -190 -89 -164 -66 -137 -66 c 256
 -107 -66 -84 -92 -84 -119 c 0
 -84 -145 -107 -172 -137 -172 c 0
 -168 -172 -190 -140 -190 -119 c 0
EndSplineSet
Substitution2: "Single Substitution lookup 21 subtable" c
Substitution2: "Single Substitution lookup 22 subtable" uni0E3A.alt1
Substitution2: "Single Substitution lookup 21 subtable" c
Substitution2: "Single Substitution lookup 22 subtable" uni0E3A.alt1
EndChar
StartChar: uni0E3F
Encoding: 3647 3647 270
Width: 595
VWidth: 1507
Flags: W
HStem: 0 60<139 232 295 416> 344 60<139 232 295 353.926> 656 60<139 232 295 350.911>
VStem: 71 68<60 344 404 656> 232 63<-80 0 60 344 404 656 716 791> 405 71<475.247 596.498> 476 71<127.156 276.515>
Fore
547 203 m 0
 547 96 460 0 363 0 c 2
 295 0 l 1
 295 -80 l 1
 232 -80 l 1
 232 0 l 1
 71 0 l 1
 71 716 l 1
 232 716 l 1
 232 791 l 1
 295 791 l 1
 295 716 l 1
 390 716 476 629 476 528 c 0
 476 502 474 457 419 396 c 1
 477 374 547 301 547 203 c 0
476 203 m 256
 476 265 424 344 363 344 c 2
 295 344 l 1
 295 60 l 1
 363 60 l 2
 431 60 476 149 476 203 c 256
139 60 m 1
 232 60 l 1
 232 344 l 1
 139 344 l 1
 139 60 l 1
139 404 m 1
 232 404 l 1
 232 656 l 1
 139 656 l 1
 139 404 l 1
295 404 m 1
 360 405 405 468 405 528 c 0
 405 574 369 650 295 656 c 1
 295 404 l 1
EndSplineSet
EndChar
StartChar: uni0E40
Encoding: 3648 3648 271
Width: 325
VWidth: 1507
Flags: W
HStem: -2 44<158.564 239.771> 148 40<172.8 185.454 179.127 241.143> 577 20G<104 172>
VStem: 104 68<188 597> 104 44<52.4132 138.35> 252 43<54.215 137.148>
Fore
199 -2 m 256xf4
 144 -2 104 45 104 95 c 2xec
 104 597 l 1
 172 597 l 1
 172 188 l 1
 183 188 186 191 199 191 c 0
 254 191 295 145 295 95 c 0
 295 46 253 -2 199 -2 c 256xf4
199 148 m 256
 169 148 148 122 148 95 c 256
 148 68 169 42 199 42 c 256
 228 42 252 69 252 95 c 0
 252 125 226 148 199 148 c 256
EndSplineSet
EndChar
StartChar: uni0E42
Encoding: 3650 3650 273
Width: 370
VWidth: 1507
Flags: W
HStem: -2 44<203.564 285.708> 148 40<217.8 230.431 224.115 286.195> 956 57<105.454 225.96> 1001 54<-29.1951 100.486>
VStem: -116 60<926 973.604> 149 44<52.4132 138.35> 149 68<188 793> 297 44<53.7791 137.202>
Fore
187 1013 m 0xeb
 205 1013 229 1017 276 1064 c 1
 276 1001 l 1xdb
 250 971 220 956 187 956 c 0xeb
 134 956 70 1001 28 1001 c 0
 -9 1001 -56 971 -56 926 c 1
 41 911 132 876 217 823 c 1
 217 188 l 1xdb
 228 188 230 191 244 191 c 0
 294 191 341 150 341 95 c 0
 341 44 297 -2 244 -2 c 256
 189 -2 149 45 149 95 c 2xdd
 149 793 l 1
 84 833 -5 862 -116 880 c 1
 -116 967 -86 1055 33 1055 c 0xdb
 86 1051 133 1013 187 1013 c 0xeb
244 148 m 256
 214 148 193 122 193 95 c 256xcd
 193 68 214 42 244 42 c 256
 273 42 297 69 297 95 c 0
 297 125 271 148 244 148 c 256
EndSplineSet
EndChar
StartChar: uni0E43
Encoding: 3651 3651 274
Width: 372
VWidth: 1507
Flags: W
HStem: -2 44<205.255 286.462> 148 40<219.547 232.431 225.989 286.832> 772 47<-53.4884 33.0382> 938 46<-43.2947 34.525> 1022 53<-7.65095 98.6075>
VStem: -124 56<833.412 923.541> 48 50<832.86 924.876> 151 43<52.4132 137.588> 151 68<188 959.828> 298 44<52.7721 137.481>
Fore
41 1075 m 0xfec0
 148 1075 219 989 219 888 c 2
 219 188 l 1xfec0
 230 188 232 191 246 191 c 0
 301 191 342 145 342 95 c 0
 342 46 300 -2 246 -2 c 256
 191 -2 151 45 151 95 c 2xff40
 151 886 l 2
 148 915 129 1022 41 1022 c 0
 31 1022 -28 1020 -50 977 c 1
 -35 984 -12 984 -8 984 c 0
 46 984 98 937 98 879 c 0
 98 820 43 772 -8 772 c 0
 -78 772 -124 833 -124 903 c 0
 -124 992 -51 1075 41 1075 c 0xfec0
246 148 m 256
 216 148 194 122 194 95 c 256xff40
 194 68 216 42 246 42 c 256
 275 42 298 69 298 95 c 0
 298 122 276 148 246 148 c 256
-8 938 m 0
 -42 938 -68 908 -68 879 c 0
 -68 848 -43 819 -8 819 c 0
 21 819 48 847 48 879 c 256
 48 908 26 938 -8 938 c 0
EndSplineSet
EndChar
StartChar: uni0E44
Encoding: 3652 3652 275
Width: 372
VWidth: 1507
Flags: W
HStem: -2 44<205.255 286.462> 148 40<219.547 232.431 225.989 286.832>
VStem: 151 43<52.4132 137.588> 151 68<188 978> 298 44<52.7721 137.481>
Fore
151 1066 m 1xd8
 188 1066 219 1037 219 996 c 2
 219 188 l 1xd8
 230 188 232 191 246 191 c 0
 301 191 342 145 342 95 c 0
 342 46 300 -2 246 -2 c 256
 191 -2 151 45 151 95 c 2xe8
 151 978 l 1
 26 778 l 1
 11 778 -2 785 -12 799 c 2
 -175 1055 l 1
 -119 1055 l 1
 14 846 l 1
 151 1066 l 1xd8
246 148 m 256
 216 148 194 122 194 95 c 256xe8
 194 68 216 42 246 42 c 256
 275 42 298 69 298 95 c 0
 298 122 276 148 246 148 c 256
EndSplineSet
EndChar
StartChar: uni0E45
Encoding: 3653 3653 276
Width: 507
VWidth: 1507
Flags: W
HStem: 529 68<173.927 346.379>
VStem: 374 69<-255 500.381>
Fore
301 597 m 2
 379 597 443 527 443 446 c 2
 443 -255 l 1
 374 -255 l 1
 374 451 l 2
 374 496 332 529 294 529 c 2
 244 529 l 2
 156 527 109 443 99 421 c 1
 36 443 l 1
 65 527 152 597 247 597 c 2
 301 597 l 2
EndSplineSet
EndChar
StartChar: uni0E46
Encoding: 3654 3654 277
Width: 538
VWidth: 1507
Flags: MW
HStem: -256 68<301 356.004> 301 44<94.2607 154.954> 413 47<118.328 155.311> 508 74<163 173>
VStem: 42 48<349.875 410.25> 158 45<347.599 409.978> 389 68<-157.94 481.113>
Fore
301 -188 m 1
 357 -188 389 -140 389 -104 c 2
 389 427 l 2
 389 477 348 503 323 510 c 1
 250 419 l 1
 163 508 l 1
 140 493 125 477 118 460 c 1
 166 460 203 428 203 381 c 0
 203 341 170 301 125 301 c 256
 80 301 42 341 42 381 c 2
 42 425 l 2
 42 516 143 565 173 582 c 1
 250 505 l 1
 312 582 l 1
 386 582 457 506 457 427 c 2
 457 -104 l 2
 457 -184 400 -256 301 -256 c 1
 301 -188 l 1
125 413 m 0
 107 413 90 397 90 381 c 0
 90 363 109 345 125 345 c 0
 144 345 158 360 158 381 c 0
 158 396 142 413 125 413 c 0
EndSplineSet
EndChar
StartChar: uni0E47
Encoding: 3655 3655 278
Width: 0
VWidth: 1507
Flags: W
HStem: 698 62<-269.443 -167.481> 838 33<-238.687 -167.198> 913 49<-326.016 -223.839 -223.839 -141.76>
VStem: -452 50<772.75 883.467> -274 31<764.148 833.797> -163 33<764.28 833.361> -115 47<989.727 1051>
Fore
-243 799 m 256
 -243 775 -224 760 -203 760 c 0
 -182 760 -163 775 -163 799 c 256
 -163 823 -182 838 -203 838 c 0
 -224 838 -243 823 -243 799 c 256
-274 799 m 0
 -274 847 -235 871 -203 871 c 0
 -165 871 -130 845 -130 799 c 0
 -130 749 -168 698 -226 698 c 0
 -257 698 -307 707 -330 745 c 1
 -330 745 -346 708 -348 698 c 1
 -392 710 -452 750 -452 828 c 0
 -452 894 -403 952 -327 959 c 0
 -306 961 -285 962 -265 962 c 2
 -210 962 l 2
 -131 962 -115 1015 -115 1051 c 1
 -68 1051 l 1
 -68 969 -123 913 -187 912 c 0
 -217 912 -224 913 -261 913 c 0
 -342 913 -402 896 -402 829 c 0
 -402 803 -389 778 -374 766 c 1
 -369 782 -352 815 -347 841 c 1
 -320 841 l 1
 -320 841 -317 812 -312 800 c 0
 -301 772 -267 740 -237 737 c 1
 -257 747 -274 773 -274 799 c 0
EndSplineSet
Substitution2: "Single Substitution lookup 22 subtable" uni0E47.alt1
Substitution2: "Single Substitution lookup 22 subtable" uni0E47.alt1
EndChar
StartChar: uni0E48
Encoding: 3656 3656 279
Width: 0
VWidth: 1507
Flags: W
VStem: -140 60<1008 1206 1008 1206 1008 1008>
Fore
-140 1206 m 1
 -80 1206 l 1
 -80 1008 l 1
 -140 1008 l 1
 -140 1206 l 1
EndSplineSet
Substitution2: "Single Substitution lookup 22 subtable" uni0E48.alt2
Substitution2: "Single Substitution lookup 22 subtable" uni0E48.alt2
EndChar
StartChar: uni0E49
Encoding: 3657 3657 280
Width: 0
VWidth: 1507
Flags: MW
HStem: 974 53<-119 -42.2156> 1173 31<-164.945 -97.9744>
VStem: -203 33<1099.25 1167.83> -93 33<1100.3 1167.94> 30 48<1106.47 1182>
Fore
78 1182 m 1
 78 1080 -8 974 -115 974 c 256
 -139 974 -171 975 -223 1017 c 1
 -189 1025 -163 1037 -137 1063 c 1
 -168 1066 -203 1091 -203 1134 c 256
 -203 1169 -171 1204 -133 1204 c 0
 -92 1204 -60 1171 -60 1134 c 0
 -60 1102 -65 1065 -119 1027 c 1
 0 1027 28 1137 30 1182 c 1
 78 1182 l 1
-93 1134 m 0
 -93 1153 -112 1173 -133 1173 c 0
 -150 1173 -170 1154 -170 1134 c 0
 -170 1109 -151 1096 -133 1096 c 0
 -109 1096 -93 1112 -93 1134 c 0
EndSplineSet
Substitution2: "Single Substitution lookup 22 subtable" uni0E49.alt2
Substitution2: "Single Substitution lookup 22 subtable" uni0E49.alt2
EndChar
StartChar: uni0E4A
Encoding: 3658 3658 281
Width: 0
VWidth: 1507
Flags: MW
HStem: 989 28<-236.312 -170.47> 1088 29<-220.566 -170.792> 1162 39<-209.578 -158>
VStem: -268 28<1020.68 1085.01> -167 30<1021.16 1084.33> -51 37<1057 1141.72> 26 36<1078.71 1204>
Fore
-14 1057 m 1
 1 1069 26 1095 26 1204 c 1
 62 1204 l 1
 62 1088 17 995 -51 995 c 1
 -51 1112 l 2
 -51 1131 -55 1158 -69 1162 c 1
 -113 1076 l 1
 -158 1162 l 1
 -192 1162 -219 1145 -222 1115 c 1
 -218 1116 -212 1117 -205 1117 c 0
 -171 1117 -137 1088 -137 1052 c 0
 -137 1022 -169 989 -205 989 c 0
 -236 989 -268 1017 -268 1052 c 2
 -268 1097 l 2
 -268 1164 -216 1201 -143 1201 c 1
 -115 1143 l 1
 -81 1201 l 1
 -41 1201 -14 1182 -14 1112 c 2
 -14 1057 l 1
-240 1052 m 0
 -240 1034 -220 1017 -205 1017 c 0
 -185 1017 -167 1035 -167 1052 c 0
 -167 1073 -186 1088 -205 1088 c 0
 -219 1088 -240 1077 -240 1052 c 0
EndSplineSet
Substitution2: "Single Substitution lookup 22 subtable" uni0E4A.alt2
Substitution2: "Single Substitution lookup 22 subtable" uni0E4A.alt2
EndChar
StartChar: uni0E4B
Encoding: 3659 3659 282
Width: 0
VWidth: 1507
Flags: W
HStem: 1063 57<-234 -149 -84 0 -234 0 -234 -234>
VStem: -149 65<977 1063 1120 1204>
Fore
0 1120 m 1
 0 1063 l 1
 -84 1063 l 1
 -84 977 l 1
 -149 977 l 1
 -149 1063 l 1
 -234 1063 l 1
 -234 1120 l 1
 -149 1120 l 1
 -149 1204 l 1
 -84 1204 l 1
 -84 1120 l 1
 0 1120 l 1
EndSplineSet
Substitution2: "Single Substitution lookup 22 subtable" uni0E4B.alt2
Substitution2: "Single Substitution lookup 22 subtable" uni0E4B.alt2
EndChar
StartChar: uni0E4C
Encoding: 3660 3660 283
Width: 0
VWidth: 1507
Flags: W
HStem: 936 44<-150.666 -66.8143> 1075 54<-20 89.9619> 1085 44<-149.69 -66.021>
VStem: -207 46<989.954 1074.14> -56 44<990.743 1067.6> 119 54<1149.75 1206>
Fore
20 1129 m 2xdc
 99 1129 114 1177 119 1206 c 1
 173 1206 l 1
 164 1125 109 1075 20 1075 c 2
 -20 1075 l 1xdc
 -15 1064 -12 1050 -12 1033 c 0
 -12 981 -52 936 -109 936 c 0
 -160 936 -207 977 -207 1033 c 256
 -207 1088 -159 1129 -109 1129 c 2xbc
 20 1129 l 2xdc
-109 980 m 256
 -78 980 -56 1004 -56 1033 c 256
 -56 1061 -78 1085 -109 1085 c 256xbc
 -139 1085 -161 1060 -161 1033 c 256
 -161 1002 -137 980 -109 980 c 256
EndSplineSet
Substitution2: "Single Substitution lookup 22 subtable" uni0E4C.alt2
Substitution2: "Single Substitution lookup 22 subtable" uni0E4C.alt2
EndChar
StartChar: uni0E4D
Encoding: 3661 3661 284
Width: 0
VWidth: 1507
Flags: W
HStem: 715 43<-246.978 -165.162> 864 43<-247.804 -165.317>
VStem: -303 44<769.528 853.536> -154 45<768.519 853.702>
Fore
-207 907 m 256
 -151 907 -109 862 -109 811 c 0
 -109 761 -151 715 -207 715 c 0
 -256 715 -303 759 -303 811 c 0
 -303 866 -257 907 -207 907 c 256
-154 811 m 0
 -154 838 -176 864 -207 864 c 256
 -237 864 -259 838 -259 811 c 0
 -259 790 -238 758 -207 758 c 0
 -175 758 -154 784 -154 811 c 0
EndSplineSet
Substitution2: "Single Substitution lookup 22 subtable" uni0E4D.alt1
Substitution2: "Single Substitution lookup 22 subtable" uni0E4D.alt1
EndChar
StartChar: uni0E4E
Encoding: 3662 3662 285
Width: 0
VWidth: 1507
Flags: W
HStem: 702 50<-215.487 -135.792> 852 46<-213.756 -179 -134.72 -65> 993 49<-132.185 44>
VStem: -273 48<762.242 841.565> -194 51<913.56 981.764>
Fore
-143 942 m 0
 -143 924 -124 898 -93 898 c 2
 -65 898 l 1
 -65 852 l 1
 -175 852 l 2
 -200 852 -225 830 -225 802 c 256
 -225 774 -200 752 -175 752 c 0
 -161 752 -147 763 -140 769 c 1
 -101 733 l 1
 -121 712 -146 702 -175 702 c 0
 -234 702 -273 751 -273 802 c 0
 -273 834 -256 900 -188 900 c 2
 -179 900 l 1
 -190 911 -194 930 -194 942 c 0
 -194 994 -154 1042 -93 1042 c 2
 44 1042 l 1
 44 993 l 1
 -87 993 l 2
 -117 993 -143 969 -143 942 c 0
EndSplineSet
Substitution2: "Single Substitution lookup 22 subtable" uni0E4E.alt1
Substitution2: "Single Substitution lookup 22 subtable" uni0E4E.alt1
EndChar
StartChar: uni0E4F
Encoding: 3663 3663 286
Width: 636
VWidth: 1507
Flags: W
HStem: -12 60<227.53 410.915> 122 53<257.311 382.422> 380 53<257.135 382.509> 510 60<228.071 408.876>
VStem: 35 58<185.908 369.838> 164 53<214.491 340.03> 422 53<215.124 339.474> 544 59<185.69 371.572>
Fore
35 277 m 0
 35 419 148 570 320 570 c 0
 470 570 603 438 603 277 c 256
 603 123 474 -12 320 -12 c 256
 163 -12 35 123 35 277 c 0
544 277 m 0
 544 393 449 510 320 510 c 0
 182 510 93 387 93 277 c 0
 93 168 182 48 320 48 c 256
 455 48 544 167 544 277 c 0
320 122 m 256
 238 122 164 186 164 277 c 256
 164 360 229 433 320 433 c 256
 411 433 475 359 475 277 c 256
 475 188 403 122 320 122 c 256
320 380 m 256
 260 380 217 333 217 277 c 256
 217 222 260 175 320 175 c 256
 379 175 422 223 422 277 c 256
 422 336 375 380 320 380 c 256
EndSplineSet
EndChar
StartChar: uni0E50
Encoding: 3664 3664 287
Width: 613
VWidth: 1507
Flags: W
HStem: -12 69<216.693 393.406> 458 71<214.572 398.261>
VStem: 36 70<167.295 348.437> 506 71<166.879 348.526>
Fore
306 529 m 0
 458 529 577 399 577 259 c 0
 577 114 456 -12 306 -12 c 0
 155 -12 36 115 36 259 c 256
 36 403 159 529 306 529 c 0
306 458 m 256
 186 458 106 364 106 258 c 256
 106 147 195 57 306 57 c 256
 409 57 506 136 506 258 c 256
 506 378 415 458 306 458 c 256
EndSplineSet
EndChar
StartChar: uni0E51
Encoding: 3665 3665 288
Width: 589
VWidth: 1507
Flags: W
HStem: -56 62<272.309 362.572> 106 72<193.457 309.956> 286 44<230.921 314.133> 464 68<202.301 378.496>
VStem: 36 70<231.227 376.534> 175 45<198.081 275.386> 326 42<190.728 273.125> 485 68<172.486 353.96>
Fore
295 532 m 256
 421 532 553 416 553 271 c 0
 553 113 433 -24 286 -56 c 1
 264 6 l 1
 370 32 485 130 485 271 c 0
 485 364 404 464 297 464 c 256
 205 464 106 407 106 298 c 0
 106 243 144 196 191 181 c 1
 183 189 175 213 175 234 c 0
 175 285 213 330 271 330 c 0
 327 330 368 285 368 234 c 0
 368 166 316 106 232 106 c 0
 136 106 36 182 36 297 c 0
 36 435 163 532 295 532 c 256
271 286 m 256
 241 286 220 259 220 232 c 256
 220 205 241 178 271 178 c 256
 301 178 326 205 326 232 c 256
 326 259 301 286 271 286 c 256
EndSplineSet
EndChar
StartChar: uni0E52
Encoding: 3666 3666 289
Width: 764
VWidth: 1507
Flags: W
HStem: 0 68<190.38 573.098> 188 41<262.072 345.273> 335 45<274.715 346.67> 457 68<302.867 413.585>
VStem: 60 68<126.636 692.13> 205 45<240.542 324.539> 207 67<377 427.706> 356 45<239.214 325.399> 636 68<125.677 415.074>
Fore
60 490 m 2xfb80
 60 628 63 715 -38 791 c 1
 2 846 l 1
 122 760 128 682 128 490 c 2
 128 185 l 2
 128 131 188 68 255 68 c 2
 505 68 l 2
 573 68 636 127 636 182 c 2
 636 368 l 2
 636 403 590 448 564 448 c 1
 482 366 l 1
 459 405 417 457 374 457 c 0
 314 457 274 425 274 377 c 1xfb80
 278 379 288 380 304 380 c 0
 353 380 401 339 401 285 c 0
 401 233 355 188 304 188 c 0
 253 188 205 240 205 285 c 0xfd80
 205 318 207 335 207 368 c 0
 207 469 284 525 374 525 c 0
 391 525 444 521 488 466 c 1
 501 484 508 490 540 522 c 1
 629 516 704 452 704 368 c 2
 704 181 l 2
 704 77 602 -0 506 0 c 2
 255 0 l 2
 164 0 60 77 60 181 c 2
 60 490 l 2xfb80
304 335 m 256
 276 335 250 315 250 283 c 0xfd80
 250 256 274 229 304 229 c 256
 335 229 356 256 356 283 c 0
 356 314 333 335 304 335 c 256
EndSplineSet
EndChar
StartChar: uni0E53
Encoding: 3667 3667 290
Width: 694
VWidth: 1507
Flags: W
HStem: -5 50<157.801 240.742> 151 43<165.417 241.043> 455 68<475 538.939>
VStem: 36 67<182.075 347.654> 252 51<56.4896 139.999> 567 68<0 426.984>
Fore
199 194 m 0
 250 194 303 157 303 98 c 0
 303 49 259 -5 199 -5 c 0
 82 9 36 153 36 253 c 0
 36 456 175 523 268 523 c 1
 354 335 l 1
 440 523 l 1
 499 523 l 2
 574 523 635 447 635 365 c 2
 635 0 l 1
 567 0 l 1
 567 369 l 2
 567 413 532 455 491 455 c 2
 475 455 l 1
 354 199 l 1
 231 448 l 1
 154 444 103 332 103 240 c 0
 103 206 110 179 124 160 c 1
 157 193 186 194 199 194 c 0
146 98 m 256
 146 68 172 45 199 45 c 256
 229 45 252 71 252 98 c 256
 252 128 226 151 199 151 c 256
 169 151 146 125 146 98 c 256
EndSplineSet
EndChar
StartChar: uni0E54
Encoding: 3668 3668 291
Width: 711
VWidth: 1507
Flags: W
HStem: -6 68<215.696 418.197> 9 63<395.2 457.792 457.792 488.877> 288 44<370.894 455.12> 448 66<211.506 376.5 376.5 376.5 376.5 546.907>
VStem: 36 68<167.448 342.277> 318 42<192.922 276.801> 466 44<193.416 276.617> 678 65<673.86 793>
Fore
455 516 m 0xbf
 615 516 670 655 678 794 c 1
 743 793 l 1
 743 621 651 446 455 446 c 0
 392 446 361 448 298 448 c 0
 195 448 104 366 104 252 c 0
 104 151 191 62 308 62 c 0xbf
 338 62 356 64 382 67 c 2
 426 72 l 2
 443 73 464 74 490 74 c 1
 401 112 318 162 318 234 c 0
 318 284 358 332 413 332 c 0
 458 332 510 294 510 238 c 0
 510 204 496 177 469 158 c 1
 483 142 534 117 564 102 c 2
 630 72 l 2
 652 62 672 55 689 50 c 1
 671 -15 l 1
 594 5 512 9 472 9 c 0x7f
 392 9 390 -6 308 -6 c 0
 167 -6 36 89 36 252 c 256
 36 409 151 514 298 514 c 0
 361 514 392 516 455 516 c 0xbf
413 288 m 256
 383 288 360 262 360 235 c 256
 360 205 386 182 413 182 c 256
 443 182 466 208 466 235 c 256
 466 265 440 288 413 288 c 256
EndSplineSet
EndChar
StartChar: uni0E55
Encoding: 3669 3669 292
Width: 711
VWidth: 1507
Flags: W
HStem: -6 68<211.186 417.289> 9 63<395.2 457.792 457.792 488.877> 288 44<371.452 455.11> 446 77<367.636 515.414> 448 66<213.078 398.775> 629 43<433.791 515.524>
VStem: 36 68<167.889 340.515> 317 43<193.115 276.618> 378 44<543.59 618.143> 466 42<193.161 276.406> 526 45<549.431 618.862> 678 64<667.032 793>
Fore
475 672 m 256xaff0
 530 672 571 626 571 576 c 0
 571 564 569 554 565 546 c 1
 642 591 674 686 678 794 c 1
 742 793 l 1
 742 622 650 446 455 446 c 0x37f0
 392 446 361 448 298 448 c 0
 189 448 104 358 104 252 c 0
 104 153 188 62 306 62 c 0xaff0
 336 62 351 64 382 67 c 2
 426 72 l 2
 443 73 464 74 490 74 c 1
 403 112 317 163 317 234 c 0
 317 288 361 332 413 332 c 0
 459 332 508 293 508 238 c 0
 508 206 494 177 469 158 c 1
 483 142 534 117 564 102 c 2
 630 72 l 2
 652 62 672 55 689 50 c 1
 671 -15 l 1
 594 5 512 9 472 9 c 0x67f0
 397 9 389 -6 306 -6 c 0
 167 -6 36 89 36 252 c 256
 36 409 151 514 298 514 c 2
 351 514 l 2
 367 514 384 515 401 516 c 1
 386 534 378 554 378 576 c 0
 378 631 425 672 475 672 c 256xaff0
413 288 m 256
 383 288 360 262 360 235 c 256
 360 205 386 182 413 182 c 256
 443 182 466 208 466 235 c 256
 466 265 440 288 413 288 c 256
526 576 m 0
 526 603 505 629 475 629 c 256
 445 629 422 603 422 576 c 0
 422 555 444 523 475 523 c 256
 502 523 526 547 526 576 c 0
EndSplineSet
EndChar
StartChar: uni0E56
Encoding: 3670 3670 293
Width: 630
VWidth: 1507
Flags: W
HStem: -9 66<228.295 411.56> 220 47<145.48 230.395> 469 66<194.493 400.413>
VStem: 87 49<128.412 210.554> 240 43<128.143 209.907> 528 66<174.335 351.937>
Fore
60 410 m 1
 41 635 -79 743 -113 773 c 1
 -63 814 l 1
 38 720 86 624 116 499 c 1
 210 533 239 535 280 535 c 0
 480 535 594 410 594 256 c 0
 594 119 470 -9 329 -9 c 0
 125 -9 87 98 87 169 c 0
 87 220 129 267 185 267 c 0
 241 267 283 220 283 169 c 0
 283 112 243 86 225 78 c 1
 239 71 279 57 332 57 c 256
 427 57 528 156 528 256 c 0
 528 393 426 469 280 469 c 0
 214 469 100 434 60 410 c 1
187 220 m 256
 157 220 136 196 136 169 c 256
 136 139 160 118 187 118 c 256
 214 118 240 139 240 169 c 256
 240 199 214 220 187 220 c 256
EndSplineSet
EndChar
StartChar: uni0E57
Encoding: 3671 3671 294
Width: 871
VWidth: 1507
Flags: W
HStem: -5 50<157.801 240.742> 151 43<165.417 241.043> 455 68<194.281 231 475 538.939>
VStem: 36 68<186.706 348.685> 252 51<56.4896 139.999> 567 68<99 426.984> 749 70<290.306 764>
Fore
199 194 m 0
 250 194 303 157 303 98 c 0
 303 49 259 -5 199 -5 c 0
 82 9 36 153 36 253 c 0
 36 456 175 523 268 523 c 1
 354 335 l 1
 440 523 l 1
 499 523 l 2
 574 523 635 447 635 365 c 2
 635 99 l 1
 702 185 749 311 749 457 c 2
 749 764 l 1
 819 764 l 1
 819 457 l 2
 819 288 760 103 621 -8 c 1
 567 -8 l 1
 567 369 l 2
 567 413 532 455 491 455 c 2
 475 455 l 1
 354 199 l 1
 231 448 l 1
 191 448 104 373 104 253 c 0
 104 218 113 172 124 160 c 1
 157 193 186 194 199 194 c 0
146 98 m 256
 146 68 172 45 199 45 c 256
 229 45 252 71 252 98 c 256
 252 128 226 151 199 151 c 256
 169 151 146 125 146 98 c 256
EndSplineSet
EndChar
StartChar: uni0E58
Encoding: 3672 3672 295
Width: 725
VWidth: 1507
Flags: W
HStem: -9 68<415.595 549.547> 136 46<547.245 590.792> 288 44<546.355 629.208> 449 67<209.032 398.523 398.523 515.086>
VStem: 36 67<161.365 343.551> 491 44<193.616 276.618> 641 43<193.791 276.406> 689 63<699.817 796>
Fore
277 271 m 1
 327 169 393 59 481 59 c 0
 548 59 583 108 592 136 c 1
 534 136 491 181 491 234 c 256
 491 288 536 332 588 332 c 0
 634 332 684 293 684 238 c 0
 684 102 603 -9 481 -9 c 0
 430 -9 389 5 357 32 c 0
 325 60 300 91 283 125 c 1
 231 -11 l 1
 147 18 36 95 36 253 c 0
 36 414 155 516 297 516 c 2
 378 516 l 2
 392 516 406 516 419 517 c 0
 573 517 681 646 689 796 c 1
 752 796 l 1
 752 601 595 449 419 449 c 2
 297 449 l 2
 181 449 103 355 103 253 c 0
 103 175 154 96 194 86 c 1
 277 271 l 1
588 288 m 256
 558 288 535 262 535 235 c 256
 535 205 561 182 588 182 c 256
 618 182 641 208 641 235 c 256
 641 265 615 288 588 288 c 256
EndSplineSet
EndChar
StartChar: uni0E59
Encoding: 3673 3673 296
Width: 723
VWidth: 1507
Flags: W
HStem: -8 50<217.497 300.935> 148 43<218.533 300.253> 323 67<579.754 638.604> 422 68<163.956 279.529> 457 66<388.729 481.134>
VStem: 36 65<160.535 346.149> 161 46<106 137.567> 312 47<53.2717 136.784> 687 70<467.211 784>
Fore
312 95 m 256xe780
 312 125 286 148 259 148 c 256
 229 148 207 122 207 95 c 256
 207 68 229 42 259 42 c 256
 289 42 312 68 312 95 c 256xe780
448 523 m 0xef80
 557 523 567 390 604 390 c 0
 655 390 687 505 687 624 c 2
 687 784 l 1
 757 784 l 1
 757 624 l 2
 757 512 726 323 601 323 c 0
 522 323 498 457 448 457 c 0xef80
 404 457 386 436 374 416 c 1
 401 289 459 200 546 148 c 1
 510 96 l 1
 400 159 347 256 314 395 c 1
 271 418 251 422 217 422 c 0
 154 422 101 340 101 249 c 0
 101 207 127 129 161 106 c 1
 161 145 197 191 258 191 c 256
 309 191 359 153 359 95 c 0
 359 45 317 -8 258 -8 c 0
 130 -8 36 122 36 249 c 0
 36 375 117 490 214 490 c 0xf780
 280 490 292 477 330 464 c 1
 377 511 401 523 448 523 c 0xef80
EndSplineSet
EndChar
StartChar: uni0E5A
Encoding: 3674 3674 297
Width: 827
VWidth: 1507
Flags: W
HStem: 0 21G<454 525 681 752> 366 53<232.947 254.5 243.723 361.321 525 587.066> 546 45<129.733 213.175>
VStem: 74 44<450.574 534.682> 225 42<451.161 534.942> 454 71<0 366 419 452 515.717 598> 681 71<0 452 512.556 598>
Fore
681 452 m 1
 644 407 593 375 525 366 c 1
 525 0 l 1
 454 0 l 1
 454 452 l 1
 415 405 357 370 282 366 c 0
 258 366 161 359 101 421 c 0
 83 440 74 464 74 493 c 0
 74 545 119 591 172 591 c 256
 223 591 267 550 267 494 c 0
 267 461 255 437 232 421 c 1
 250 421 259 419 277 419 c 0
 383 419 451 506 454 598 c 1
 525 598 l 1
 525 419 l 1
 608 430 676 499 681 591 c 2
 681 598 l 1
 752 598 l 1
 752 0 l 1
 681 0 l 1
 681 452 l 1
225 493 m 256
 225 523 199 546 172 546 c 256
 142 546 118 520 118 493 c 256
 118 465 140 440 172 440 c 0
 202 440 225 466 225 493 c 256
EndSplineSet
EndChar
StartChar: uni0E5B
Encoding: 3675 3675 298
Width: 1050
VWidth: 1507
Flags: W
HStem: -32 56<212.958 400.077> 106 66<238.409 356.209> 288 38<235.084 318.758> 463 63<201.027 375.326>
VStem: 27 62<157.371 350.842> 184 36<186.033 272.68> 332 40<194.655 275.354> 448 63<229.268 389.398>
Fore
298 -32 m 256
 135 -32 27 103 27 268 c 0
 27 406 155 526 286 526 c 256
 428 526 511 423 511 295 c 0
 511 191 424 106 317 106 c 0
 234 106 184 164 184 231 c 0
 184 279 222 326 277 326 c 0
 334 326 372 281 372 231 c 0
 372 209 363 185 357 175 c 1
 407 192 448 238 448 297 c 0
 448 401 387 463 285 463 c 0
 187 463 89 376 89 268 c 0
 89 144 165 24 308 24 c 0
 458 24 573 183 573 294 c 2
 573 294 569 391 559 416 c 1
 617 388 673 275 684 211 c 1
 703 255 690 353 683 381 c 1
 751 348 767 285 797 217 c 1
 806 269 793 340 790 353 c 1
 836 336 861 297 882 249 c 2
 898 211 l 1
 907 249 897 302 895 312 c 1
 961 263 1003 253 1073 241 c 1
 1054 233 1027 226 1002 226 c 0
 975 226 952 235 933 244 c 1
 933 224 926 160 898 160 c 0
 886 160 869 171 840 258 c 1
 840 209 823 146 797 146 c 1
 777 154 763 197 758 209 c 2
 745 250 l 2
 741 262 737 271 733 276 c 1
 729 218 701 130 680 130 c 0
 674 130 663 145 650 180 c 2
 634 222 l 2
 630 236 625 247 621 255 c 1
 606 124 475 -32 298 -32 c 256
277 172 m 0
 309 172 332 200 332 229 c 256
 332 259 310 288 277 288 c 0
 249 288 220 260 220 229 c 256
 220 198 250 172 277 172 c 0
EndSplineSet
EndChar
StartChar: zerowidthnonjoiner
Encoding: 8204 8204 299
Width: 0
VWidth: 1507
Flags: W
VStem: -26 53<-464 362>
Fore
27 -464 m 1
 -26 -464 l 1
 -26 362 l 1
 27 362 l 1
 27 -464 l 1
EndSplineSet
EndChar
StartChar: zerowidthjoiner
Encoding: 8205 8205 300
Width: 0
VWidth: 1507
Flags: W
VStem: -26 53<-464 226>
Fore
27 -464 m 1
 -26 -464 l 1
 -26 226 l 1
 -56 194 l 1
 -83 220 l 1
 -26 277 l 1
 -83 336 l 1
 -56 362 l 1
 0 304 l 1
 57 362 l 1
 84 336 l 1
 27 277 l 1
 84 220 l 1
 57 194 l 1
 27 226 l 1
 27 -464 l 1
EndSplineSet
EndChar
StartChar: lefttorightmark
Encoding: 8206 8206 301
Width: 0
VWidth: 1507
Flags: W
HStem: 253 55<27 176>
VStem: -26 53<-464 253>
Fore
27 -464 m 1
 -26 -464 l 1
 -26 308 l 1
 176 308 l 1
 151 335 l 1
 175 360 l 1
 255 280 l 1
 175 200 l 1
 151 228 l 1
 176 253 l 1
 27 253 l 1
 27 -464 l 1
EndSplineSet
EndChar
StartChar: righttoleftmark
Encoding: 8207 8207 302
Width: 0
VWidth: 1507
Flags: W
HStem: 253 55<-175 -26>
VStem: -26 53<-464 253>
Fore
27 -464 m 1
 -26 -464 l 1
 -26 253 l 1
 -175 253 l 1
 -149 228 l 1
 -173 200 l 1
 -253 280 l 1
 -173 360 l 1
 -149 335 l 1
 -175 308 l 1
 27 308 l 1
 27 -464 l 1
EndSplineSet
EndChar
StartChar: endash
Encoding: 8211 8211 303
Width: 542
VWidth: 1507
Flags: W
HStem: 249 60<32 510 32 510 32 32>
Fore
32 249 m 1
 32 309 l 1
 510 309 l 1
 510 249 l 1
 32 249 l 1
EndSplineSet
EndChar
StartChar: emdash
Encoding: 8212 8212 304
Width: 1085
VWidth: 1507
Flags: W
HStem: 249 60<33 1048>
Fore
33 249 m 1
 33 309 l 1
 1048 309 l 1
 1048 249 l 1
 33 249 l 1
EndSplineSet
EndChar
StartChar: quoteleft
Encoding: 8216 8216 305
Width: 171
VWidth: 1507
Flags: W
HStem: 556 214<77 121 121 121>
VStem: 15 62<556 667.705>
Fore
155 722 m 1
 120 690 77 670 77 597 c 2
 77 556 l 1
 15 556 l 1
 15 597 l 2
 15 716 96 751 121 770 c 1
 155 722 l 1
EndSplineSet
EndChar
StartChar: quoteright
Encoding: 8217 8217 306
Width: 171
VWidth: 1507
Flags: W
HStem: 556 214<50 93 93 93>
VStem: 93 62<659.442 770>
Fore
15 604 m 1
 42 631 93 650 93 730 c 2
 93 770 l 1
 155 770 l 1
 155 730 l 2
 155 612 74 574 50 556 c 1
 15 604 l 1
EndSplineSet
EndChar
StartChar: quotesinglbase
Encoding: 8218 8218 307
Width: 180
VWidth: 1507
Flags: W
HStem: -121 214<57 101 101 101>
VStem: 101 62<-16.767 93>
Fore
23 -72 m 1
 45 -50 101 -27 101 53 c 2
 101 93 l 1
 163 93 l 1
 163 53 l 2
 163 -64 85 -100 57 -121 c 1
 23 -72 l 1
EndSplineSet
EndChar
StartChar: quotedblleft
Encoding: 8220 8220 308
Width: 396
VWidth: 1507
Flags: W
HStem: 556 214<250 294 294 294>
VStem: 15 62<556 667.705> 188 62<556 666.754>
Fore
329 722 m 1
 300 695 250 671 250 597 c 2
 250 556 l 1
 188 556 l 1
 188 597 l 2
 188 714 268 750 294 770 c 1
 329 722 l 1
155 722 m 1
 120 690 77 670 77 597 c 2
 77 556 l 1
 15 556 l 1
 15 597 l 2
 15 716 96 751 121 770 c 1
 155 722 l 1
EndSplineSet
EndChar
StartChar: quotedblright
Encoding: 8221 8221 309
Width: 396
VWidth: 1507
Flags: W
HStem: 556 214<50 93 93 93>
VStem: 93 62<659.442 770> 267 62<659.728 770>
Fore
15 604 m 1
 42 631 93 650 93 730 c 2
 93 770 l 1
 155 770 l 1
 155 730 l 2
 155 612 74 574 50 556 c 1
 15 604 l 1
188 604 m 1
 212 628 267 650 267 730 c 2
 267 770 l 1
 329 770 l 1
 329 730 l 2
 329 613 245 573 223 556 c 1
 188 604 l 1
EndSplineSet
EndChar
StartChar: quotedblbase
Encoding: 8222 8222 310
Width: 351
VWidth: 1507
Flags: W
HStem: -121 214<57 101 101 101>
VStem: 101 62<-16.767 93> 274 62<-20.3627 93>
Fore
23 -72 m 1
 45 -50 101 -27 101 53 c 2
 101 93 l 1
 163 93 l 1
 163 53 l 2
 163 -64 85 -100 57 -121 c 1
 23 -72 l 1
196 -72 m 1
 225 -46 274 -26 274 53 c 2
 274 93 l 1
 336 93 l 1
 336 53 l 2
 336 -23 302 -71 261 -100 c 2
 231 -121 l 1
 196 -72 l 1
EndSplineSet
EndChar
StartChar: dagger
Encoding: 8224 8224 311
Width: 595
VWidth: 1507
Flags: W
HStem: 405 61<65 268 338 535> 696 20G<268 338>
VStem: 268 70<-121 405 466 716>
Fore
268 405 m 1
 65 405 l 1
 65 466 l 1
 268 466 l 1
 268 716 l 1
 338 716 l 1
 338 466 l 1
 535 466 l 1
 535 405 l 1
 338 405 l 1
 338 -121 l 1
 303 -167 l 1
 268 -121 l 1
 268 405 l 1
EndSplineSet
EndChar
StartChar: daggerdbl
Encoding: 8225 8225 312
Width: 593
VWidth: 1507
Flags: W
HStem: 124 60<65 268 338 535> 405 61<65 268 338 535> 696 20G<268 338>
VStem: 268 70<-121 124 184 405 466 716>
Fore
268 405 m 1
 65 405 l 1
 65 466 l 1
 268 466 l 1
 268 716 l 1
 338 716 l 1
 338 466 l 1
 535 466 l 1
 535 405 l 1
 338 405 l 1
 338 184 l 1
 535 184 l 1
 535 124 l 1
 338 124 l 1
 338 -121 l 1
 303 -167 l 1
 268 -121 l 1
 268 124 l 1
 65 124 l 1
 65 184 l 1
 268 184 l 1
 268 405 l 1
EndSplineSet
EndChar
StartChar: bullet
Encoding: 8226 8226 313
Width: 526
VWidth: 1507
Flags: W
HStem: 164 385<95 95 95 95>
VStem: 95 357<164 356 164 164>
Fore
95 164 m 1
 95 549 l 1
 452 356 l 1
 95 164 l 1
EndSplineSet
EndChar
StartChar: ellipsis
Encoding: 8230 8230 314
Width: 1132
VWidth: 1507
Flags: W
HStem: -8 106<143.248 228.273 523.248 608.273 899.021 985.273>
VStem: 133 105<1.85384 88.1462> 513 105<1.85384 88.1462> 889 106<1.85384 88.1462>
Fore
185 -8 m 256
 154 -8 133 17 133 45 c 256
 133 77 156 98 185 98 c 256
 217 98 238 74 238 45 c 256
 238 16 217 -8 185 -8 c 256
565 -8 m 256
 534 -8 513 17 513 45 c 256
 513 77 536 98 565 98 c 256
 597 98 618 74 618 45 c 256
 618 16 597 -8 565 -8 c 256
942 -8 m 256
 911 -8 889 16 889 45 c 256
 889 77 913 98 942 98 c 256
 974 98 995 74 995 45 c 256
 995 16 974 -8 942 -8 c 256
EndSplineSet
EndChar
StartChar: perthousand
Encoding: 8240 8240 315
Width: 1132
VWidth: 1507
Flags: W
HStem: 18 63<539.358 573 606 640.842 854.358 888 921 955.842> 304 62<550.498 582 618 655.056 865.498 897 933 970.056> 329 63<109.079 143 176 211.819> 615 63<121.277 152 188 222.522>
VStem: 41 60<400.18 430 556 594.208> 232 60<412.047 448 579 607.218> 470 61<88.541 118 244 284.884> 662 60<102.252 137 268 295.454> 785 61<88.541 118 244 284.884> 977 60<102.252 137 268 295.454>
Fore
292 579 m 2xbfc0
 292 626 271 678 188 678 c 2
 152 678 l 2
 96 678 41 621 41 556 c 2
 41 430 l 2
 41 368 77 329 143 329 c 2
 176 329 l 2
 245 329 292 388 292 448 c 2
 292 579 l 2xbfc0
232 460 m 2
 232 422 198 392 163 392 c 2
 157 392 l 2
 120 392 101 410 101 445 c 2
 101 544 l 2
 101 580 129 615 170 615 c 2
 176 615 l 2
 213 615 232 598 232 564 c 2
 232 460 l 2
722 268 m 2
 722 331 685 366 618 366 c 2
 582 366 l 2xdfc0
 525 366 470 310 470 244 c 2
 470 118 l 2
 470 56 508 18 573 18 c 2
 606 18 l 2
 671 18 722 73 722 137 c 2
 722 268 l 2
151 -26 m 1
 538 739 l 1
 604 739 l 1
 220 -26 l 1
 151 -26 l 1
662 149 m 2
 662 114 631 81 592 81 c 2
 586 81 l 2
 549 81 531 99 531 134 c 2
 531 234 l 2
 531 270 559 304 600 304 c 2
 606 304 l 2
 643 304 662 287 662 253 c 2
 662 149 l 2
1037 268 m 2
 1037 331 1000 366 933 366 c 2
 897 366 l 2
 840 366 785 310 785 244 c 2
 785 118 l 2
 785 56 823 18 888 18 c 2
 921 18 l 2
 986 18 1037 73 1037 137 c 2
 1037 268 l 2
977 149 m 2
 977 114 946 81 907 81 c 2
 901 81 l 2
 864 81 846 99 846 134 c 2
 846 234 l 2
 846 270 874 304 915 304 c 2
 921 304 l 2
 958 304 977 287 977 253 c 2
 977 149 l 2
EndSplineSet
EndChar
StartChar: guilsinglleft
Encoding: 8249 8249 318
Width: 328
VWidth: 1507
Flags: W
VStem: 30 270<274 540 274 274>
Fore
300 540 m 1
 300 455 l 1
 118 274 l 1
 300 93 l 1
 300 9 l 1
 30 274 l 1
 300 540 l 1
EndSplineSet
EndChar
StartChar: guilsinglright
Encoding: 8250 8250 319
Width: 328
VWidth: 1507
Flags: W
VStem: 30 270<9 274 9 9>
Fore
300 274 m 1
 30 9 l 1
 30 93 l 1
 213 274 l 1
 30 455 l 1
 30 540 l 1
 300 274 l 1
EndSplineSet
EndChar
StartChar: fraction
Encoding: 8260 8260 320
Width: 159
VWidth: 1507
Flags: MW
Fore
-142 -26 m 1
 246 739 l 1
 292 739 l 1
 -92 -26 l 1
 -142 -26 l 1
EndSplineSet
EndChar
StartChar: Euro
Encoding: 8364 8364 321
Width: 532
VWidth: 1507
Flags: W
HStem: 0 68<241.037 502> 247 70<24 87 155 424> 399 70<24 87 158 424> 648 68<277.448 499>
VStem: 87 68<153.896 247 317 399 469 531.592>
Fore
89 469 m 1
 105 608 229 716 372 716 c 2
 499 716 l 1
 499 648 l 1
 372 648 l 2
 254 648 173 561 158 469 c 1
 424 469 l 1
 424 399 l 1
 155 399 l 1
 155 317 l 1
 424 317 l 1
 424 247 l 1
 155 247 l 1
 155 234 l 2
 155 148 221 68 321 68 c 2
 502 68 l 1
 502 0 l 1
 321 0 l 2
 193 0 87 101 87 234 c 2
 87 247 l 1
 24 247 l 1
 24 317 l 1
 87 317 l 1
 87 399 l 1
 24 399 l 1
 24 469 l 1
 89 469 l 1
EndSplineSet
EndChar
StartChar: uni2113
Encoding: 8467 8467 322
Width: 321
VWidth: 1507
Flags: MW
HStem: -9 66<186.308 240.626> 641 67<182.936 240.085>
VStem: 113 66<73.8748 286 409 640.317> 241 63<534.087 638.377>
Fore
203 57 m 0
 232 57 254 70 291 101 c 1
 291 30 l 1
 237 -8 211 -9 184 -9 c 0
 141 -9 113 22 113 103 c 2
 113 286 l 1
 48 249 l 1
 17 303 l 1
 113 365 l 1
 113 574 l 2
 113 674 148 708 200 708 c 0
 268 708 304 687 304 623 c 0
 304 519 245 374 179 324 c 1
 179 101 l 2
 179 92 180 82 183 72 c 0
 186 62 192 57 203 57 c 0
202 641 m 0
 188 641 179 632 179 574 c 2
 179 409 l 1
 230 464 241 581 241 607 c 0
 241 629 236 641 202 641 c 0
EndSplineSet
EndChar
StartChar: trademark
Encoding: 8482 8482 323
Width: 859
VWidth: 1507
Flags: MW
HStem: 680 51<20 151 203 333>
VStem: 151 52<297 680> 365 53<297 610> 767 52<297 610>
Fore
819 297 m 1
 767 297 l 1
 767 610 l 1
 592 282 l 1
 418 610 l 1
 418 297 l 1
 365 297 l 1
 365 733 l 1
 416 733 l 1
 592 409 l 1
 769 731 l 1
 819 731 l 1
 819 297 l 1
151 680 m 1
 20 680 l 1
 20 731 l 1
 333 731 l 1
 333 680 l 1
 203 680 l 1
 203 297 l 1
 151 297 l 1
 151 680 l 1
EndSplineSet
EndChar
StartChar: Ohm
Encoding: 8486 8486 324
Width: 738
VWidth: 1507
Flags: W
HStem: 0 59<39 243 493 696> 154 60<187.875 243> 621 60<209.926 548.698>
VStem: 75 68<262.101 546.737> 243 55<59 154> 437 56<59 157> 595 68<288.865 571.137>
Fore
663 365 m 2
 663 266 593 174 493 157 c 1
 493 59 l 1
 696 59 l 1
 696 0 l 1
 437 0 l 1
 437 214 l 1
 460 214 l 2
 541 214 595 296 595 365 c 2
 595 506 l 2
 595 564 548 621 496 621 c 2
 279 621 l 2
 194 621 143 538 143 470 c 2
 143 329 l 2
 143 276 185 214 243 214 c 2
 298 214 l 1
 298 0 l 1
 39 0 l 1
 39 59 l 1
 243 59 l 1
 243 154 l 1
 156 154 75 214 75 314 c 2
 75 470 l 2
 75 585 169 681 279 681 c 2
 496 681 l 2
 586 681 663 605 663 506 c 2
 663 365 l 2
EndSplineSet
EndChar
StartChar: estimated
Encoding: 8494 8494 325
Width: 480
VWidth: 1507
Flags: W
HStem: -8 61<171.582 302.064> 295 53<124 359> 529 60<191.708 308.881>
VStem: 56 68<102.688 295 348 445.367> 359 68<113.645 188 348 372 372 468.761>
Fore
259 589 m 0
 360 589 427 498 427 372 c 2
 427 295 l 1
 124 295 l 1
 124 167 l 2
 124 104 180 53 228 53 c 0
 308 53 363 116 363 188 c 1
 431 188 l 1
 431 82 348 -8 228 -8 c 0
 139 -8 56 70 56 167 c 2
 56 336 l 2
 56 516 164 589 259 589 c 0
359 372 m 2
 359 466 312 529 259 529 c 0
 178 529 124 449 124 348 c 1
 359 348 l 1
 359 372 l 2
EndSplineSet
EndChar
StartChar: partialdiff
Encoding: 8706 8706 326
Width: 486
VWidth: 1507
Flags: W
HStem: -8 68<157.582 275.729> 384 61<190.024 359> 638 64<233.516 328.543>
VStem: 56 68<93.198 314.034> 359 68<159.583 384 445 603.378>
Fore
271 702 m 0
 365 702 427 664 427 481 c 2
 427 249 l 2
 427 89 312 -8 216 -8 c 2
 208 -8 l 2
 110 -8 56 83 56 167 c 2
 56 234 l 2
 56 357 157 445 259 445 c 2
 359 445 l 1
 359 481 l 2
 359 606 329 638 271 638 c 0
 251 638 203 632 170 534 c 1
 109 562 l 1
 134 634 174 702 271 702 c 0
211 60 m 0
 292 60 352 142 359 244 c 2
 359 384 l 1
 259 384 l 2
 174 384 124 304 124 234 c 2
 124 167 l 2
 124 129 141 60 211 60 c 0
EndSplineSet
EndChar
StartChar: Delta
Encoding: 8710 8710 327
Width: 598
VWidth: 1507
Flags: W
HStem: 0 65<98 550>
Fore
662 0 m 1
 -6 0 l 1
 332 623 l 1
 662 0 l 1
550 65 m 1
 332 493 l 1
 98 65 l 1
 550 65 l 1
EndSplineSet
EndChar
StartChar: product
Encoding: 8719 8719 328
Width: 798
VWidth: 1507
Flags: W
HStem: 620 63<47 134 205 597 668 755>
VStem: 134 71<-157 620> 597 71<-157 620>
Fore
47 683 m 1
 755 683 l 1
 755 620 l 1
 668 620 l 1
 668 -157 l 1
 597 -157 l 1
 597 620 l 1
 205 620 l 1
 205 -157 l 1
 134 -157 l 1
 134 620 l 1
 47 620 l 1
 47 683 l 1
EndSplineSet
EndChar
StartChar: summation
Encoding: 8721 8721 329
Width: 780
VWidth: 1507
Flags: W
HStem: -175 62<172 727> 620 63<197 728>
Fore
727 -175 m 1
 32 -175 l 1
 421 288 l 1
 38 683 l 1
 728 683 l 1
 728 620 l 1
 197 620 l 1
 514 288 l 1
 172 -113 l 1
 727 -113 l 1
 727 -175 l 1
EndSplineSet
EndChar
StartChar: minus
Encoding: 8722 8722 330
Width: 563
VWidth: 1507
Flags: W
HStem: 300 63<56 520 56 520 56 56>
Fore
56 300 m 1
 56 363 l 1
 520 363 l 1
 520 300 l 1
 56 300 l 1
EndSplineSet
EndChar
StartChar: radical
Encoding: 8730 8730 331
Width: 530
VWidth: 1507
Flags: W
HStem: 336 65<21 109> 695 20G<461.437 540>
Fore
256 -21 m 1
 109 336 l 1
 21 336 l 1
 21 401 l 1
 160 401 l 1
 258 157 l 1
 469 715 l 1
 540 715 l 1
 256 -21 l 1
EndSplineSet
EndChar
StartChar: infinity
Encoding: 8734 8734 332
Width: 949
VWidth: 1507
Flags: W
HStem: 164 59<191.267 327.981 632.322 763.11> 517 54<196.7 317.28 628.179 763.664>
VStem: 75 61<281.168 452.562> 819 60<283.336 459.002>
Fore
136 368 m 0
 136 255 209 223 261 223 c 0
 332 223 394 294 439 371 c 1
 400 419 330 517 258 517 c 256
 203 517 136 464 136 368 c 0
698 571 m 0
 805 571 879 495 879 372 c 0
 879 248 794 164 698 164 c 0
 608 164 546 225 473 327 c 1
 417 241 346 164 258 164 c 0
 148 164 75 253 75 375 c 0
 75 500 154 571 258 571 c 0
 363 571 425 475 476 409 c 1
 531 494 608 571 698 571 c 0
698 222 m 0
 771 222 819 289 819 368 c 0
 819 460 769 517 695 517 c 0
 621 517 549 433 510 363 c 1
 563 303 626 222 698 222 c 0
EndSplineSet
EndChar
StartChar: integral
Encoding: 8747 8747 333
Width: 403
VWidth: 1507
Flags: MW
HStem: -155 68<-40.1921 49.9643> 748 58<279.78 356.876 355.418 358.334 358.334 392>
Fore
392 742 m 1
 362 747 346 748 341 748 c 0
 288 748 261 714 252 662 c 2
 140 -12 l 2
 136 -40 114 -155 9 -155 c 0
 -15 -155 -45 -150 -65 -145 c 1
 -51 -83 l 1
 -42 -85 -33 -87 -5 -87 c 0
 44 -87 69 -56 77 -8 c 2
 187 666 l 2
 192 698 215 806 327 806 c 0
 335 806 374 806 404 799 c 1
 392 742 l 1
EndSplineSet
EndChar
StartChar: notequal
Encoding: 8800 8800 335
Width: 527
VWidth: 1507
Flags: MW
HStem: 185 70<51 163 258 473> 378 70<51 261 354 473>
Fore
223 185 m 1
 158 56 l 1
 98 56 l 1
 163 185 l 1
 51 185 l 1
 51 255 l 1
 197 255 l 1
 261 378 l 1
 51 378 l 1
 51 448 l 1
 295 448 l 1
 366 588 l 1
 425 588 l 1
 354 448 l 1
 473 448 l 1
 473 378 l 1
 320 378 l 1
 258 255 l 1
 473 255 l 1
 473 185 l 1
 223 185 l 1
EndSplineSet
EndChar
StartChar: lessequal
Encoding: 8804 8804 336
Width: 740
VWidth: 1507
Flags: W
Fore
633 598 m 1
 633 525 l 1
 264 368 l 1
 633 211 l 1
 633 137 l 1
 109 368 l 1
 633 598 l 1
87 246 m 1
 644 -15 l 1
 644 -83 l 1
 87 175 l 1
 87 246 l 1
EndSplineSet
EndChar
StartChar: greaterequal
Encoding: 8805 8805 337
Width: 740
VWidth: 1507
Flags: W
HStem: 578 20G<98 143.652>
Fore
623 368 m 1
 98 137 l 1
 98 211 l 1
 467 368 l 1
 98 525 l 1
 98 598 l 1
 623 368 l 1
644 246 m 1
 87 -15 l 1
 87 -83 l 1
 644 175 l 1
 644 246 l 1
EndSplineSet
EndChar
StartChar: lozenge
Encoding: 9674 9674 338
Width: 593
VWidth: 1507
Flags: MW
HStem: 702 20G<284.292 309.708>
VStem: 53 72<338 338> 469 72<338 338>
Fore
469 338 m 1
 297 606 l 1
 125 338 l 1
 297 69 l 1
 469 338 l 1
541 338 m 1
 297 -50 l 1
 53 338 l 1
 297 722 l 1
 541 338 l 1
EndSplineSet
EndChar
StartChar: dottedcircle
Encoding: 9676 9676 339
Width: 615
VWidth: 1507
Flags: W
HStem: 33 57<277.59 334.41> 53 57<181.59 237.463 375.59 432.41> 107 57<99.5905 156.41 457.537 513.41> 190 57<45.5905 102.41 510.537 566.41> 286 58<26.5367 82.4095 532.59 588.463> 381 58<45.5905 102.41 511.59 567.463> 464 58<99.5905 156.41 457.537 513.41> 519 57<181.59 237.463 375.59 432.41> 538 57<277.59 334.41>
VStem: 26 57<286.59 343.41> 45 58<190.59 246.463 381.59 438.41> 99 58<107.59 163.463 464.59 521.41> 181 57<53.5367 109.41 519.537 575.41> 277 58<33.5905 89.4633 538.59 594.463> 375 58<53.5367 109.41 519.537 575.41> 457 57<107.59 163.463 464.59 521.41> 510 57<190.59 246.463 381.729 438.271> 532 57<286.59 343.41>
Fore
277 62 m 256x9c0e
 277 81 287 90 306 90 c 256
 325 90 335 81 335 62 c 256
 335 43 325 33 306 33 c 256
 287 33 277 43 277 62 c 256x9c0e
532 315 m 256x1c0e40
 532 334 542 344 561 344 c 256
 580 344 589 334 589 315 c 256
 589 296 580 286 561 286 c 256
 542 286 532 296 532 315 c 256x1c0e40
26 315 m 256x1c4e
 26 334 35 344 54 344 c 256
 73 344 83 334 83 315 c 256
 83 296 73 286 54 286 c 256
 35 286 26 296 26 315 c 256x1c4e
277 567 m 256
 277 586 287 595 306 595 c 256
 325 595 335 586 335 567 c 256
 335 548 325 538 306 538 c 256x1c8e
 287 538 277 548 277 567 c 256
99 493 m 256x1e1e
 99 512 109 522 128 522 c 256
 147 522 157 512 157 493 c 256
 157 474 147 464 128 464 c 256
 109 464 99 474 99 493 c 256x1e1e
457 493 m 256x1e0f
 457 512 466 522 485 522 c 256
 504 522 514 512 514 493 c 256
 514 474 504 464 485 464 c 256
 466 464 457 474 457 493 c 256x1e0f
99 136 m 256x3c1e
 99 155 109 164 128 164 c 256
 147 164 157 155 157 136 c 256
 157 117 147 107 128 107 c 256
 109 107 99 117 99 136 c 256x3c1e
457 136 m 256x3c0f
 457 155 466 164 485 164 c 256
 504 164 514 155 514 136 c 256
 514 117 504 107 485 107 c 256
 466 107 457 117 457 136 c 256x3c0f
375 81 m 256
 375 100 385 110 404 110 c 256
 423 110 433 100 433 81 c 256
 433 62 423 53 404 53 c 256x5c0e
 385 53 375 62 375 81 c 256
181 81 m 256
 181 100 191 110 210 110 c 256
 229 110 238 100 238 81 c 256
 238 62 229 53 210 53 c 256
 191 53 181 62 181 81 c 256
510 219 m 256x1c0e80
 510 238 519 247 538 247 c 256
 557 247 567 238 567 219 c 256
 567 200 557 190 538 190 c 256
 519 190 510 200 510 219 c 256x1c0e80
45 219 m 256x1c2e
 45 238 55 247 74 247 c 256
 93 247 103 238 103 219 c 256
 103 200 93 190 74 190 c 256
 55 190 45 200 45 219 c 256x1c2e
45 410 m 256
 45 429 55 439 74 439 c 256
 93 439 103 429 103 410 c 256
 103 391 93 381 74 381 c 256
 55 381 45 391 45 410 c 256
511 410 m 256
 511 429 521 439 540 439 c 256
 559 439 568 429 568 410 c 256
 568 391 559 381 540 381 c 256
 521 381 511 391 511 410 c 256
375 547 m 256
 375 566 385 576 404 576 c 256
 423 576 433 566 433 547 c 256
 433 528 423 519 404 519 c 256x1d0e
 385 519 375 528 375 547 c 256
181 547 m 256
 181 566 191 576 210 576 c 256
 229 576 238 566 238 547 c 256
 238 528 229 519 210 519 c 256
 191 519 181 528 181 547 c 256
EndSplineSet
EndChar
StartChar: uni0E10.alt1
Encoding: 63232 63232 340
Width: 538
VWidth: 1507
Flags: W
HStem: 0 60<279 326.248> 134 45<143.544 208.321> 285 45<142.355 225.175> 494 55<307.315 453.726> 543 54<148.627 289.016>
VStem: 41 68<451 500.221> 87 44<190.83 274.118> 211 68<60 139> 237 42<190.197 273.921> 356 68<90.8734 143 143 315>
Fore
109 451 m 1xed40
 229 433 330 396 424 342 c 1
 424 152 l 2
 424 79 361 0 279 0 c 2xecc0
 211 0 l 1
 211 139 l 1xe940
 202 136 193 134 184 134 c 0
 130 134 87 181 87 232 c 256
 87 286 132 330 184 330 c 256
 235 330 279 290 279 232 c 2xeac0
 279 60 l 1
 321 64 356 102 356 143 c 2
 356 315 l 1
 283 358 178 390 41 410 c 1
 41 578 164 597 199 597 c 0xed40
 257 597 326 556 389 549 c 0
 426 549 456 568 493 603 c 1
 493 540 l 1
 481 525 454 494 395 494 c 0xf540
 331 494 266 543 199 543 c 0
 154 543 109 490 109 451 c 1xed40
131 232 m 0xe2c0
 131 207 155 179 184 179 c 256
 214 179 237 205 237 232 c 256
 237 262 211 285 184 285 c 256
 154 285 131 259 131 232 c 0xe2c0
EndSplineSet
EndChar
StartChar: uni0E48.alt2
Encoding: 63242 63242 350
Width: 0
VWidth: 1507
Flags: W
VStem: -196 65<737 972 737 972 737 737>
Fore
-196 972 m 1
 -131 972 l 1
 -131 737 l 1
 -196 737 l 1
 -196 972 l 1
EndSplineSet
Substitution2: "Single Substitution lookup 20 subtable" uni0E48.alt3
Substitution2: "Single Substitution lookup 21 subtable" uni0E48
Substitution2: "Single Substitution lookup 22 subtable" uni0E48.alt1
Substitution2: "Single Substitution lookup 20 subtable" uni0E48.alt3
Substitution2: "Single Substitution lookup 21 subtable" uni0E48
Substitution2: "Single Substitution lookup 22 subtable" uni0E48.alt1
EndChar
StartChar: uni0E49.alt2
Encoding: 63243 63243 351
Width: 0
VWidth: 1507
Flags: MW
HStem: 711 59<-234 -157.28> 942 38<-293.089 -220.381>
VStem: -339 38<858.595 934.098> -211 39<858.403 933.102> -66 55<870.454 953>
Fore
-11 953 m 1
 -11 821 -122 711 -235 711 c 0
 -270 711 -305 714 -362 760 c 1
 -331 765 -300 774 -262 812 c 1
 -303 818 -339 854 -339 895 c 256
 -339 939 -300 980 -256 980 c 256
 -213 980 -172 944 -172 895 c 0
 -172 857 -175 818 -234 770 c 1
 -128 770 -71 870 -66 953 c 1
 -11 953 l 1
-211 895 m 0
 -211 919 -235 942 -256 942 c 256
 -278 942 -301 921 -301 895 c 256
 -301 872 -281 852 -256 852 c 256
 -232 852 -211 868 -211 895 c 0
EndSplineSet
Substitution2: "Single Substitution lookup 20 subtable" uni0E49.alt3
Substitution2: "Single Substitution lookup 21 subtable" uni0E49
Substitution2: "Single Substitution lookup 22 subtable" uni0E49.alt1
Substitution2: "Single Substitution lookup 20 subtable" uni0E49.alt3
Substitution2: "Single Substitution lookup 21 subtable" uni0E49
Substitution2: "Single Substitution lookup 22 subtable" uni0E49.alt1
EndChar
StartChar: uni0E4A.alt2
Encoding: 63244 63244 352
Width: 0
VWidth: 1507
Flags: MW
HStem: 705 37<-364.016 -291.176> 825 36<-349.51 -291.906> 915 48<-324.258 -259>
VStem: -405 36<746.86 819.861> -285 36<748.338 818.028> -133 47<785 908.058> -32 46<910.247 965>
Fore
-86 785 m 1
 -38 828 -32 923 -32 965 c 1
 14 965 l 1
 14 869 -27 715 -133 715 c 1
 -133 855 l 2
 -133 899 -158 913 -167 915 c 1
 -211 793 l 1
 -259 915 l 1
 -299 915 -347 890 -350 858 c 1
 -345 860 -338 861 -329 861 c 0
 -292 861 -249 825 -249 782 c 0
 -249 747 -283 705 -329 705 c 0
 -371 705 -405 743 -405 782 c 2
 -405 838 l 2
 -405 938 -296 963 -243 963 c 1
 -214 873 l 1
 -181 963 l 1
 -105 963 -86 903 -86 855 c 2
 -86 785 l 1
-369 782 m 0
 -369 759 -350 742 -329 742 c 256
 -306 742 -285 761 -285 782 c 256
 -285 804 -305 825 -329 825 c 256
 -350 825 -369 806 -369 782 c 0
EndSplineSet
Substitution2: "Single Substitution lookup 20 subtable" uni0E4A.alt3
Substitution2: "Single Substitution lookup 21 subtable" uni0E4A
Substitution2: "Single Substitution lookup 22 subtable" uni0E4A.alt1
Substitution2: "Single Substitution lookup 20 subtable" uni0E4A.alt3
Substitution2: "Single Substitution lookup 21 subtable" uni0E4A
Substitution2: "Single Substitution lookup 22 subtable" uni0E4A.alt1
EndChar
StartChar: uni0E4B.alt2
Encoding: 63245 63245 353
Width: 0
VWidth: 1507
Flags: W
HStem: 715 21G<-241 -173> 834 61<-354 -241 -173 -60 -354 -60 -354 -354>
VStem: -241 68<715 834 895 1014>
Fore
-60 895 m 1
 -60 834 l 1
 -173 834 l 1
 -173 715 l 1
 -241 715 l 1
 -241 834 l 1
 -354 834 l 1
 -354 895 l 1
 -241 895 l 1
 -241 1014 l 1
 -173 1014 l 1
 -173 895 l 1
 -60 895 l 1
EndSplineSet
Substitution2: "Single Substitution lookup 20 subtable" uni0E4B.alt3
Substitution2: "Single Substitution lookup 21 subtable" uni0E4B
Substitution2: "Single Substitution lookup 22 subtable" uni0E4B.alt1
Substitution2: "Single Substitution lookup 20 subtable" uni0E4B.alt3
Substitution2: "Single Substitution lookup 21 subtable" uni0E4B
Substitution2: "Single Substitution lookup 22 subtable" uni0E4B.alt1
EndChar
StartChar: uni0E4C.alt2
Encoding: 63246 63246 354
Width: 0
VWidth: 1507
Flags: W
HStem: 719 44<-255.857 -172.097> 858 54<-125 -20.3709> 868 44<-256.433 -171.412>
VStem: -312 45<774.404 857.24> -161 43<774.201 850.207> 36 54<958.751 1016>
Fore
-86 912 m 2xdc
 -13 912 30 979 36 1016 c 1
 90 1016 l 1
 83 946 16 858 -86 858 c 2
 -125 858 l 1xdc
 -120 847 -118 833 -118 816 c 0
 -118 764 -157 719 -214 719 c 0
 -265 719 -312 760 -312 816 c 256
 -312 868 -268 912 -214 912 c 2xbc
 -86 912 l 2xdc
-214 763 m 256
 -187 763 -161 785 -161 816 c 256
 -161 846 -187 868 -214 868 c 256xbc
 -241 868 -267 846 -267 816 c 256
 -267 785 -241 763 -214 763 c 256
EndSplineSet
Substitution2: "Single Substitution lookup 20 subtable" uni0E4C.alt3
Substitution2: "Single Substitution lookup 21 subtable" uni0E4C
Substitution2: "Single Substitution lookup 22 subtable" uni0E4C.alt1
Substitution2: "Single Substitution lookup 20 subtable" uni0E4C.alt3
Substitution2: "Single Substitution lookup 21 subtable" uni0E4C
Substitution2: "Single Substitution lookup 22 subtable" uni0E4C.alt1
EndChar
StartChar: uni0E0D.alt1
Encoding: 63247 63247 355
Width: 860
VWidth: 1507
Flags: W
HStem: 0 60<516 680.89> 0 47<164.425 246.882> 152 42<179.295 247.738> 537 60<203.255 415.43>
VStem: 110 45<57.0913 143.404> 110 68<190 364.75> 258 43<57.709 141.298> 448 68<61.2426 502.442> 716 68<95.7656 597>
Fore
124 422 m 1xb780
 141 408 173 380 178 312 c 2
 178 190 l 1xb780
 187 193 196 194 205 194 c 0
 247 194 301 160 301 98 c 0
 301 44 257 0 205 0 c 0
 154 0 110 39 110 83 c 2x7b80
 110 312 l 2
 110 350 76 388 42 392 c 1
 56 508 157 597 270 597 c 2
 363 597 l 2
 431 597 516 532 516 446 c 2
 516 60 l 1
 633 60 l 2
 675 64 716 104 716 154 c 2
 716 597 l 1
 784 597 l 1
 784 154 l 2
 784 73 715 -0 633 0 c 2
 517 0 l 2
 476 0 451 40 448 68 c 2
 448 446 l 2
 448 495 406 537 363 537 c 2
 267 537 l 2
 204 537 141 474 124 422 c 1xb780
258 99 m 256
 258 130 232 152 205 152 c 256
 177 152 155 130 155 99 c 256
 155 69 178 47 205 47 c 256x7b80
 232 47 258 69 258 99 c 256
EndSplineSet
EndChar
StartChar: uni0E38.alt1
Encoding: 63256 63256 364
Width: 0
VWidth: 1507
Flags: W
HStem: -249 38<-202.737 -143.889> -121 38<-203.776 -125.995>
VStem: -247 37<-204.909 -127.317> -143 68<-301 -246> -119 44<-204.444 -127.719>
Fore
-164 -83 m 0xf0
 -130 -83 -75 -108 -75 -164 c 2xe8
 -75 -301 l 1
 -143 -301 l 1
 -143 -246 l 1
 -147 -248 -151 -249 -154 -249 c 2
 -164 -249 l 2
 -212 -249 -247 -210 -247 -166 c 0
 -247 -119 -206 -83 -164 -83 c 0xf0
-164 -211 m 0
 -140 -211 -119 -193 -119 -166 c 0
 -119 -142 -137 -121 -164 -121 c 0
 -192 -121 -210 -141 -210 -166 c 256
 -210 -191 -192 -211 -164 -211 c 0
EndSplineSet
EndChar
StartChar: uni0E39.alt1
Encoding: 63257 63257 365
Width: 0
VWidth: 1507
Flags: W
HStem: -301 60<-202 -146> -252 38<-329.737 -270.889> -124 41<-330.264 -252.924>
VStem: -374 38<-208.173 -140.515> -246 44<-207.444 -131.094> -146 68<-241 -86>
Fore
-291 -83 m 0x7c
 -253 -83 -202 -113 -202 -167 c 2
 -202 -241 l 1
 -146 -241 l 1
 -146 -86 l 1
 -78 -86 l 1
 -78 -241 l 2
 -78 -281 -101 -301 -146 -301 c 2
 -270 -301 l 1xbc
 -270 -249 l 1
 -274 -251 -278 -252 -281 -252 c 2
 -291 -252 l 2
 -339 -252 -374 -213 -374 -169 c 0
 -374 -125 -336 -83 -291 -83 c 0x7c
-291 -214 m 0x7c
 -267 -214 -246 -196 -246 -169 c 0
 -246 -149 -261 -124 -291 -124 c 0
 -327 -124 -336 -153 -336 -169 c 256
 -336 -194 -320 -214 -291 -214 c 0x7c
EndSplineSet
EndChar
StartChar: uni0E0E.alt1
Encoding: 63259 63259 367
Width: 615
VWidth: 1507
Flags: W
HStem: -116 44<149.086 232.437> 32 43<148.016 224.68> 90 44<91.0308 174.803> 237 43<92.0172 159.008> 537 60<219.258 433.594>
VStem: 38 43<145.19 227.533> 95 44<-61.8998 22.8845> 160 68<277 353.066> 185 43<144 228.043> 466 68<24.6509 502.442>
Fore
381 597 m 2xff40
 449 597 534 532 534 446 c 2
 534 80 l 2
 534 -2 462 -75 383 -75 c 1
 286 -27 l 1
 282 -79 237 -116 190 -116 c 256
 143 -116 95 -74 95 -20 c 256
 95 36 141 75 190 75 c 0
 204 75 216 75 262 50 c 2
 383 -14 l 1
 422 -10 466 28 466 90 c 2
 466 446 l 2
 466 491 429 537 381 537 c 2
 286 537 l 2
 221 537 164 479 143 427 c 1
 185 412 228 357 228 311 c 2xff40
 228 181 l 2xfec0
 228 127 180 90 133 90 c 0
 78 90 38 137 38 185 c 0
 38 241 81 280 133 280 c 2
 146 280 l 2
 150 280 155 279 160 277 c 1
 160 311 l 2
 160 344 103 393 62 396 c 1
 72 503 169 597 289 597 c 2
 381 597 l 2xff40
133 237 m 256
 105 237 81 216 81 185 c 256
 81 156 107 134 133 134 c 0
 163 134 185 158 185 185 c 0xfec0
 185 216 162 237 133 237 c 256
190 32 m 0
 162 32 139 11 139 -20 c 256
 139 -49 164 -72 190 -72 c 0
 217 -72 243 -50 243 -20 c 256
 243 1 232 32 190 32 c 0
EndSplineSet
EndChar
StartChar: uni0E0F.alt1
Encoding: 63260 63260 368
Width: 613
VWidth: 1507
Flags: W
HStem: -134 44<84.0927 167.367> -20 20G<215.5 221.5> 15 44<83.6697 197.599> 90 44<91.3149 175.951> 237 43<93.675 159.645> 537 60<219.258 433.594>
VStem: 29 43<-78.5575 3.3829> 38 43<144.933 224.993> 160 68<277 353.233> 178 44<-78.8317 -5.4355 142.754 227.34> 466 68<30.2912 502.442>
Fore
381 597 m 2xfda0
 449 597 534 532 534 446 c 2
 534 78 l 2
 534 12 492 -28 418 -75 c 1
 357 41 l 1
 289 -75 l 1
 259 -21 230 -4 213 0 c 1
 218 -5 222 -15 222 -38 c 0
 222 -93 174 -134 125 -134 c 0
 70 -134 29 -88 29 -38 c 256xfe60
 29 18 74 59 125 59 c 0
 219 59 241 53 288 6 c 1
 360 131 l 1
 424 14 l 1
 459 37 466 51 466 78 c 2
 466 446 l 2
 466 491 429 537 381 537 c 2
 286 537 l 2
 221 537 164 479 143 427 c 1
 164 418 228 376 228 312 c 2
 228 181 l 2
 228 127 180 90 133 90 c 256
 84 90 38 131 38 185 c 0
 38 235 80 280 133 280 c 2
 147 280 l 2
 152 280 156 279 160 277 c 1
 160 311 l 2
 160 344 103 393 62 396 c 1
 72 503 169 597 289 597 c 2
 381 597 l 2xfda0
133 237 m 0
 105 234 81 212 81 185 c 0xfd20
 81 156 107 134 133 134 c 0
 164 134 185 157 185 185 c 256
 185 216 161 237 133 237 c 0
125 15 m 256
 95 15 72 -11 72 -38 c 0
 72 -61 94 -90 125 -90 c 256
 152 -90 178 -68 178 -38 c 256xfe60
 178 -8 152 15 125 15 c 256
EndSplineSet
EndChar
StartChar: uni0E2C.alt1
Encoding: 63261 63261 369
Width: 714
VWidth: 1507
Flags: W
HStem: -3 21G<205.5 235.388 540.124 572.5> 409 43<99.7847 166.064> 472 44<483.084 559.822> 555 42<99.3812 181.832> 620 42<483.981 566.232>
VStem: 47 42<463.059 544.873> 167 68<143 413> 191 44<462.293 544.51> 430 43<526.6 609.047> 567 68<133.443 481>
Fore
529 662 m 0xfec0
 578 662 621 622 629 574 c 1
 645 590 658 613 669 642 c 1
 718 642 l 1
 697 592 670 549 635 513 c 1
 635 151 l 2
 635 58 596 7 549 -3 c 1
 399 335 l 1
 225 0 l 1
 186 0 167 22 167 66 c 2
 167 413 l 1xfec0
 158 410 149 409 140 409 c 0
 89 409 47 454 47 503 c 0
 47 558 92 597 140 597 c 256
 193 597 235 552 235 503 c 2xfdc0
 235 143 l 1
 396 458 l 1
 407 455 414 448 419 436 c 2
 559 127 l 1
 563 131 567 136 567 158 c 2
 567 481 l 1
 560 477 551 472 526 472 c 0
 471 472 430 517 430 567 c 256
 430 622 479 662 529 662 c 0xfec0
577 567 m 256
 577 596 552 620 526 620 c 0
 496 620 473 594 473 567 c 256
 473 537 499 516 526 516 c 0
 552 516 577 538 577 567 c 256
191 503 m 0xfdc0
 191 534 168 555 140 555 c 256
 111 555 89 529 89 503 c 0
 89 482 109 452 140 452 c 256
 169 452 191 478 191 503 c 0xfdc0
EndSplineSet
EndChar
StartChar: uni0E24.liga
Encoding: 63617 63617 371
Width: 928
VWidth: 1507
Flags: W
HStem: 0 42<174.297 256.779> 148 42<188.832 256.38> 529 68<598.742 769.385> 537 60<211.267 423.693>
VStem: 119 44<52.9775 136.811> 119 68<187 366.178> 267 45<51.5291 137.219> 457 68<-255 421> 799 71<-255 499.969>
Fore
719 597 m 2xe780
 808 597 868 526 868 446 c 2
 870 -255 l 1
 799 -255 l 1
 799 446 l 2
 799 496 758 525 719 529 c 2
 669 529 l 2xe780
 579 523 540 454 525 421 c 1
 525 -255 l 1
 457 -255 l 1
 457 446 l 2
 457 495 415 537 372 537 c 2
 277 537 l 2
 213 537 153 471 134 422 c 1
 149 410 187 378 187 311 c 2
 187 187 l 1xd780
 192 189 196 190 201 190 c 2
 216 190 l 2
 257 190 312 148 312 96 c 0
 312 41 267 0 216 0 c 0
 175 0 126 30 119 78 c 1xdb80
 119 312 l 2
 119 351 88 388 53 392 c 1
 63 500 162 597 280 597 c 2
 372 597 l 2xd780
 431 597 479 557 503 517 c 1
 517 529 l 2
 559 572 611 595 672 597 c 2
 719 597 l 2xe780
216 148 m 256
 184 148 163 119 163 96 c 0xcb80
 163 69 185 42 216 42 c 256
 244 42 267 65 267 96 c 0
 267 122 245 148 216 148 c 256
EndSplineSet
LCarets2: 1 0 
Ligature2: "'liga' Standard Ligatures in Latin lookup 19 subtable" uni0E24 uni0E45
Ligature2: "'liga' Standard Ligatures in Latin lookup 19 subtable" uni0E24 uni0E32
EndChar
StartChar: uni0E26.liga
Encoding: 63618 63618 372
Width: 928
VWidth: 1507
Flags: W
HStem: 0 44<84.1011 168.326> 148 43<84.7311 150.893> 529 68<598.138 770.733> 537 60<210.258 423.693>
VStem: 30 43<54.1153 136.327> 152 68<187 353.301> 178 42<55.2656 136.921> 457 68<-255 422> 799 71<-255 500.661>
Fore
134 427 m 1xdd80
 169 414 220 363 220 312 c 2xdd80
 220 90 l 2xdb80
 220 41 173 0 125 0 c 0
 70 0 30 48 30 95 c 0
 30 150 76 191 125 191 c 0
 134 191 143 190 152 187 c 1
 152 311 l 2
 152 344 98 393 53 396 c 1
 63 503 160 597 280 597 c 2
 372 597 l 2xdd80
 431 597 479 557 503 517 c 1
 517 529 l 2
 559 572 611 595 672 597 c 2
 719 597 l 2
 811 597 870 521 870 446 c 2
 870 -255 l 1
 799 -255 l 1
 799 446 l 2
 799 496 758 525 719 529 c 2
 669 529 l 2xed80
 579 523 537 452 525 422 c 1
 525 -255 l 1
 457 -255 l 1
 457 446 l 2
 457 495 415 537 372 537 c 2
 277 537 l 2
 212 537 155 479 134 427 c 1xdd80
73 95 m 0
 73 72 94 44 125 44 c 256
 152 44 178 65 178 95 c 256xcb80
 178 125 152 148 125 148 c 256
 94 148 73 118 73 95 c 0
EndSplineSet
LCarets2: 1 0 
Ligature2: "'liga' Standard Ligatures in Latin lookup 19 subtable" uni0E26 uni0E45
Ligature2: "'liga' Standard Ligatures in Latin lookup 19 subtable" uni0E26 uni0E32
EndChar
StartChar: fi
Encoding: 64257 64257 373
Width: 553
VWidth: 1507
Flags: W
HStem: 0 21G<128 196 393 461> 458 53<30 128 196 393> 647 68<258.52 332>
VStem: 128 68<0 458 511 585.484> 393 68<0 458>
Fore
128 458 m 1
 30 458 l 1
 30 511 l 1
 128 511 l 1
 128 612 211 715 332 715 c 1
 332 647 l 1
 250 647 197 584 196 511 c 1
 461 511 l 1
 461 0 l 1
 393 0 l 1
 393 458 l 1
 196 458 l 1
 196 0 l 1
 128 0 l 1
 128 458 l 1
EndSplineSet
LCarets2: 1 0 
Ligature2: "'liga' Standard Ligatures in Latin lookup 19 subtable" f i
EndChar
StartChar: fl
Encoding: 64258 64258 374
Width: 566
VWidth: 1507
Flags: W
HStem: 0 21G<128 196 410 478> 458 53<30 128 196 410> 647 68<258.52 332>
VStem: 128 68<0 458 511 585.484> 410 68<0 458 511 716>
Fore
410 458 m 1
 196 458 l 1
 196 0 l 1
 128 0 l 1
 128 458 l 1
 30 458 l 1
 30 511 l 1
 128 511 l 1
 128 612 211 715 332 715 c 1
 332 647 l 1
 250 647 197 584 196 511 c 1
 410 511 l 1
 410 716 l 1
 478 716 l 1
 478 0 l 1
 410 0 l 1
 410 458 l 1
EndSplineSet
LCarets2: 1 0 
Ligature2: "'liga' Standard Ligatures in Latin lookup 19 subtable" f l
EndChar
StartChar: PITA
Encoding: 65541 -1 375
Width: 1418
VWidth: 1507
Flags: W
HStem: 238 39<89 1334> 478 36<1025 1224> 564 36<116 357.943> 684 17<1317.47 1426.81> 733 15<1342.44 1401.69> 751 36<116 357.695 626 761 802 935> 831 15<1343.85 1400> 873 18<1318 1426.67>
VStem: 75 41<357 564 600 751> 380 41<621.431 727.962> 505 41<357 787> 761 41<357 751> 1271 18<728.969 844.454> 1323 19<757.948 815.133> 1402 16<749.014 773 811 824.174> 1456 17<730.549 843.545>
Fore
89 277 m 1
 1334 277 l 1
 1334 238 l 1
 89 238 l 1
 89 277 l 1
421 674 m 0
 421 608 367 564 308 564 c 2
 116 564 l 1
 116 357 l 1
 75 357 l 1
 75 787 l 1
 308 787 l 2
 367 787 421 741 421 674 c 0
380 674 m 256
 380 713 351 751 308 751 c 2
 116 751 l 1
 116 600 l 1
 308 600 l 2
 347 600 380 632 380 674 c 256
505 787 m 1
 546 787 l 1
 546 357 l 1
 505 357 l 1
 505 787 l 1
761 751 m 1
 626 751 l 1
 626 787 l 1
 935 787 l 1
 935 751 l 1
 802 751 l 1
 802 357 l 1
 761 357 l 1
 761 751 l 1
1102 788 m 1
 1117 788 1150 785 1162 755 c 2
 1340 357 l 1
 1293 357 l 1
 1242 478 l 1
 1008 478 l 1
 956 357 l 1
 912 357 l 1
 1102 788 l 1
1025 514 m 1
 1224 514 l 1
 1125 740 l 1
 1025 514 l 1
1271 787 m 0
 1271 833 1309 891 1372 891 c 0
 1431 891 1473 840 1473 787 c 0
 1473 729 1427 684 1372 684 c 256
 1316 684 1271 729 1271 787 c 0
1456 787 m 256
 1456 836 1416 873 1372 873 c 0
 1322 873 1289 830 1289 787 c 0
 1289 743 1322 701 1372 701 c 256
 1416 701 1456 738 1456 787 c 256
1323 800 m 2
 1323 828 1346 846 1367 846 c 2
 1381 846 l 2
 1405 846 1417 834 1417 811 c 1
 1400 811 l 1
 1400 824 1394 831 1381 831 c 2
 1367 831 l 2
 1352 831 1342 815 1342 800 c 2
 1342 772 l 2
 1342 764 1346 748 1361 748 c 2
 1373 748 l 2
 1390 748 1402 758 1402 773 c 1
 1418 773 l 1
 1418 749 1400 733 1373 733 c 2
 1361 733 l 2
 1339 733 1323 750 1323 769 c 2
 1323 800 l 2
EndSplineSet
LCarets2: 6 0 0 0 0 0 0 
Ligature2: "'liga' Standard Ligatures in Latin lookup 19 subtable" P I T A parenleft c parenright
EndChar
StartChar: franc
Encoding: 8355 8355 467
Width: 682
VWidth: 1507
Flags: W
HStem: 0 21G<188 256> 259 64<66 188 256 532> 383 63<66 188 256 532> 656 60<256 617>
VStem: 188 68<0 259 323 383 446 656>
Fore
256 323 m 1
 532 323 l 1
 532 259 l 1
 256 259 l 1
 256 0 l 1
 188 0 l 1
 188 259 l 1
 66 259 l 1
 66 323 l 1
 188 323 l 1
 188 383 l 1
 66 383 l 1
 66 446 l 1
 188 446 l 1
 188 716 l 1
 617 716 l 1
 617 656 l 1
 256 656 l 1
 256 446 l 1
 532 446 l 1
 532 383 l 1
 256 383 l 1
 256 323 l 1
EndSplineSet
EndChar
StartChar: dong
Encoding: 8363 8363 468
Width: 569
VWidth: 1507
Flags: W
HStem: -137 60<96 461> -8 61<152.181 329.796> 458 61<182.926 367.055> 583 64<267 412 479 576> 696 20G<412 479>
VStem: 48 68<92.2853 384.904> 412 67<-3 69 133.878 409.823 472 583 647 716>
Fore
312 519 m 2
 355 519 375 514 412 472 c 1
 412 583 l 1
 267 583 l 1
 267 647 l 1
 412 647 l 1
 412 716 l 1
 479 716 l 1
 479 647 l 1
 576 647 l 1
 576 583 l 1
 479 583 l 1
 479 -3 l 1
 412 -3 l 1
 412 69 l 1
 393 43 328 -8 261 -8 c 2
 200 -8 l 2
 109 -8 48 73 48 167 c 2
 48 308 l 2
 48 424 142 519 252 519 c 2
 312 519 l 2
261 53 m 2
 333 53 406 123 412 197 c 2
 412 351 l 2
 408 398 369 458 312 458 c 2
 252 458 l 2
 167 458 116 375 116 308 c 2
 116 167 l 2
 116 127 138 53 200 53 c 2
 261 53 l 2
96 -137 m 1
 96 -77 l 1
 461 -77 l 1
 461 -137 l 1
 96 -137 l 1
EndSplineSet
EndChar
StartChar: Dcroat
Encoding: 272 272 475
Width: 803
VWidth: 1507
Flags: W
HStem: 0 60<202 540.931> 335 63<66 134 202 455> 656 60<202 578.398>
VStem: 134 68<61.1073 335 398 656> 669 68<191.625 565.608>
Fore
669 481 m 2
 669 583 587 656 502 656 c 2
 202 656 l 1
 202 398 l 1
 455 398 l 1
 455 335 l 1
 202 335 l 1
 202 60 l 1
 452 60 l 2
 567 60 669 158 669 286 c 2
 669 481 l 2
197 0 m 2
 165 0 134 31 134 66 c 2
 134 335 l 1
 66 335 l 1
 66 398 l 1
 134 398 l 1
 134 716 l 1
 502 716 l 2
 643 716 737 607 737 481 c 2
 737 286 l 2
 737 120 603 -0 452 0 c 2
 197 0 l 2
EndSplineSet
EndChar
StartChar: dcroat
Encoding: 273 273 476
Width: 569
VWidth: 1507
Flags: W
HStem: -8 61<152.181 329.796> 458 61<182.926 367.055> 583 64<267 412 479 576> 696 20G<412 479>
VStem: 48 68<92.2853 384.904> 412 67<-3 69 133.878 409.823 472 583 647 716>
Fore
312 519 m 2
 355 519 375 514 412 472 c 1
 412 583 l 1
 267 583 l 1
 267 647 l 1
 412 647 l 1
 412 716 l 1
 479 716 l 1
 479 647 l 1
 576 647 l 1
 576 583 l 1
 479 583 l 1
 479 -3 l 1
 412 -3 l 1
 412 69 l 1
 393 43 328 -8 261 -8 c 2
 200 -8 l 2
 109 -8 48 73 48 167 c 2
 48 308 l 2
 48 424 142 519 252 519 c 2
 312 519 l 2
261 53 m 2
 333 53 406 123 412 197 c 2
 412 351 l 2
 408 398 369 458 312 458 c 2
 252 458 l 2
 167 458 116 375 116 308 c 2
 116 167 l 2
 116 127 138 53 200 53 c 2
 261 53 l 2
EndSplineSet
EndChar
StartChar: Idotaccent
Encoding: 304 304 481
Width: 245
VWidth: 1507
Flags: W
HStem: 0 21G<90 151> 814 112<77.6249 167.468>
VStem: 66 113<825.951 914.073> 90 61<0 733>
Fore
90 0 m 1xd0
 90 733 l 1
 151 733 l 1
 151 0 l 1
 90 0 l 1xd0
121 814 m 0
 93 814 66 837 66 868 c 0
 66 909 98 926 121 926 c 0
 153 926 179 905 179 868 c 0xe0
 179 838 155 814 121 814 c 0
EndSplineSet
EndChar
StartChar: dotlessi
Encoding: 305 305 482
Width: 248
VWidth: 1507
Flags: W
HStem: 0 511<90 158 90 158 90 90>
VStem: 90 68<0 511>
Fore
90 0 m 1
 90 511 l 1
 158 511 l 1
 158 0 l 1
 90 0 l 1
EndSplineSet
EndChar
StartChar: Scedilla
Encoding: 350 350 483
Width: 765
VWidth: 1507
Flags: W
HStem: -185 52<346.864 416.734> -15 60<214.364 350 407 543.406> 674 59<234.576 541.151>
VStem: 51 68<143.594 225> 81 68<478.678 602.528> 286 59<-130.65 -98> 421 58<-128.105 -81.7643> 615 68<526 599.751> 645 68<138.851 292.088>
Fore
345 -98 m 1xee80
 345 -116 355 -133 372 -133 c 2
 384 -133 l 2
 418 -133 421 -124 421 -110 c 0
 421 -77 350 -74 350 -15 c 1
 297 -15 l 2
 166 -15 51 81 51 225 c 1
 119 225 l 1
 119 125 199 45 297 45 c 2
 448 45 l 2
 564 45 645 127 645 208 c 0xf680
 645 302 594 336 534 344 c 2
 235 381 l 2
 92 409 81 482 81 544 c 0
 81 679 234 733 315 733 c 2
 467 733 l 2
 586 733 683 650 683 526 c 1
 615 526 l 1xef
 615 601 552 674 467 674 c 2
 315 674 l 2
 263 674 149 630 149 544 c 0
 149 505 155 462 246 449 c 2
 541 412 l 2
 670 389 713 309 713 208 c 0
 713 65 576 -15 448 -15 c 2
 407 -15 l 1
 422 -54 479 -50 479 -112 c 0
 479 -141 470 -160 452 -170 c 0
 433 -180 411 -185 384 -185 c 2
 372 -185 l 2
 320 -181 286 -154 286 -98 c 1
 345 -98 l 1xee80
EndSplineSet
EndChar
StartChar: scedilla
Encoding: 351 351 484
Width: 572
VWidth: 1507
Flags: W
HStem: -185 52<253.864 322.912> -8 61<153.512 256 312 424.374> 458 61<184.103 419.488>
VStem: 48 68<93.9287 152> 72 68<322.681 417.222> 193 59<-130.65 -98> 327 59<-132.093 -81.6777> 457 68<359 417.071> 470 68<93.9494 201.825>
Fore
357 53 m 2xf680
 392 53 470 84 470 140 c 0xf680
 470 207 429 216 404 220 c 2
 190 246 l 2
 115 257 72 295 72 369 c 0
 72 469 175 519 253 519 c 2
 357 519 l 2
 452 519 525 455 525 359 c 1
 457 359 l 1
 457 411 414 458 357 458 c 2
 253 458 l 2
 203 458 140 420 140 371 c 0xef
 140 343 145 318 207 306 c 2
 421 280 l 2
 509 266 538 212 538 142 c 0
 538 52 453 -8 357 -8 c 2
 312 -8 l 1
 312 -9 l 1
 328 -57 386 -50 386 -112 c 0
 386 -141 377 -160 358 -170 c 0
 339 -180 317 -185 291 -185 c 2
 279 -185 l 2
 227 -181 193 -154 193 -98 c 1
 252 -98 l 1
 252 -116 262 -133 279 -133 c 2
 291 -133 l 2
 323 -133 327 -125 327 -110 c 0
 327 -75 256 -77 256 -9 c 2
 256 -8 l 1
 216 -8 l 2
 121 -8 48 56 48 152 c 1
 116 152 l 1
 116 100 159 53 216 53 c 2
 357 53 l 2xf680
EndSplineSet
EndChar
StartChar: Ohorn
Encoding: 416 416 487
Width: 706
VWidth: 1507
Flags: W
HStem: -15 60<217.668 454.688> 671 60<258.566 458.884>
VStem: 53 68<147.95 526.988> 588 68<187.007 481 481 566.72> 656 68<792.247 852>
Fore
615 618 m 1
 645 572 656 522 656 481 c 2
 656 286 l 2
 656 131 531 -15 371 -15 c 2
 288 -15 l 2
 157 -15 53 100 53 235 c 2
 53 430 l 2
 53 585 175 731 339 731 c 2
 421 731 l 2
 436 731 502 732 568 672 c 1
 634 696 656 762 656 852 c 1
 724 852 l 1
 724 810 721 663 615 618 c 1
371 45 m 2
 489 45 588 165 588 286 c 2
 588 481 l 2
 588 575 513 671 421 671 c 2
 339 671 l 2
 226 671 121 558 121 430 c 2
 121 235 l 2
 121 138 196 45 288 45 c 2
 371 45 l 2
EndSplineSet
EndChar
StartChar: ohorn
Encoding: 417 417 488
Width: 536
VWidth: 1507
Flags: W
HStem: -8 61<161.068 343.349> 458 61<182.926 343.016>
VStem: 48 68<102.109 384.904> 412 67<128.261 344 344 407.631> 479 56<546.786 638>
Fore
442 446 m 1
 457 425 479 385 479 344 c 2
 479 203 l 2
 479 81 382 -8 276 -8 c 2
 216 -8 l 2
 119 -8 48 78 48 167 c 2
 48 308 l 2
 48 424 142 519 252 519 c 2
 312 519 l 2
 343 519 372 508 393 496 c 1
 463 504 479 601 479 638 c 1
 535 638 l 1
 533 578 529 502 442 446 c 1
276 53 m 2
 358 53 412 135 412 203 c 2
 412 344 l 2
 412 391 369 458 312 458 c 2
 252 458 l 2
 167 458 116 375 116 308 c 2
 116 167 l 2
 116 108 163 53 216 53 c 2
 276 53 l 2
EndSplineSet
EndChar
StartChar: Uhorn
Encoding: 431 431 489
Width: 786
VWidth: 1507
Flags: W
HStem: -15 60<223.668 460.688> 696 20G<59 127 594 662>
VStem: 59 68<147.95 716> 594 68<191.1 607 681 716> 742 58<741.754 852>
Fore
800 852 m 1
 800 783 782 649 662 607 c 1
 662 286 l 2
 662 124 533 -15 377 -15 c 2
 294 -15 l 2
 163 -15 59 100 59 235 c 2
 59 716 l 1
 127 716 l 1
 127 235 l 2
 127 138 202 45 294 45 c 2
 377 45 l 2
 495 45 594 165 594 286 c 2
 594 716 l 1
 662 716 l 1
 662 681 l 1
 716 715 742 757 742 852 c 1
 800 852 l 1
EndSplineSet
EndChar
StartChar: uhorn
Encoding: 432 432 490
Width: 599
VWidth: 1507
Flags: W
HStem: -8 61<162.463 346.544> 431 51<484 534.15> 491 20G<54 122 416 484>
VStem: 54 68<97.8906 511> 416 68<0 65 121.99 178 178 431 482 511> 561 48<529.958 638>
Fore
217 -8 m 2
 129 -8 54 68 54 167 c 2
 54 511 l 1
 122 511 l 1
 122 164 l 2
 122 116 157 53 217 53 c 2
 277 53 l 2
 344 53 405 111 416 178 c 1
 416 511 l 1
 484 511 l 1
 484 482 l 1
 547 495 561 581 561 638 c 1
 609 638 l 1
 609 477 528 443 484 431 c 1
 484 0 l 1
 416 0 l 1
 416 65 l 1
 389 27 335 -8 277 -8 c 2
 217 -8 l 2
EndSplineSet
EndChar
StartChar: hookabovecomb
Encoding: 777 777 491
Width: 536
VWidth: 1507
Flags: W
HStem: 906 53<197.436 265.912>
VStem: 136 58<871 904.858> 270 59<855.482 905.148>
Fore
270 883 m 0
 270 899 265 906 234 906 c 2
 222 906 l 2
 205 906 194 889 194 871 c 1
 136 871 l 1
 136 941 187 956 222 959 c 2
 234 959 l 2
 260 959 282 954 301 944 c 0
 320 934 329 914 329 885 c 0
 329 837 291 826 270 808 c 0
 264 803 259 794 255 782 c 1
 255 760 l 1
 199 760 l 1
 199 782 l 2
 199 849 270 851 270 883 c 0
EndSplineSet
EndChar
StartChar: tildecomb
Encoding: 771 771 492
Width: 325
VWidth: 1507
Flags: W
HStem: 600 47<196.96 262.216> 677 47<77.1886 139.661>
VStem: 9 51<624 670.308> 270 51<654.016 699>
Fore
231 647 m 0
 253 647 270 669 270 699 c 1
 321 699 l 1
 318 617 270 600 222 600 c 0
 164 600 146 677 99 677 c 0
 88 677 60 667 60 624 c 1
 9 624 l 1
 15 709 65 724 106 724 c 0
 173 724 195 647 231 647 c 0
EndSplineSet
EndChar
StartChar: acutecomb
Encoding: 769 769 493
Width: 179
VWidth: 1507
Flags: W
HStem: 565 166<66 106 106 106>
Fore
106 731 m 1
 176 731 l 1
 66 565 l 1
 -5 565 l 1
 106 731 l 1
EndSplineSet
EndChar
StartChar: dotbelowcomb
Encoding: 803 803 494
Width: 238
VWidth: 1507
Flags: W
HStem: -160 92<76.1719 154.397>
VStem: 69 92<-153.419 -74.7944>
Fore
115 -160 m 0
 86 -160 69 -137 69 -115 c 256
 69 -90 87 -68 115 -68 c 0
 143 -68 161 -89 161 -115 c 256
 161 -140 143 -160 115 -160 c 0
EndSplineSet
EndChar
StartChar: gravecomb
Encoding: 768 768 495
Width: 179
VWidth: 1507
Flags: W
HStem: 565 166<-5 176 -5 -5>
Fore
176 565 m 1
 106 565 l 1
 -5 731 l 1
 66 731 l 1
 176 565 l 1
EndSplineSet
EndChar
